<?xml version="1.0" standalone="no"?>
<!DOCTYPE svg PUBLIC "-//W3C//DTD SVG 20010904//EN"
 "http://www.w3.org/TR/2001/REC-SVG-20010904/DTD/svg10.dtd">
<svg version="1.0" xmlns="http://www.w3.org/2000/svg"
 width="229.000000pt" height="145.000000pt" viewBox="0 0 229.000000 145.000000"
 preserveAspectRatio="xMidYMid meet">

<g transform="translate(0.000000,145.000000) scale(0.100000,-0.100000)"
fill="#000000" stroke="none">
<path d="M734 1170 c-47 -15 -76 -53 -85 -111 -9 -55 -20 -69 -57 -69 -14 0
-26 -8 -32 -24 -5 -13 -52 -60 -104 -104 -174 -145 -207 -199 -214 -348 -5
-112 5 -157 44 -204 32 -37 78 -52 173 -55 42 -1 96 -8 121 -15 70 -20 208
-19 246 2 38 21 67 78 84 162 9 46 19 66 47 91 64 59 61 139 -7 161 -19 6 -40
21 -48 33 -16 23 -11 29 123 146 31 28 65 58 76 68 46 42 54 148 15 194 -23
26 -30 28 -103 29 -56 1 -91 7 -123 22 -56 26 -115 34 -156 22z m166 -60 c70
-31 100 -37 100 -21 0 14 60 22 81 10 17 -9 18 -13 7 -26 -11 -14 -10 -16 9
-11 29 8 38 -18 23 -71 -11 -41 -50 -81 -80 -81 -9 0 -43 9 -76 21 -74 26
-136 21 -205 -14 -39 -21 -55 -25 -70 -17 -25 14 -25 -1 3 -102 19 -71 20 -85
9 -129 -22 -85 0 -92 193 -59 51 9 71 9 79 1 22 -22 -14 -64 -82 -98 l-65 -31
35 -4 c32 -3 34 -5 30 -38 -7 -74 -45 -109 -151 -138 -34 -10 -34 -10 -7 -11
45 -2 26 -26 -22 -29 -24 -2 -65 2 -93 7 -52 12 -203 80 -250 113 -43 30 -33
10 19 -38 52 -47 52 -60 1 -50 -52 10 -98 43 -115 84 -22 53 -14 190 16 259
24 55 121 156 214 222 26 19 56 49 67 68 21 36 45 45 37 13 -7 -26 5 -25 30 3
13 13 24 43 28 77 6 43 14 61 40 87 44 44 100 45 195 3z m-82 -251 c-2 -18
-10 -25 -32 -27 -52 -6 -53 38 -1 58 26 10 38 -1 33 -31z m202 6 c0 -8 -7 -15
-15 -15 -8 0 -15 7 -15 15 0 8 7 15 15 15 8 0 15 -7 15 -15z m-120 -205 c0 -5
-7 -10 -16 -10 -8 0 -12 5 -9 10 3 6 10 10 16 10 5 0 9 -4 9 -10z m-110 -20
c0 -5 -12 -10 -26 -10 -14 0 -23 4 -19 10 3 6 15 10 26 10 10 0 19 -4 19 -10z
m35 -350 c-3 -5 -13 -10 -21 -10 -8 0 -12 5 -9 10 3 6 13 10 21 10 8 0 12 -4
9 -10z"/>
<path d="M747 1123 c-11 -11 -8 -23 6 -23 8 0 14 7 14 15 0 16 -9 19 -20 8z"/>
<path d="M641 536 c-19 -46 -8 -62 39 -58 46 5 53 19 13 24 -22 2 -29 10 -34
33 l-6 30 -12 -29z"/>
<path d="M410 981 c0 -20 33 -42 54 -37 12 3 27 6 35 6 11 0 10 5 -4 20 -18
20 -85 29 -85 11z m47 -17 c-3 -3 -12 -4 -19 -1 -8 3 -5 6 6 6 11 1 17 -2 13
-5z"/>
<path d="M1151 638 c0 -7 8 -35 18 -63 24 -67 47 -71 56 -11 8 54 21 52 30 -4
9 -56 30 -50 51 13 9 28 19 58 22 65 2 6 -3 12 -11 12 -10 0 -18 -13 -23 -35
-9 -50 -23 -53 -30 -5 -5 29 -11 40 -24 40 -13 0 -20 -11 -25 -40 -8 -47 -21
-44 -31 5 -6 32 -35 52 -33 23z"/>
<path d="M1500 585 c0 -51 3 -65 15 -65 8 0 15 9 15 20 0 11 4 20 10 20 5 0
14 -9 20 -20 6 -11 18 -20 26 -20 13 0 13 4 -2 30 -17 28 -17 30 1 50 15 17
16 20 3 20 -9 0 -21 -7 -28 -15 -19 -23 -30 -18 -30 15 0 20 -5 30 -15 30 -12
0 -15 -14 -15 -65z"/>
<path d="M1617 643 c-4 -3 -7 -33 -7 -65 0 -45 3 -58 15 -58 10 0 15 10 15 30
0 28 3 30 35 30 32 0 35 -2 35 -30 0 -16 5 -30 10 -30 6 0 10 28 10 65 0 37
-4 65 -10 65 -5 0 -10 -11 -10 -25 0 -22 -4 -25 -35 -25 -31 0 -35 3 -35 25 0
24 -10 32 -23 18z"/>
<path d="M1750 640 c0 -5 7 -10 16 -10 8 0 12 5 9 10 -3 6 -10 10 -16 10 -5 0
-9 -4 -9 -10z"/>
<path d="M1353 619 c-44 -16 -41 -84 4 -95 46 -12 72 19 59 71 -7 26 -32 36
-63 24z m44 -39 c4 -23 -13 -44 -31 -37 -9 4 -16 18 -16 32 0 22 4 26 22 23
13 -2 24 -10 25 -18z"/>
<path d="M1452 614 c-27 -19 -33 -94 -7 -94 11 0 15 11 15 35 0 22 6 38 15 41
15 6 21 34 7 34 -4 0 -18 -7 -30 -16z"/>
<path d="M1750 571 c0 -39 4 -51 16 -51 12 0 14 10 12 47 -4 66 -28 70 -28 4z"/>
<path d="M1808 609 c-14 -8 -18 -23 -18 -69 0 -33 4 -60 10 -60 6 0 10 11 10
25 0 22 3 25 25 19 33 -8 55 11 55 47 0 41 -43 61 -82 38z m56 -24 c8 -22 -4
-46 -23 -43 -9 2 -17 15 -19 31 -3 21 1 27 16 27 11 0 22 -7 26 -15z"/>
<path d="M1928 609 c-14 -8 -18 -23 -18 -69 0 -33 4 -60 10 -60 6 0 10 12 10
26 0 21 4 24 20 19 31 -10 60 12 60 45 0 42 -42 63 -82 39z m47 -39 c0 -15 -6
-26 -16 -28 -19 -3 -31 21 -22 43 9 25 38 13 38 -15z"/>
<path d="M2032 608 c-30 -30 -2 -88 42 -88 29 0 46 18 46 50 0 33 -17 50 -50
50 -14 0 -31 -5 -38 -12z m56 -35 c-3 -32 -33 -43 -40 -16 -7 27 1 43 23 43
16 0 20 -6 17 -27z"/>
<path d="M212 541 c-14 -46 -15 -81 -3 -81 9 0 26 108 18 116 -2 2 -9 -13 -15
-35z"/>
</g>
</svg>
