<?xml version="1.0" encoding="UTF-8" standalone="no"?>
<!-- Created with Inkscape (http://www.inkscape.org/) -->

<svg
   version="1.1"
   id="svg70418"
   xml:space="preserve"
   width="1066.6667"
   height="1066.6667"
   viewBox="0 0 1066.6667 1066.6667"
   sodipodi:docname="plant-clipart-publicdomainvectors.org.svg"
   inkscape:version="1.1.2 (b8e25be833, 2022-02-05)"
   xmlns:inkscape="http://www.inkscape.org/namespaces/inkscape"
   xmlns:sodipodi="http://sodipodi.sourceforge.net/DTD/sodipodi-0.dtd"
   xmlns="http://www.w3.org/2000/svg"
   xmlns:svg="http://www.w3.org/2000/svg"><defs
     id="defs70422"><clipPath
       clipPathUnits="userSpaceOnUse"
       id="clipPath70432"><path
         d="M 0,800 H 800 V 0 H 0 Z"
         id="path70430" /></clipPath></defs><sodipodi:namedview
     id="namedview70420"
     pagecolor="#ffffff"
     bordercolor="#666666"
     borderopacity="1.0"
     inkscape:pageshadow="2"
     inkscape:pageopacity="0.0"
     inkscape:pagecheckerboard="0"
     showgrid="false"
     inkscape:zoom="0.77906244"
     inkscape:cx="533.33337"
     inkscape:cy="533.33337"
     inkscape:window-width="1920"
     inkscape:window-height="1018"
     inkscape:window-x="-8"
     inkscape:window-y="-8"
     inkscape:window-maximized="1"
     inkscape:current-layer="g70424" /><g
     id="g70424"
     inkscape:groupmode="layer"
     inkscape:label="plant-clipart-publicdomainvectors.org"
     transform="matrix(1.3333333,0,0,-1.3333333,0,1066.6667)"><g
       id="g70426"><g
         id="g70428"
         clip-path="url(#clipPath70432)"><path
           d="m 440.328,87.267 c 90.413,0 164.155,26.216 164.155,58.366 0,32.145 -73.742,58.365 -164.155,58.365 -90.415,0 -164.156,-26.22 -164.156,-58.365 0,-32.15 73.741,-58.366 164.156,-58.366"
           style="fill:#e6e6e6;fill-opacity:1;fill-rule:evenodd;stroke:none"
           id="path70434" /><path
           d="m 144.308,548.918 c 2.352,-7.861 2.421,-16.03 1.142,-24.417 -6.059,-39.728 38.441,-45.522 80.686,-78.275 50.17,-38.896 70.171,-105.853 146.436,-26.275 5.615,74.275 -27.578,96.365 -174.402,106.737 -12.443,0.878 -29.638,5.316 -39.531,10.264 -10.123,5.067 -10.719,6.708 -14.331,11.966"
           style="fill:#cc3300;fill-opacity:1;fill-rule:evenodd;stroke:none"
           id="path70436" /><path
           d="m 254.093,420.102 c 32.859,-34.162 57.948,-63.314 118.479,-0.151 2.444,32.319 -2.467,54.754 -20.884,70.647 8.618,-13.767 16.641,-29.348 5.324,-61.58 -27.039,-35.865 -63.649,-36.755 -102.921,-8.912 z"
           style="fill:#b02c00;fill-opacity:1;fill-rule:evenodd;stroke:none"
           id="path70438" /><path
           d="m 372.793,423.243 v 0.006 c 0.064,0.989 0.112,1.965 0.16,2.933 0.005,0.135 0.012,0.269 0.022,0.403 0.036,0.827 0.06,1.641 0.086,2.453 0.009,0.275 0.022,0.559 0.029,0.834 0.021,0.776 0.032,1.543 0.043,2.307 0.006,0.292 0.01,0.59 0.016,0.88 0.005,0.725 0,1.439 -0.006,2.15 0,0.329 0.003,0.66 -10e-4,0.983 -0.009,0.674 -0.025,1.332 -0.043,1.993 -0.009,0.356 -0.014,0.715 -0.027,1.07 -0.022,0.63 -0.053,1.252 -0.082,1.875 -0.022,0.37 -0.032,0.745 -0.053,1.112 -0.037,0.61 -0.08,1.209 -0.125,1.809 -0.026,0.367 -0.05,0.741 -0.082,1.105 -0.044,0.582 -0.104,1.152 -0.158,1.723 -0.038,0.378 -0.073,0.76 -0.113,1.135 -0.063,0.558 -0.132,1.107 -0.2,1.655 -0.049,0.374 -0.093,0.752 -0.145,1.125 -0.072,0.538 -0.157,1.068 -0.243,1.6 -0.056,0.374 -0.111,0.748 -0.175,1.119 -0.085,0.516 -0.183,1.026 -0.278,1.534 -0.073,0.374 -0.138,0.75 -0.212,1.119 -0.101,0.497 -0.21,0.985 -0.318,1.474 -0.082,0.372 -0.162,0.746 -0.249,1.114 -0.114,0.483 -0.237,0.954 -0.362,1.429 -0.092,0.364 -0.185,0.734 -0.283,1.094 -0.127,0.469 -0.265,0.931 -0.402,1.392 -0.107,0.357 -0.213,0.712 -0.322,1.067 -0.146,0.455 -0.294,0.904 -0.447,1.354 -0.117,0.349 -0.234,0.7 -0.362,1.047 -0.153,0.436 -0.317,0.867 -0.482,1.296 -0.132,0.35 -0.266,0.701 -0.406,1.044 -0.17,0.426 -0.349,0.845 -0.53,1.265 -0.146,0.339 -0.289,0.676 -0.44,1.011 -0.189,0.414 -0.385,0.823 -0.578,1.23 -0.157,0.33 -0.316,0.661 -0.48,0.988 -0.202,0.403 -0.414,0.801 -0.627,1.2 -0.171,0.323 -0.343,0.645 -0.521,0.961 -0.215,0.39 -0.443,0.773 -0.666,1.158 -0.191,0.317 -0.376,0.635 -0.572,0.95 -0.231,0.377 -0.473,0.749 -0.713,1.118 -0.202,0.31 -0.404,0.622 -0.613,0.927 -0.247,0.366 -0.504,0.728 -0.761,1.087 -0.217,0.305 -0.437,0.609 -0.661,0.91 -0.261,0.351 -0.53,0.699 -0.802,1.043 -0.237,0.3 -0.473,0.601 -0.714,0.898 -0.276,0.339 -0.562,0.676 -0.852,1.012 -0.249,0.29 -0.5,0.582 -0.755,0.869 -0.298,0.332 -0.601,0.66 -0.907,0.988 -0.266,0.283 -0.53,0.564 -0.801,0.844 -0.314,0.32 -0.635,0.638 -0.956,0.956 -0.283,0.276 -0.567,0.551 -0.855,0.825 -0.331,0.311 -0.666,0.618 -1.005,0.927 -0.298,0.267 -0.597,0.533 -0.901,0.8 -0.351,0.303 -0.705,0.604 -1.066,0.903 -0.311,0.26 -0.627,0.517 -0.945,0.772 -0.368,0.297 -0.743,0.59 -1.123,0.88 -0.327,0.251 -0.656,0.501 -0.992,0.749 -0.386,0.288 -0.777,0.57 -1.172,0.851 -0.35,0.248 -0.702,0.493 -1.058,0.737 -0.403,0.275 -0.81,0.547 -1.221,0.819 -0.362,0.238 -0.73,0.475 -1.101,0.709 -0.425,0.27 -0.855,0.538 -1.29,0.801 -0.378,0.232 -0.764,0.463 -1.153,0.689 -0.443,0.26 -0.888,0.519 -1.341,0.772 -0.397,0.226 -0.801,0.449 -1.208,0.671 -0.464,0.25 -0.928,0.501 -1.401,0.749 -0.418,0.219 -0.84,0.434 -1.268,0.649 -0.477,0.244 -0.96,0.485 -1.449,0.722 -0.44,0.214 -0.887,0.427 -1.335,0.638 -0.493,0.231 -0.993,0.464 -1.501,0.693 -0.458,0.207 -0.924,0.412 -1.392,0.615 -0.518,0.228 -1.038,0.453 -1.566,0.675 -0.475,0.199 -0.958,0.397 -1.443,0.594 -0.541,0.219 -1.084,0.44 -1.634,0.656 -0.491,0.192 -0.991,0.381 -1.492,0.571 -0.564,0.214 -1.129,0.425 -1.705,0.637 -0.509,0.185 -1.031,0.369 -1.552,0.554 -0.579,0.204 -1.164,0.409 -1.757,0.611 -0.539,0.183 -1.088,0.363 -1.638,0.544 -0.591,0.195 -1.185,0.389 -1.789,0.579 -0.565,0.181 -1.141,0.358 -1.717,0.534 -0.616,0.188 -1.232,0.378 -1.86,0.563 -0.576,0.171 -1.163,0.338 -1.749,0.507 -0.643,0.183 -1.286,0.367 -1.941,0.548 -0.597,0.164 -1.205,0.327 -1.813,0.488 -0.667,0.18 -1.337,0.357 -2.017,0.532 -0.613,0.159 -1.239,0.315 -1.864,0.469 -0.69,0.172 -1.377,0.346 -2.081,0.514 -0.643,0.155 -1.297,0.307 -1.951,0.457 -0.704,0.166 -1.406,0.331 -2.122,0.49 -0.677,0.154 -1.37,0.302 -2.057,0.451 -0.716,0.157 -1.432,0.313 -2.16,0.467 -0.691,0.146 -1.397,0.285 -2.099,0.43 -0.753,0.153 -1.503,0.306 -2.265,0.456 -0.708,0.138 -1.429,0.275 -2.146,0.412 -0.777,0.147 -1.549,0.294 -2.337,0.44 -0.738,0.136 -1.487,0.268 -2.235,0.4 -0.797,0.141 -1.589,0.284 -2.398,0.422 -0.769,0.134 -1.556,0.263 -2.335,0.393 -0.801,0.133 -1.598,0.267 -2.409,0.396 -0.816,0.134 -1.651,0.26 -2.477,0.389 -0.815,0.126 -1.623,0.254 -2.448,0.379 -0.821,0.124 -1.66,0.245 -2.494,0.364 -0.851,0.125 -1.699,0.251 -2.563,0.373 -0.846,0.12 -1.711,0.237 -2.568,0.352 -0.873,0.12 -1.741,0.239 -2.63,0.359 -0.897,0.117 -1.812,0.233 -2.721,0.348 -0.871,0.113 -1.732,0.225 -2.612,0.333 -0.912,0.114 -1.845,0.223 -2.769,0.334 -0.916,0.11 -1.828,0.22 -2.757,0.328 -0.937,0.108 -1.895,0.215 -2.844,0.321 -0.923,0.105 -1.835,0.208 -2.768,0.31 -1.047,0.114 -2.121,0.225 -3.184,0.338 -0.871,0.09 -1.732,0.183 -2.611,0.273 -1.047,0.108 -2.117,0.211 -3.177,0.316 -0.933,0.093 -1.857,0.186 -2.801,0.275 -1.103,0.106 -2.23,0.208 -3.348,0.313 -0.912,0.084 -1.813,0.17 -2.735,0.254 -1.171,0.105 -2.367,0.207 -3.555,0.311 -0.913,0.079 -1.814,0.159 -2.736,0.238 -1.163,0.098 -2.356,0.194 -3.538,0.291 -0.962,0.078 -1.914,0.158 -2.885,0.236 -1.463,0.117 -2.957,0.231 -4.444,0.343 -0.711,0.055 -1.408,0.112 -2.121,0.164 -2.222,0.168 -4.48,0.33 -6.759,0.493 -12.443,0.878 -29.638,5.316 -39.531,10.264 -10.123,5.067 -10.719,6.708 -14.331,11.966 l 14.148,-21.403 1.106,-3.035 4.62,-6.766 11.754,-9.12 27.887,-14.337 86.916,-29.795 75.924,-40.607 z"
           style="fill:#89ba27;fill-opacity:1;fill-rule:evenodd;stroke:none"
           id="path70440" /><path
           d="m 372.793,423.243 c 4.376,71.639 -29.995,93.228 -174.623,103.445 -12.443,0.878 -29.638,5.316 -39.531,10.264 -10.123,5.067 -10.719,6.708 -14.331,11.966 l 14.148,-21.403 1.106,-3.035 4.62,-6.766 11.754,-9.12 27.887,-14.337 86.916,-29.795 75.924,-40.607 z"
           style="fill:#fa3f00;fill-opacity:1;fill-rule:evenodd;stroke:none"
           id="path70442" /><path
           d="m 372.793,423.243 c 1.867,30.551 -3.324,51.994 -21.096,67.34 8.614,-13.763 16.627,-29.344 5.315,-61.565 l 9.651,-5.163 z"
           style="fill:#cc3300;fill-opacity:1;fill-rule:evenodd;stroke:none"
           id="path70444" /><path
           d="m 175.538,507.922 c -1.663,-0.334 -3.235,-0.794 -4.805,-1.255 -2.9,-0.849 -10.091,-3.118 -13.968,-2.603 5.881,-1.281 10.129,-0.035 14.375,1.21 2.01,0.589 4.018,1.178 6.178,1.478 2.074,-1.328 4.257,-2.628 6.524,-3.899 -1.604,-0.45 -3.128,-1.006 -4.651,-1.564 -4.939,-1.804 -8.368,-3.77 -15.301,-3.473 6.631,-1.243 11.214,0.432 15.798,2.107 1.958,0.716 3.917,1.43 6.021,1.899 2.224,-1.205 4.517,-2.38 6.852,-3.524 -1.592,-0.55 -3.104,-1.195 -4.615,-1.843 -5.23,-2.236 -10.208,-4.585 -16.647,-4.337 7.389,-1.207 12.305,0.895 17.22,2.996 1.937,0.829 3.874,1.657 5.944,2.266 2.335,-1.115 4.706,-2.195 7.088,-3.241 -1.605,-0.646 -3.131,-1.38 -4.655,-2.116 -5.515,-2.658 -11.609,-5.206 -18,-5.198 8.134,-1.172 13.382,1.357 18.631,3.887 1.934,0.93 3.868,1.863 5.935,2.596 2.445,-1.054 4.893,-2.064 7.321,-3.038 -1.662,-0.745 -3.245,-1.582 -4.825,-2.42 -5.798,-3.07 -10.824,-5.875 -19.365,-6.063 8.882,-1.134 14.465,1.822 20.046,4.777 1.975,1.046 3.952,2.093 6.066,2.944 2.559,-1.007 5.083,-1.967 7.541,-2.875 -1.782,-0.863 -3.472,-1.83 -5.163,-2.795 -6.053,-3.463 -11.941,-6.65 -20.731,-6.928 9.629,-1.099 15.543,2.284 21.458,5.664 2.072,1.185 4.146,2.372 6.37,3.349 2.696,-0.98 5.302,-1.895 7.766,-2.74 -1.978,-1.007 -3.839,-2.141 -5.7,-3.278 -5.948,-3.626 -10.085,-6.667 -22.105,-7.793 10.373,-1.064 16.618,2.745 22.864,6.553 2.239,1.365 4.476,2.73 6.897,3.851 2.92,-0.985 5.617,-1.863 8.004,-2.624 -2.268,-1.186 -4.38,-2.544 -6.49,-3.903 -3.369,-2.169 -11.75,-7.623 -23.484,-8.661 11.118,-1.027 17.694,3.205 24.271,7.436 2.486,1.602 4.973,3.201 7.698,4.497 4.002,-1.257 6.92,-2.118 8.26,-2.527 -2.687,-1.403 -5.141,-3.058 -7.594,-4.712 -3.423,-2.306 -12.027,-8.832 -24.862,-9.526 11.862,-0.993 18.771,3.665 25.675,8.321 2.807,1.891 5.611,3.782 8.743,5.268 2.669,-0.907 5.339,-1.818 7.998,-2.727 -3.012,-1.591 -5.725,-3.495 -8.437,-5.399 -3.488,-2.448 -13.683,-10.258 -26.246,-10.396 12.603,-0.957 19.842,4.125 27.082,9.206 3.042,2.138 6.087,4.275 9.522,5.93 2.714,-0.932 5.416,-1.863 8.086,-2.795 -3.379,-1.787 -6.382,-3.971 -9.384,-6.154 -3.542,-2.578 -14.207,-10.286 -27.628,-11.265 13.342,-0.922 20.913,4.584 28.482,10.09 3.319,2.413 6.637,4.826 10.435,6.662 2.034,-0.715 4.05,-1.428 6.039,-2.141 0.707,-0.254 1.407,-0.51 2.103,-0.765 -3.802,-1.992 -7.126,-4.486 -10.449,-6.98 -3.599,-2.7 -14.253,-11.691 -29.015,-12.133 14.09,-0.887 21.988,5.041 29.889,10.97 3.615,2.713 7.232,5.428 11.434,7.447 2.732,-1.033 5.386,-2.093 7.966,-3.171 -4.191,-2.186 -7.796,-4.967 -11.401,-7.748 -3.659,-2.825 -14.951,-12.551 -30.398,-13.007 14.829,-0.851 23.061,5.503 31.29,11.855 3.869,2.983 7.737,5.97 12.269,8.157 2.676,-1.143 5.273,-2.307 7.803,-3.485 -4.523,-2.363 -8.38,-5.417 -12.234,-8.468 -3.718,-2.941 -15.734,-14.288 -31.79,-13.873 15.57,-0.816 24.132,5.959 32.692,12.733 4.083,3.231 8.168,6.464 13.003,8.822 2.62,-1.244 5.164,-2.5 7.642,-3.764 -4.815,-2.538 -8.887,-5.834 -12.961,-9.132 -3.78,-3.061 -17.727,-14.747 -33.177,-14.743 16.308,-0.782 25.201,6.418 34.095,13.615 4.271,3.462 8.546,6.923 13.633,9.442 2.562,-1.325 5.052,-2.656 7.478,-3.984 -5.04,-2.699 -9.291,-6.21 -13.542,-9.723 -3.844,-3.178 -16.136,-15.125 -34.57,-15.617 17.051,-0.746 26.274,6.877 35.496,14.498 4.428,3.658 8.858,7.317 14.147,10 2.512,-1.389 4.959,-2.772 7.346,-4.139 -5.214,-2.85 -9.605,-6.547 -13.996,-10.244 -3.902,-3.285 -16.887,-15.619 -35.958,-16.484 17.791,-0.716 27.344,7.328 36.897,15.373 4.551,3.833 9.104,7.666 14.547,10.501 2.484,-1.426 4.908,-2.835 7.283,-4.211 -5.355,-3.001 -9.861,-6.861 -14.367,-10.718 -3.831,-3.286 -19.803,-17.507 -37.35,-17.361 18.53,-0.676 28.414,7.79 38.297,16.255 4.664,3.996 9.329,7.992 14.89,10.973 0.603,-0.349 1.204,-0.694 1.799,-1.038 1.85,-1.067 3.667,-2.129 5.459,-3.183 -5.464,-3.143 -10.07,-7.152 -14.675,-11.157 -4.033,-3.51 -19.163,-17.955 -38.744,-18.23 19.273,-0.645 29.487,8.246 39.702,17.133 4.752,4.137 9.506,8.274 15.164,11.4 2.43,-1.433 4.814,-2.846 7.165,-4.225 -5.495,-3.262 -10.151,-7.374 -14.808,-11.483 -4.089,-3.614 -19.905,-19.138 -40.134,-19.101 20.015,-0.61 30.558,8.702 41.102,18.011 4.8,4.24 9.6,8.477 15.285,11.732 2.432,-1.413 4.834,-2.781 7.221,-4.085 -5.5,-3.373 -10.19,-7.568 -14.878,-11.767 -4.159,-3.72 -20.26,-19.029 -41.533,-19.976 20.752,-0.574 31.627,9.161 42.502,18.894 4.84,4.333 9.682,8.666 15.396,12.048 12.38,-6.631 24.494,-11.411 38.702,-11.574 l 0.649,5.585 c -11.775,0.134 -22.247,3.017 -32.712,7.556 -5.131,7.407 -6.923,15.778 -8.775,24.443 -3.051,14.252 -6.267,29.294 -24.525,42.582 20.616,-15.51 21.845,-37.029 23.101,-42.886 1.724,-8.079 3.401,-15.903 7.758,-23.052 -2.336,1.068 -4.678,2.214 -7.038,3.428 -4.501,7.038 -6.548,15.864 -8.238,23.867 -2.902,13.743 -5.962,28.244 -23.489,41.163 19.199,-15.65 20.856,-35.731 22.066,-41.461 1.661,-7.875 3.272,-15.499 7.545,-22.471 -2.372,1.252 -4.767,2.563 -7.201,3.925 l 0.206,0.143 c -4.714,6.925 -6.332,14.698 -8.007,22.747 -2.752,13.23 -5.658,27.192 -22.451,39.74 16.964,-13.882 19.863,-34.437 21.029,-40.038 1.553,-7.462 3.056,-14.69 7.004,-21.342 -2.266,1.283 -4.567,2.605 -6.916,3.959 -4.43,6.651 -5.951,14.071 -7.524,21.753 -2.606,12.719 -5.354,26.137 -21.416,38.318 15.056,-12.615 18.87,-33.143 19.99,-38.609 1.424,-6.951 2.805,-13.696 6.318,-19.946 -2.306,1.326 -4.662,2.68 -7.073,4.048 -3.889,6.235 -5.275,13.114 -6.705,20.225 -2.456,12.208 -5.049,25.086 -20.378,36.896 15.94,-13.613 17.88,-31.844 18.954,-37.184 1.296,-6.441 2.555,-12.694 5.644,-18.534 -2.343,1.318 -4.744,2.649 -7.211,3.983 -3.399,5.82 -4.656,12.191 -5.954,18.765 -2.307,11.698 -4.743,24.034 -19.341,35.478 15.798,-13.659 16.883,-30.548 17.914,-35.76 1.178,-5.968 2.322,-11.77 5.053,-17.232 -2.391,1.275 -4.845,2.553 -7.369,3.828 -2.991,5.442 -4.129,11.342 -5.304,17.426 -2.16,11.185 -4.437,22.981 -18.308,34.059 15.05,-12.839 15.895,-29.255 16.876,-34.335 1.07,-5.543 2.113,-10.941 4.541,-16.05 -2.455,1.216 -4.978,2.43 -7.574,3.632 -2.638,5.084 -3.665,10.547 -4.724,16.172 -2.014,10.677 -4.134,21.932 -17.266,32.638 14.032,-12.802 14.901,-27.953 15.835,-32.909 0.972,-5.152 1.917,-10.17 4.073,-14.945 -2.529,1.146 -5.124,2.282 -7.794,3.403 -2.313,4.732 -3.239,9.779 -4.189,14.973 -1.861,10.166 -3.825,20.878 -16.229,31.221 13.19,-11.934 13.915,-26.658 14.798,-31.484 0.874,-4.774 1.726,-9.429 3.644,-13.891 -2.562,1.053 -5.193,2.088 -7.896,3.106 -2.072,4.438 -2.905,9.139 -3.763,13.972 -1.711,9.656 -3.515,19.823 -15.188,29.803 12.304,-11.39 12.923,-25.365 13.755,-30.058 0.791,-4.462 1.565,-8.814 3.296,-13.01 -0.736,0.272 -1.479,0.541 -2.225,0.808 -1.911,0.687 -3.825,1.365 -5.738,2.037 -1.895,4.197 -2.65,8.613 -3.424,13.151 -1.564,9.147 -3.21,18.774 -14.147,28.387 10.84,-10.852 11.931,-24.065 12.712,-28.63 0.718,-4.196 1.417,-8.29 3,-12.257 -2.694,0.944 -5.389,1.876 -8.083,2.801 -1.701,3.938 -2.375,8.055 -3.067,12.284 -1.413,8.635 -2.899,17.72 -13.103,26.969 10.071,-10.535 10.941,-22.77 11.666,-27.204 0.638,-3.9 1.261,-7.71 2.679,-11.422 -2.728,0.934 -5.454,1.864 -8.178,2.791 -1.494,3.658 -2.083,7.454 -2.688,11.346 -1.263,8.129 -2.59,16.668 -12.059,25.557 9.571,-9.662 9.953,-21.47 10.623,-25.78 0.556,-3.58 1.1,-7.082 2.333,-10.513 -2.753,0.936 -5.502,1.866 -8.236,2.795 -1.28,3.367 -1.785,6.829 -2.303,10.375 -1.112,7.619 -2.279,15.613 -11.011,24.142 8.549,-9.392 8.964,-20.178 9.574,-24.354 0.474,-3.247 0.937,-6.427 1.982,-9.565 -2.771,0.941 -5.524,1.88 -8.257,2.819 -1.07,3.067 -1.492,6.198 -1.924,9.396 -0.96,7.111 -1.966,14.559 -9.966,22.731 7.456,-8.795 7.527,-15.554 8.523,-22.925 0.394,-2.913 0.781,-5.769 1.642,-8.609 -2.777,0.959 -5.526,1.918 -8.24,2.88 -0.876,2.773 -1.219,5.577 -1.569,8.437 -0.808,6.605 -1.654,13.506 -8.915,21.325 5.857,-6.802 6.56,-14.062 7.471,-21.498 0.315,-2.584 0.627,-5.12 1.319,-7.662 -2.772,0.989 -5.503,1.981 -8.182,2.98 -0.701,2.493 -0.971,4.987 -1.242,7.525 -0.654,6.099 -1.335,12.451 -7.856,19.918 5.125,-7.09 5.648,-12.998 6.407,-20.071 0.244,-2.264 0.484,-4.497 1.022,-6.745 -2.753,1.035 -5.448,2.081 -8.074,3.135 -0.549,2.233 -0.745,4.441 -0.945,6.683 -0.498,5.594 -1.017,11.393 -6.797,18.514 4.996,-8.659 4.752,-11.958 5.348,-18.642 0.176,-1.97 0.35,-3.914 0.753,-5.891 -2.705,1.105 -5.337,2.219 -7.877,3.352 -0.424,2.013 -0.556,3.986 -0.689,5.981 -0.343,5.091 -0.694,10.332 -5.729,17.113 4.291,-8.071 3.855,-10.922 4.276,-17.209 0.114,-1.714 0.228,-3.413 0.525,-5.157 -2.635,1.198 -5.17,2.416 -7.584,3.653 -0.33,1.865 -0.402,3.649 -0.472,5.447 -0.18,4.595 -0.363,9.274 -4.648,15.722 3.246,-6.416 2.966,-9.881 3.197,-15.78 0.059,-1.505 0.117,-3.002 0.323,-4.557 -2.51,1.329 -4.881,2.68 -7.102,4.064 -0.26,1.803 -0.265,3.474 -0.27,5.146 -0.014,4.102 -0.028,8.205 -3.56,14.338 2.656,-6.086 2.084,-8.834 2.101,-14.341 0.005,-1.35 0.01,-2.701 0.142,-4.13 -7.831,5.106 -13.552,10.636 -16.282,16.829 0.965,-4.751 4.429,-9.39 9.478,-13.818 -1.791,-0.179 -3.477,-0.53 -5.161,-0.881 -2.802,-0.585 -8.063,-2.264 -12.648,-1.737 5.125,-1.318 9.036,-0.503 12.947,0.313 1.889,0.395 3.778,0.789 5.782,0.925 l -0.039,0.618 c 2.026,-1.707 4.286,-3.38 6.723,-5.013"
           style="fill:#872200;fill-opacity:1;fill-rule:evenodd;stroke:none"
           id="path70446" /><path
           d="m 592.122,596.037 c -0.495,-7.057 0.983,-13.941 3.64,-20.756 12.586,-32.276 -23.753,-45.54 -53.113,-81.055 -34.869,-42.177 -39.071,-102.272 -118.226,-49.71 -18.725,61.422 5.031,86.261 126.581,122.666 10.3,3.085 23.929,10.059 31.317,16.087 7.561,6.17 7.751,7.662 9.801,12.768"
           style="fill:#ffcc00;fill-opacity:1;fill-rule:evenodd;stroke:none"
           id="path70448" /><path
           d="m 524.058,466.982 c -21.202,-34.932 -36.811,-64.184 -99.635,-22.466 -8.146,26.727 -8.246,46.524 4.247,63.364 -4.65,-13.205 -8.463,-27.823 7.132,-52.8 29.506,-25.073 60.47,-18.922 88.256,11.905 z"
           style="fill:#e3b600;fill-opacity:1;fill-rule:evenodd;stroke:none"
           id="path70450" /><path
           d="m 423.615,447.245 -0.004,0.004 c -0.234,0.82 -0.462,1.631 -0.68,2.437 -0.032,0.112 -0.065,0.225 -0.095,0.336 -0.187,0.688 -0.363,1.366 -0.538,2.045 -0.061,0.233 -0.124,0.467 -0.183,0.698 -0.164,0.649 -0.318,1.29 -0.469,1.931 -0.058,0.246 -0.122,0.496 -0.177,0.739 -0.144,0.608 -0.275,1.208 -0.404,1.809 -0.06,0.276 -0.127,0.554 -0.185,0.829 -0.116,0.566 -0.228,1.123 -0.337,1.684 -0.061,0.301 -0.125,0.603 -0.178,0.903 -0.103,0.536 -0.193,1.064 -0.286,1.594 -0.053,0.314 -0.11,0.632 -0.164,0.947 -0.085,0.518 -0.159,1.03 -0.238,1.544 -0.046,0.314 -0.096,0.63 -0.142,0.945 -0.068,0.497 -0.128,0.988 -0.188,1.48 -0.039,0.324 -0.083,0.652 -0.118,0.975 -0.054,0.481 -0.099,0.954 -0.144,1.429 -0.03,0.325 -0.066,0.651 -0.092,0.973 -0.038,0.468 -0.067,0.93 -0.097,1.392 -0.02,0.325 -0.047,0.652 -0.063,0.974 -0.027,0.45 -0.039,0.897 -0.056,1.343 -0.012,0.329 -0.026,0.657 -0.032,0.982 -0.008,0.438 -0.008,0.868 -0.011,1.301 -0.002,0.328 -0.005,0.657 0,0.983 0.003,0.427 0.02,0.849 0.036,1.271 0.007,0.324 0.014,0.65 0.031,0.973 0.021,0.419 0.048,0.832 0.078,1.247 0.021,0.32 0.039,0.638 0.065,0.958 0.038,0.41 0.08,0.816 0.121,1.223 0.036,0.316 0.071,0.635 0.107,0.948 0.049,0.397 0.106,0.789 0.164,1.183 0.046,0.319 0.092,0.636 0.144,0.955 0.064,0.388 0.136,0.776 0.208,1.163 0.057,0.311 0.115,0.624 0.178,0.934 0.081,0.382 0.168,0.762 0.256,1.144 0.068,0.307 0.14,0.613 0.217,0.92 0.096,0.379 0.196,0.753 0.303,1.128 0.082,0.303 0.164,0.606 0.254,0.908 0.112,0.367 0.227,0.732 0.344,1.098 0.096,0.302 0.197,0.607 0.3,0.906 0.124,0.361 0.257,0.72 0.391,1.077 0.11,0.298 0.221,0.599 0.339,0.895 0.14,0.355 0.287,0.707 0.437,1.057 0.124,0.298 0.252,0.595 0.385,0.89 0.153,0.344 0.312,0.687 0.476,1.029 0.143,0.298 0.282,0.592 0.431,0.889 0.168,0.339 0.35,0.676 0.527,1.012 0.154,0.292 0.31,0.584 0.471,0.874 0.189,0.336 0.38,0.67 0.576,1.002 0.17,0.288 0.339,0.574 0.514,0.859 0.205,0.329 0.415,0.66 0.626,0.985 0.185,0.287 0.371,0.572 0.562,0.856 0.22,0.325 0.446,0.647 0.67,0.969 0.2,0.28 0.405,0.562 0.608,0.842 0.239,0.321 0.48,0.643 0.726,0.962 0.213,0.277 0.431,0.553 0.648,0.829 0.254,0.317 0.513,0.635 0.78,0.95 0.228,0.274 0.46,0.548 0.694,0.82 0.271,0.312 0.545,0.623 0.827,0.935 0.245,0.272 0.496,0.547 0.748,0.819 0.287,0.307 0.577,0.614 0.875,0.919 0.259,0.268 0.524,0.537 0.79,0.804 0.307,0.307 0.62,0.613 0.933,0.916 0.279,0.268 0.56,0.534 0.844,0.8 0.323,0.301 0.645,0.602 0.979,0.901 0.292,0.263 0.59,0.527 0.891,0.792 0.344,0.298 0.688,0.596 1.038,0.892 0.311,0.264 0.625,0.526 0.942,0.789 0.359,0.292 0.721,0.585 1.086,0.878 0.33,0.263 0.664,0.525 1.002,0.786 0.372,0.29 0.748,0.58 1.129,0.867 0.349,0.262 0.702,0.523 1.055,0.783 0.394,0.287 0.791,0.573 1.192,0.861 0.363,0.258 0.734,0.515 1.105,0.773 0.408,0.287 0.825,0.573 1.246,0.857 0.38,0.255 0.765,0.509 1.151,0.763 0.432,0.287 0.87,0.571 1.312,0.857 0.395,0.254 0.798,0.506 1.202,0.758 0.45,0.283 0.901,0.564 1.362,0.845 0.419,0.257 0.847,0.512 1.275,0.768 0.462,0.276 0.925,0.55 1.395,0.826 0.444,0.257 0.894,0.512 1.345,0.771 0.481,0.273 0.965,0.55 1.458,0.824 0.454,0.252 0.914,0.504 1.376,0.755 0.507,0.278 1.013,0.552 1.531,0.828 0.471,0.251 0.951,0.501 1.431,0.752 0.531,0.277 1.058,0.554 1.596,0.829 0.488,0.249 0.986,0.498 1.482,0.746 0.547,0.273 1.093,0.55 1.651,0.823 0.513,0.253 1.036,0.503 1.557,0.754 0.561,0.272 1.12,0.541 1.691,0.813 0.541,0.254 1.096,0.511 1.648,0.768 0.572,0.264 1.142,0.53 1.727,0.798 0.555,0.252 1.121,0.504 1.684,0.757 0.606,0.272 1.207,0.542 1.822,0.811 0.568,0.251 1.148,0.5 1.727,0.751 0.623,0.27 1.246,0.541 1.882,0.811 0.593,0.253 1.202,0.505 1.803,0.757 0.645,0.27 1.283,0.539 1.938,0.809 0.623,0.256 1.26,0.512 1.893,0.77 0.648,0.261 1.292,0.526 1.949,0.789 0.662,0.263 1.339,0.528 2.011,0.793 0.662,0.258 1.317,0.518 1.987,0.779 0.669,0.259 1.352,0.517 2.029,0.777 0.694,0.266 1.384,0.531 2.086,0.797 0.69,0.259 1.395,0.519 2.093,0.779 0.713,0.266 1.423,0.531 2.147,0.798 0.732,0.269 1.479,0.538 2.222,0.807 0.71,0.257 1.415,0.514 2.134,0.773 0.748,0.266 1.511,0.534 2.267,0.801 0.751,0.265 1.495,0.531 2.257,0.796 0.769,0.268 1.553,0.539 2.333,0.806 0.755,0.261 1.503,0.521 2.27,0.783 0.859,0.295 1.739,0.589 2.614,0.884 0.716,0.24 1.421,0.482 2.144,0.724 0.861,0.285 1.741,0.575 2.613,0.863 0.768,0.253 1.527,0.507 2.306,0.761 0.907,0.297 1.834,0.595 2.754,0.894 0.754,0.242 1.494,0.485 2.254,0.728 0.967,0.31 1.951,0.623 2.933,0.931 0.754,0.24 1.492,0.478 2.254,0.716 0.962,0.304 1.946,0.608 2.924,0.913 0.793,0.248 1.579,0.494 2.381,0.742 1.209,0.374 2.446,0.751 3.673,1.128 0.588,0.18 1.162,0.358 1.755,0.538 1.838,0.559 3.704,1.123 5.592,1.688 10.3,3.085 23.929,10.059 31.317,16.087 7.561,6.17 7.751,7.662 9.801,12.768 l -7.867,-20.674 -0.358,-2.759 -2.612,-6.565 -8.168,-9.886 -20.754,-17.317 -67.496,-41.451 -56.211,-48.468 z"
           style="fill:#89ba27;fill-opacity:1;fill-rule:evenodd;stroke:none"
           id="path70452" /><path
           d="m 423.615,447.245 c -17.185,59.436 7.656,84.076 127.389,119.937 10.3,3.085 23.929,10.059 31.317,16.087 7.561,6.17 7.751,7.662 9.801,12.768 l -7.867,-20.674 -0.358,-2.759 -2.612,-6.565 -8.168,-9.886 -20.754,-17.317 -67.496,-41.451 -56.211,-48.468 z"
           style="fill:#ffda45;fill-opacity:1;fill-rule:evenodd;stroke:none"
           id="path70454" /><path
           d="m 423.615,447.245 c -7.331,25.347 -7.004,44.363 5.052,60.621 -4.65,-13.201 -8.455,-27.818 7.135,-52.786 l -7.146,-6.163 z"
           style="fill:#ffcc00;fill-opacity:1;fill-rule:evenodd;stroke:none"
           id="path70456" /><path
           d="m 573.58,555.664 c 1.461,0.032 2.869,-0.059 4.276,-0.149 2.602,-0.17 9.077,-0.723 12.244,0.443 -4.707,-2.186 -8.516,-1.94 -12.323,-1.693 -1.8,0.116 -3.602,0.234 -5.475,0.079 -1.495,-1.508 -3.086,-3.015 -4.753,-4.511 1.437,-0.076 2.82,-0.257 4.208,-0.437 4.496,-0.586 7.75,-1.593 13.523,-0.037 -5.342,-2.296 -9.513,-1.753 -13.683,-1.207 -1.782,0.233 -3.566,0.465 -5.425,0.462 -1.643,-1.433 -3.348,-2.854 -5.099,-4.255 1.444,-0.163 2.837,-0.421 4.23,-0.681 4.82,-0.895 9.452,-1.933 14.821,-0.509 -5.986,-2.409 -10.518,-1.566 -15.05,-0.726 -1.784,0.331 -3.571,0.664 -5.427,0.784 -1.754,-1.377 -3.545,-2.734 -5.35,-4.062 1.471,-0.24 2.891,-0.572 4.314,-0.903 5.141,-1.196 10.746,-2.19 16.122,-0.979 -6.623,-2.518 -11.514,-1.381 -16.406,-0.243 -1.803,0.419 -3.606,0.839 -5.48,1.064 -1.859,-1.345 -3.728,-2.66 -5.586,-3.933 1.538,-0.315 3.027,-0.72 4.514,-1.126 5.454,-1.491 10.211,-2.903 17.43,-1.451 -7.254,-2.63 -12.509,-1.195 -17.761,0.239 -1.858,0.508 -3.717,1.016 -5.658,1.334 -1.963,-1.33 -3.904,-2.614 -5.799,-3.841 1.659,-0.39 3.264,-0.883 4.867,-1.378 5.747,-1.771 11.301,-3.342 18.747,-1.92 -7.894,-2.738 -13.506,-1.008 -19.117,0.722 -1.968,0.606 -3.934,1.211 -5.992,1.614 -2.084,-1.331 -4.102,-2.593 -6.016,-3.769 1.853,-0.474 3.634,-1.077 5.414,-1.68 5.683,-1.931 9.738,-3.708 20.063,-2.39 -8.524,-2.851 -14.498,-0.825 -20.469,1.201 -2.139,0.727 -4.279,1.453 -6.527,1.941 -2.27,-1.38 -4.374,-2.628 -6.24,-3.717 2.136,-0.572 4.166,-1.317 6.197,-2.061 3.242,-1.189 11.32,-4.198 21.386,-2.857 -9.158,-2.961 -15.486,-0.64 -21.816,1.679 -2.394,0.878 -4.789,1.754 -7.326,2.331 -3.128,-1.813 -5.42,-3.085 -6.47,-3.682 2.525,-0.675 4.902,-1.602 7.277,-2.532 3.314,-1.296 11.782,-5.164 22.709,-3.325 -9.791,-3.073 -16.482,-0.457 -23.168,2.158 -2.716,1.061 -5.43,2.123 -8.346,2.784 -2.075,-1.267 -4.147,-2.536 -6.213,-3.802 2.831,-0.77 5.473,-1.86 8.114,-2.952 3.395,-1.4 13.445,-6.049 24.037,-3.797 -10.42,-3.179 -17.47,-0.27 -24.514,2.638 -2.965,1.225 -5.931,2.448 -9.131,3.195 -2.106,-1.295 -4.202,-2.59 -6.271,-3.879 3.175,-0.863 6.116,-2.135 9.05,-3.406 3.465,-1.5 13.891,-5.973 25.365,-4.267 -11.048,-3.29 -18.457,-0.087 -25.863,3.118 -3.246,1.405 -6.49,2.809 -10.03,3.637 -1.577,-0.983 -3.137,-1.965 -4.678,-2.94 -0.545,-0.347 -1.086,-0.692 -1.624,-1.04 3.575,-0.957 6.84,-2.429 10.106,-3.901 3.535,-1.592 14.194,-7.146 26.695,-4.736 -11.687,-3.402 -19.447,0.095 -27.212,3.593 -3.553,1.602 -7.106,3.201 -11.023,4.108 -2.101,-1.385 -4.134,-2.775 -6.102,-4.168 3.938,-1.049 7.493,-2.71 11.051,-4.369 3.611,-1.686 14.94,-7.741 28.023,-5.21 -12.314,-3.511 -20.436,0.281 -28.556,4.073 -3.818,1.781 -7.634,3.563 -11.857,4.55 -2.037,-1.467 -4.003,-2.938 -5.907,-4.405 4.25,-1.136 8.068,-2.977 11.889,-4.817 3.68,-1.772 15.928,-9.05 29.354,-5.676 -12.945,-3.621 -21.422,0.464 -29.9,4.549 -4.044,1.948 -8.089,3.897 -12.603,4.969 -1.969,-1.54 -3.871,-3.077 -5.715,-4.606 4.525,-1.228 8.574,-3.234 12.623,-5.239 3.755,-1.861 17.693,-9.066 30.686,-6.147 -13.572,-3.731 -22.409,0.648 -31.246,5.025 -4.248,2.105 -8.495,4.21 -13.249,5.371 -1.904,-1.597 -3.749,-3.186 -5.539,-4.761 4.749,-1.319 8.986,-3.472 13.226,-5.624 3.833,-1.948 16.424,-9.679 32.023,-6.62 -14.201,-3.842 -23.398,0.831 -32.593,5.503 -4.415,2.243 -8.83,4.484 -13.785,5.746 -1.852,-1.643 -3.649,-3.268 -5.398,-4.866 4.923,-1.417 9.314,-3.699 13.702,-5.98 3.903,-2.029 17.152,-9.953 33.357,-7.088 -14.83,-3.954 -24.383,1.01 -33.935,5.975 -4.553,2.368 -9.105,4.733 -14.217,6.093 -1.82,-1.67 -3.596,-3.312 -5.333,-4.915 5.07,-1.517 9.588,-3.912 14.106,-6.31 3.845,-2.04 19.96,-10.992 34.694,-7.561 -15.46,-4.062 -25.371,1.195 -35.282,6.455 -4.677,2.48 -9.355,4.961 -14.593,6.422 -0.443,-0.406 -0.88,-0.812 -1.318,-1.213 -1.356,-1.246 -2.684,-2.482 -3.994,-3.708 5.191,-1.611 9.818,-4.114 14.447,-6.617 4.055,-2.191 19.508,-11.489 36.032,-8.03 -16.092,-4.174 -26.362,1.375 -36.627,6.927 -4.778,2.585 -9.559,5.167 -14.907,6.731 -1.773,-1.664 -3.51,-3.303 -5.23,-4.903 5.238,-1.711 9.93,-4.29 14.619,-6.87 4.123,-2.268 20.355,-12.345 37.363,-8.5 -16.722,-4.285 -27.346,1.558 -37.97,7.401 -4.836,2.661 -9.672,5.322 -15.071,6.987 -1.776,-1.645 -3.54,-3.25 -5.303,-4.796 5.266,-1.802 10.002,-4.449 14.737,-7.095 4.197,-2.345 20.625,-12.188 38.7,-8.972 -17.349,-4.395 -28.33,1.741 -39.313,7.879 -4.889,2.731 -9.781,5.463 -15.221,7.231 -9.167,-7.91 -18.454,-14.215 -30.375,-17.031 l -1.602,4.574 c 9.885,2.334 18.148,6.732 26.095,12.525 2.92,7.199 2.849,14.576 2.774,22.215 -0.122,12.564 -0.252,25.823 12.603,40.443 -14.419,-16.935 -11.396,-35.268 -11.347,-40.429 0.071,-7.12 0.136,-14.019 -2.184,-20.855 1.765,1.339 3.52,2.744 5.276,4.21 2.462,6.77 2.52,14.581 2.43,21.63 -0.15,12.107 -0.309,24.883 12,39.054 -13.199,-16.783 -10.807,-33.989 -10.743,-39.036 0.084,-6.938 0.166,-13.655 -2.115,-20.323 1.759,1.499 3.53,3.055 5.317,4.659 l -0.196,0.079 c 2.656,6.716 2.552,13.559 2.445,20.645 -0.181,11.649 -0.366,23.939 11.393,37.662 -11.652,-14.878 -10.217,-32.713 -10.139,-37.645 0.096,-6.569 0.196,-12.933 -1.869,-19.273 1.665,1.506 3.35,3.053 5.069,4.635 2.476,6.429 2.354,12.957 2.229,19.717 -0.207,11.189 -0.426,22.995 10.791,36.27 -10.288,-13.452 -9.626,-31.439 -9.537,-36.246 0.113,-6.118 0.224,-12.049 -1.553,-17.97 1.688,1.551 3.415,3.134 5.185,4.738 2.098,5.979 1.965,12.026 1.828,18.276 -0.237,10.734 -0.483,22.058 10.184,34.881 -10.842,-14.459 -9.033,-30.159 -8.933,-34.852 0.125,-5.662 0.245,-11.16 -1.254,-16.656 1.727,1.55 3.495,3.123 5.317,4.71 1.76,5.537 1.62,11.132 1.471,16.907 -0.265,10.276 -0.543,21.113 9.58,33.489 -10.715,-14.469 -8.442,-28.879 -8.327,-33.458 0.135,-5.241 0.266,-10.338 -1.004,-15.447 1.772,1.524 3.595,3.062 5.478,4.61 1.489,5.14 1.336,10.319 1.177,15.658 -0.292,9.817 -0.599,20.168 8.978,32.101 -10.237,-13.636 -7.854,-27.604 -7.721,-32.063 0.145,-4.866 0.287,-9.6 -0.792,-14.358 1.834,1.488 3.727,2.983 5.683,4.483 1.26,4.775 1.096,9.563 0.929,14.493 -0.324,9.362 -0.66,19.229 8.367,30.71 -9.389,-13.414 -7.264,-26.322 -7.116,-30.669 0.156,-4.515 0.308,-8.913 -0.607,-13.338 1.909,1.442 3.876,2.887 5.914,4.333 1.054,4.416 0.879,8.838 0.702,13.387 -0.35,8.901 -0.722,18.28 7.762,29.321 -8.844,-12.527 -6.676,-25.049 -6.508,-29.274 0.164,-4.181 0.323,-8.257 -0.45,-12.372 1.958,1.369 3.976,2.737 6.06,4.102 0.904,4.123 0.719,8.235 0.527,12.461 -0.379,8.445 -0.776,17.338 7.16,27.935 -8.203,-11.902 -6.088,-23.774 -5.906,-27.879 0.178,-3.902 0.348,-7.709 -0.317,-11.565 0.566,0.366 1.139,0.733 1.719,1.099 1.478,0.938 2.96,1.87 4.443,2.796 0.803,3.886 0.603,7.745 0.399,11.707 -0.408,7.99 -0.837,16.397 6.55,26.546 -7.074,-11.173 -5.5,-22.493 -5.296,-26.479 0.189,-3.663 0.372,-7.242 -0.214,-10.875 2.089,1.301 4.181,2.592 6.27,3.879 0.69,3.632 0.48,7.223 0.267,10.91 -0.442,7.532 -0.902,15.453 5.938,25.159 -6.486,-10.761 -4.91,-21.217 -4.685,-25.084 0.199,-3.403 0.392,-6.725 -0.1,-10.114 2.118,1.301 4.236,2.597 6.352,3.887 0.567,3.362 0.346,6.666 0.121,10.053 -0.469,7.076 -0.961,14.51 5.326,23.772 -6.23,-9.932 -4.323,-19.937 -4.074,-23.688 0.207,-3.117 0.408,-6.164 0.019,-9.285 2.14,1.308 4.276,2.609 6.401,3.905 0.443,3.073 0.214,6.08 -0.02,9.159 -0.5,6.621 -1.026,13.565 4.713,22.384 -5.419,-9.51 -3.739,-18.662 -3.463,-22.288 0.214,-2.822 0.422,-5.585 0.135,-8.42 2.153,1.314 4.295,2.622 6.415,3.926 0.322,2.783 0.087,5.496 -0.153,8.269 -0.533,6.161 -1.092,12.617 4.098,21 -4.614,-8.806 -3.399,-14.505 -2.849,-20.894 0.218,-2.522 0.432,-4.996 0.243,-7.549 2.154,1.329 4.287,2.654 6.388,3.975 0.216,2.499 -0.025,4.923 -0.27,7.393 -0.564,5.708 -1.156,11.673 3.478,19.62 -3.645,-6.828 -2.867,-13.065 -2.232,-19.493 0.223,-2.233 0.44,-4.424 0.337,-6.693 2.144,1.354 4.256,2.705 6.321,4.05 0.12,2.228 -0.125,4.377 -0.374,6.562 -0.602,5.254 -1.225,10.726 2.853,18.235 -2.975,-6.928 -2.301,-11.996 -1.607,-18.091 0.224,-1.951 0.44,-3.872 0.413,-5.867 2.12,1.392 4.191,2.779 6.2,4.162 0.04,1.982 -0.209,3.876 -0.464,5.8 -0.637,4.799 -1.293,9.773 2.228,16.853 -2.573,-8.226 -1.745,-10.954 -0.986,-16.689 0.224,-1.689 0.445,-3.357 0.476,-5.098 2.069,1.44 4.073,2.874 5.995,4.306 -0.02,1.775 -0.284,3.459 -0.547,5.161 -0.672,4.346 -1.364,8.823 1.591,15.476 -2.086,-7.6 -1.181,-9.914 -0.352,-15.283 0.228,-1.464 0.45,-2.913 0.534,-4.439 1.987,1.505 3.892,3.007 5.689,4.505 -0.074,1.631 -0.351,3.145 -0.631,4.669 -0.716,3.9 -1.443,7.871 0.946,14.102 -1.522,-6.008 -0.631,-8.87 0.287,-13.877 0.232,-1.276 0.467,-2.545 0.585,-3.892 1.862,1.59 3.602,3.175 5.208,4.757 -0.121,1.564 -0.433,2.974 -0.743,4.38 -0.76,3.452 -1.521,6.905 0.292,12.731 -1.086,-5.619 -0.086,-7.824 0.936,-12.459 0.249,-1.136 0.501,-2.274 0.661,-3.502 5.623,5.772 9.393,11.505 10.523,17.225 0.082,-4.175 -1.956,-8.733 -5.366,-13.407 1.541,0.185 3.022,0.208 4.504,0.231 2.469,0.036 7.21,-0.385 10.969,0.922 -4.065,-2.074 -7.508,-2.126 -10.951,-2.177 -1.664,-0.025 -3.326,-0.049 -5.039,-0.312 l -0.082,0.529 c -1.382,-1.818 -2.97,-3.653 -4.71,-5.485"
           style="fill:#c49d02;fill-opacity:1;fill-rule:evenodd;stroke:none"
           id="path70458" /><path
           d="m 411.139,519.562 c -16.633,-100.261 14.41,-286.645 47.628,-380.975 -11.553,-0.302 -13.102,-0.345 -24.653,-0.646 -29.545,129.031 -48.052,288.291 -27.334,383.113 l 3.198,1.842 z"
           style="fill:#729c1f;fill-opacity:1;fill-rule:evenodd;stroke:none"
           id="path70460" /><path
           d="m 696.413,481.717 c -1.604,-9.652 -0.465,-19.323 2.304,-29.051 C 711.834,406.585 660.069,393.067 615.012,348.004 561.498,294.487 547.87,212.302 445.756,295 c -17.768,87.006 18.185,118.102 190.281,152.358 14.586,2.901 34.259,10.725 45.217,18.06 11.216,7.507 11.672,9.538 15.159,16.299"
           style="fill:#89ba27;fill-opacity:1;fill-rule:evenodd;stroke:none"
           id="path70462" /><path
           d="M 585.859,312.926 C 552.111,267.598 526.804,229.363 445.756,295 c -7.732,37.86 -5.282,65.127 14.118,86.683 -8.129,-17.574 -15.285,-37.202 2.927,-73.627 37.348,-38.368 80.782,-33.942 123.061,4.87 z"
           style="fill:#7dad1d;fill-opacity:1;fill-rule:evenodd;stroke:none"
           id="path70464" /><path
           d="m 444.998,298.863 v 0.006 c -0.221,1.158 -0.426,2.307 -0.626,3.444 -0.027,0.156 -0.059,0.316 -0.085,0.474 -0.168,0.971 -0.318,1.928 -0.473,2.886 -0.051,0.328 -0.108,0.656 -0.158,0.986 -0.143,0.915 -0.27,1.818 -0.398,2.72 -0.047,0.344 -0.101,0.694 -0.149,1.04 -0.114,0.852 -0.214,1.698 -0.318,2.544 -0.047,0.388 -0.1,0.777 -0.143,1.162 -0.09,0.795 -0.169,1.579 -0.248,2.365 -0.041,0.419 -0.088,0.845 -0.129,1.264 -0.068,0.751 -0.125,1.493 -0.18,2.232 -0.036,0.442 -0.073,0.887 -0.105,1.325 -0.048,0.726 -0.086,1.442 -0.124,2.158 -0.025,0.44 -0.052,0.885 -0.072,1.32 -0.03,0.694 -0.049,1.375 -0.064,2.063 -0.017,0.451 -0.032,0.907 -0.041,1.356 -0.011,0.669 -0.007,1.327 -0.007,1.989 0,0.449 -0.005,0.902 0,1.35 0.006,0.647 0.027,1.286 0.045,1.927 0.013,0.452 0.021,0.904 0.04,1.349 0.027,0.623 0.063,1.242 0.099,1.86 0.028,0.451 0.052,0.907 0.086,1.355 0.042,0.602 0.1,1.195 0.154,1.79 0.042,0.453 0.08,0.905 0.127,1.358 0.064,0.583 0.138,1.164 0.212,1.741 0.059,0.448 0.112,0.893 0.175,1.337 0.079,0.575 0.175,1.139 0.268,1.707 0.071,0.437 0.139,0.875 0.22,1.306 0.101,0.563 0.211,1.115 0.326,1.67 0.088,0.434 0.173,0.866 0.268,1.295 0.116,0.538 0.25,1.071 0.376,1.604 0.107,0.433 0.213,0.868 0.323,1.298 0.139,0.527 0.29,1.048 0.441,1.574 0.122,0.42 0.239,0.844 0.368,1.261 0.159,0.519 0.33,1.029 0.499,1.542 0.141,0.413 0.276,0.83 0.422,1.238 0.18,0.509 0.371,1.012 0.562,1.516 0.154,0.404 0.307,0.812 0.468,1.215 0.199,0.492 0.406,0.98 0.619,1.468 0.175,0.404 0.348,0.807 0.531,1.21 0.216,0.479 0.445,0.954 0.678,1.432 0.191,0.394 0.382,0.79 0.582,1.184 0.24,0.47 0.489,0.937 0.741,1.401 0.21,0.391 0.423,0.785 0.644,1.174 0.257,0.453 0.526,0.904 0.793,1.356 0.233,0.389 0.47,0.777 0.71,1.165 0.279,0.444 0.566,0.883 0.858,1.324 0.249,0.381 0.502,0.763 0.762,1.143 0.303,0.437 0.613,0.872 0.926,1.303 0.27,0.374 0.541,0.746 0.818,1.118 0.325,0.426 0.656,0.852 0.99,1.275 0.292,0.367 0.587,0.739 0.886,1.104 0.345,0.416 0.695,0.832 1.05,1.245 0.314,0.363 0.628,0.723 0.947,1.084 0.368,0.409 0.745,0.817 1.123,1.224 0.33,0.356 0.664,0.705 1.003,1.06 0.392,0.402 0.79,0.805 1.193,1.205 0.349,0.348 0.705,0.694 1.065,1.038 0.412,0.393 0.833,0.787 1.257,1.179 0.377,0.345 0.757,0.69 1.142,1.029 0.434,0.388 0.874,0.77 1.322,1.153 0.394,0.336 0.793,0.67 1.195,1.005 0.462,0.381 0.931,0.761 1.406,1.14 0.416,0.329 0.837,0.661 1.261,0.986 0.484,0.374 0.972,0.744 1.467,1.113 0.44,0.328 0.883,0.653 1.331,0.976 0.51,0.367 1.023,0.733 1.546,1.096 0.462,0.321 0.93,0.638 1.399,0.959 0.531,0.359 1.068,0.713 1.607,1.068 0.488,0.319 0.986,0.637 1.485,0.953 0.55,0.35 1.106,0.699 1.671,1.048 0.511,0.313 1.03,0.625 1.554,0.937 0.577,0.345 1.158,0.687 1.75,1.029 0.532,0.308 1.076,0.616 1.62,0.924 0.606,0.339 1.215,0.678 1.832,1.015 0.555,0.303 1.116,0.602 1.681,0.901 0.633,0.336 1.273,0.671 1.919,1.005 0.579,0.299 1.167,0.594 1.753,0.89 0.657,0.33 1.315,0.658 1.985,0.987 0.612,0.297 1.235,0.591 1.857,0.889 0.673,0.32 1.344,0.638 2.03,0.954 0.642,0.295 1.296,0.591 1.949,0.887 0.704,0.313 1.402,0.633 2.118,0.946 0.655,0.285 1.327,0.571 1.992,0.858 0.734,0.314 1.467,0.628 2.215,0.938 0.681,0.287 1.378,0.569 2.069,0.85 0.765,0.313 1.528,0.624 2.308,0.933 0.702,0.281 1.419,0.556 2.135,0.834 0.787,0.306 1.577,0.614 2.382,0.921 0.738,0.275 1.492,0.553 2.239,0.833 0.808,0.299 1.614,0.598 2.439,0.895 0.777,0.281 1.571,0.562 2.365,0.843 0.822,0.292 1.644,0.584 2.482,0.873 0.798,0.276 1.609,0.548 2.421,0.825 0.866,0.292 1.73,0.588 2.61,0.877 0.815,0.273 1.648,0.538 2.475,0.808 0.896,0.292 1.79,0.582 2.698,0.871 0.852,0.27 1.719,0.541 2.584,0.809 0.92,0.288 1.837,0.574 2.773,0.861 0.891,0.27 1.799,0.541 2.704,0.811 0.928,0.276 1.848,0.554 2.791,0.83 0.943,0.278 1.91,0.554 2.87,0.83 0.944,0.271 1.88,0.545 2.838,0.816 0.954,0.269 1.926,0.537 2.894,0.804 0.989,0.275 1.973,0.549 2.976,0.825 0.983,0.265 1.988,0.535 2.984,0.8 1.016,0.27 2.026,0.545 3.059,0.819 1.04,0.272 2.107,0.545 3.165,0.819 1.01,0.261 2.014,0.523 3.041,0.784 1.06,0.271 2.147,0.54 3.224,0.809 1.069,0.269 2.126,0.536 3.21,0.802 1.093,0.269 2.209,0.537 3.315,0.806 1.077,0.261 2.139,0.519 3.229,0.779 1.22,0.293 2.474,0.585 3.716,0.877 1.015,0.239 2.02,0.477 3.048,0.714 1.221,0.286 2.468,0.567 3.707,0.85 1.093,0.249 2.168,0.498 3.274,0.747 1.286,0.291 2.604,0.579 3.91,0.869 1.068,0.236 2.12,0.473 3.199,0.71 1.369,0.301 2.768,0.601 4.157,0.9 1.065,0.231 2.119,0.46 3.197,0.692 1.363,0.291 2.76,0.582 4.145,0.873 1.125,0.238 2.238,0.474 3.375,0.713 1.713,0.357 3.464,0.715 5.205,1.07 0.833,0.173 1.649,0.342 2.488,0.514 2.597,0.53 5.243,1.062 7.916,1.594 14.586,2.901 34.259,10.725 45.217,18.06 11.216,7.507 11.672,9.538 15.159,16.299 l -13.531,-27.434 -0.851,-3.754 -4.451,-8.697 -12.536,-12.545 -30.837,-21.133 -98.335,-48.256 -83.717,-59.391 z"
           style="fill:#89ba27;fill-opacity:1;fill-rule:evenodd;stroke:none"
           id="path70466" /><path
           d="m 444.998,298.863 c -15.904,84.072 21.513,114.753 191.039,148.495 14.586,2.901 34.259,10.725 45.217,18.06 11.216,7.507 11.672,9.538 15.159,16.299 l -13.531,-27.434 -0.851,-3.754 -4.451,-8.697 -12.536,-12.545 -30.837,-21.133 -98.335,-48.256 -83.717,-59.391 z"
           style="fill:#99cc33;fill-opacity:1;fill-rule:evenodd;stroke:none"
           id="path70468" /><path
           d="m 444.998,298.863 c -6.782,35.853 -3.852,61.991 14.869,82.798 -8.128,-17.565 -15.273,-37.193 2.934,-73.605 l -10.646,-7.549 z"
           style="fill:#89ba27;fill-opacity:1;fill-rule:evenodd;stroke:none"
           id="path70470" /><path
           d="m 665.616,428.551 c 2.016,-0.146 3.943,-0.452 5.871,-0.762 3.555,-0.57 12.401,-2.18 16.909,-0.99 -6.765,-2.392 -11.974,-1.556 -17.185,-0.722 -2.464,0.399 -4.926,0.791 -7.527,0.825 -2.251,-1.882 -4.64,-3.746 -7.129,-5.59 1.963,-0.291 3.849,-0.722 5.732,-1.152 6.113,-1.394 10.462,-3.205 18.618,-1.813 -7.658,-2.467 -13.33,-1.172 -19.001,0.121 -2.423,0.555 -4.846,1.11 -7.406,1.348 -2.449,-1.761 -4.984,-3.492 -7.577,-5.194 1.969,-0.414 3.852,-0.953 5.735,-1.488 6.52,-1.862 12.762,-3.898 20.339,-2.638 -8.559,-2.535 -14.685,-0.785 -20.815,0.965 -2.414,0.69 -4.831,1.378 -7.369,1.79 -2.596,-1.668 -5.236,-3.304 -7.896,-4.898 1.991,-0.521 3.907,-1.164 5.822,-1.802 6.921,-2.318 14.509,-4.421 22.068,-3.455 -9.447,-2.604 -16.033,-0.398 -22.619,1.807 -2.425,0.812 -4.854,1.626 -7.409,2.181 -2.732,-1.611 -5.48,-3.175 -8.203,-4.688 2.078,-0.631 4.072,-1.385 6.07,-2.137 7.315,-2.763 13.681,-5.329 23.809,-4.275 -10.333,-2.67 -17.377,-0.01 -24.422,2.653 -2.495,0.938 -4.988,1.882 -7.618,2.571 -2.874,-1.575 -5.716,-3.089 -8.486,-4.531 2.237,-0.75 4.38,-1.641 6.522,-2.533 7.678,-3.187 15.121,-6.076 25.559,-5.089 -11.223,-2.742 -18.726,0.375 -26.224,3.489 -2.631,1.091 -5.262,2.184 -8.04,3.006 -3.044,-1.565 -5.984,-3.038 -8.772,-4.407 2.489,-0.894 4.861,-1.956 7.231,-3.02 7.578,-3.396 12.926,-6.377 27.31,-5.907 -12.11,-2.814 -20.065,0.755 -28.022,4.325 -2.851,1.279 -5.704,2.558 -8.734,3.522 -3.307,-1.603 -6.364,-3.045 -9.074,-4.302 2.862,-1.064 5.563,-2.356 8.262,-3.643 4.309,-2.06 15.039,-7.26 29.071,-6.729 -12.995,-2.88 -21.409,1.141 -29.818,5.161 -3.182,1.522 -6.362,3.043 -9.781,4.166 -4.546,-2.087 -7.864,-3.543 -9.386,-4.227 3.385,-1.257 6.535,-2.844 9.686,-4.432 4.392,-2.216 15.548,-8.647 30.83,-7.546 -13.883,-2.948 -22.749,1.524 -31.616,5.997 -3.601,1.815 -7.198,3.632 -11.124,4.921 -3.022,-1.475 -6.043,-2.949 -9.053,-4.423 3.799,-1.432 7.294,-3.277 10.788,-5.121 4.489,-2.374 17.717,-10.082 32.598,-8.366 -14.764,-3.02 -24.086,1.906 -33.408,6.833 -3.922,2.072 -7.84,4.14 -12.15,5.588 -3.073,-1.511 -6.128,-3.017 -9.147,-4.52 4.264,-1.604 8.142,-3.738 12.022,-5.872 4.576,-2.517 18.342,-10.036 34.362,-9.186 -15.643,-3.086 -25.422,2.292 -35.201,7.669 -4.284,2.357 -8.568,4.714 -13.334,6.318 -2.298,-1.148 -4.575,-2.297 -6.825,-3.44 -0.794,-0.402 -1.585,-0.809 -2.369,-1.219 4.793,-1.784 9.098,-4.237 13.402,-6.689 4.658,-2.653 18.608,-11.689 36.135,-10.005 -16.532,-3.159 -26.764,2.671 -36.993,8.495 -4.683,2.671 -9.367,5.341 -14.641,7.099 -3.073,-1.631 -6.055,-3.279 -8.946,-4.945 5.283,-1.955 9.964,-4.704 14.643,-7.456 4.754,-2.792 19.562,-12.604 37.9,-10.828 -17.409,-3.229 -28.098,3.053 -38.782,9.333 -5.022,2.952 -10.044,5.903 -15.731,7.811 -2.994,-1.752 -5.891,-3.518 -8.708,-5.293 5.703,-2.118 10.723,-5.149 15.739,-8.182 4.836,-2.921 20.747,-14.541 39.675,-11.647 -18.294,-3.296 -29.433,3.433 -40.571,10.165 -5.313,3.212 -10.629,6.42 -16.701,8.488 -2.912,-1.865 -5.736,-3.734 -8.471,-5.598 6.071,-2.281 11.382,-5.571 16.692,-8.858 4.933,-3.055 23.177,-14.789 41.447,-12.471 -19.169,-3.364 -30.767,3.817 -42.362,11.002 -5.573,3.45 -11.145,6.9 -17.539,9.121 -2.831,-1.951 -5.577,-3.898 -8.247,-5.833 6.365,-2.434 11.92,-5.952 17.472,-9.47 5.024,-3.183 21.349,-15.469 43.224,-13.293 -20.05,-3.436 -32.101,4.197 -44.153,11.828 -5.784,3.665 -11.569,7.329 -18.227,9.711 -2.763,-2.016 -5.45,-4.022 -8.068,-5.994 6.591,-2.593 12.338,-6.304 18.084,-10.021 5.108,-3.303 22.314,-15.942 45,-14.112 -20.935,-3.508 -33.439,4.574 -45.94,12.658 -5.957,3.851 -11.919,7.703 -18.777,10.242 -2.727,-2.058 -5.383,-4.091 -7.984,-6.074 6.782,-2.746 12.69,-6.634 18.597,-10.525 5.024,-3.31 26.042,-17.739 46.773,-14.936 -21.813,-3.577 -34.773,4.956 -47.73,13.487 -6.114,4.028 -12.228,8.055 -19.252,10.749 -0.661,-0.503 -1.318,-1.002 -1.973,-1.495 -2.028,-1.538 -4.016,-3.07 -5.978,-4.584 6.929,-2.899 12.978,-6.948 19.025,-11 5.296,-3.543 25.354,-18.36 48.556,-15.756 -22.699,-3.648 -36.113,5.334 -49.523,14.318 -6.241,4.181 -12.482,8.362 -19.645,11.211 -2.659,-2.058 -5.266,-4.09 -7.84,-6.068 6.989,-3.039 13.112,-7.201 19.23,-11.367 5.38,-3.661 26.411,-19.651 50.333,-16.578 -23.582,-3.717 -37.446,5.716 -51.313,15.147 -6.309,4.294 -12.621,8.587 -19.832,11.585 -2.665,-2.033 -5.301,-4.009 -7.928,-5.911 7.01,-3.169 13.185,-7.429 19.358,-11.689 5.475,-3.779 26.809,-19.474 52.11,-17.405 -24.456,-3.786 -38.776,6.095 -53.094,15.978 -6.375,4.401 -12.752,8.801 -20.013,11.942 -13.653,-9.695 -27.258,-17.161 -44.043,-19.483 L 410.876,287 c 13.91,1.926 25.859,6.905 37.558,13.839 4.961,9.528 5.825,19.696 6.72,30.224 1.473,17.313 3.026,35.583 22.628,54.036 -22.059,-21.436 -20.291,-47.069 -20.895,-54.183 -0.836,-9.812 -1.645,-19.321 -5.728,-28.426 2.603,1.613 5.2,3.32 7.811,5.107 4.269,9 5.369,19.748 6.167,29.462 1.374,16.688 2.824,34.299 21.618,52.202 -20.364,-21.384 -19.316,-45.381 -19.889,-52.339 -0.785,-9.565 -1.548,-18.822 -5.557,-27.708 2.617,1.835 5.252,3.747 7.928,5.722 l -0.265,0.136 c 4.539,8.9 5.287,18.333 6.063,28.103 1.275,16.061 2.62,33.006 20.601,50.362 -17.981,-18.96 -18.333,-43.703 -18.871,-50.501 -0.719,-9.057 -1.42,-17.834 -5.092,-26.289 2.486,1.856 5.014,3.766 7.588,5.717 4.245,8.528 4.931,17.533 5.643,26.856 1.174,15.431 2.414,31.71 19.59,48.526 -15.919,-17.176 -17.354,-42.028 -17.862,-48.659 -0.642,-8.437 -1.266,-16.619 -4.486,-24.537 2.53,1.915 5.112,3.867 7.76,5.85 3.668,7.954 4.276,16.296 4.904,24.92 1.075,14.809 2.211,30.428 18.573,46.691 -16.816,-18.488 -16.378,-40.34 -16.847,-46.815 -0.57,-7.812 -1.122,-15.4 -3.901,-22.766 2.576,1.909 5.216,3.841 7.931,5.789 3.149,7.395 3.682,15.115 4.234,23.085 0.975,14.181 2.008,29.137 17.56,44.858 -16.639,-18.524 -15.393,-38.658 -15.831,-44.979 -0.498,-7.233 -0.984,-14.266 -3.396,-21.137 2.638,1.866 5.347,3.746 8.142,5.631 2.722,6.883 3.187,14.034 3.664,21.406 0.88,13.552 1.806,27.843 16.553,43.024 -15.877,-17.438 -14.419,-36.982 -14.819,-43.137 -0.435,-6.716 -0.859,-13.254 -2.968,-19.665 2.724,1.809 5.525,3.621 8.413,5.433 2.361,6.409 2.759,13.021 3.169,19.832 0.779,12.932 1.602,26.56 15.533,41.19 -14.679,-17.244 -13.44,-35.295 -13.8,-41.296 -0.377,-6.239 -0.744,-12.313 -2.581,-18.287 2.819,1.738 5.717,3.468 8.709,5.195 2.026,5.942 2.367,12.052 2.71,18.337 0.682,12.303 1.398,25.266 14.519,39.355 -13.811,-16.089 -12.463,-33.612 -12.785,-39.453 -0.318,-5.774 -0.631,-11.411 -2.23,-16.975 2.872,1.629 5.828,3.249 8.875,4.859 1.784,5.555 2.066,11.241 2.358,17.088 0.577,11.673 1.19,23.971 13.501,37.522 -12.846,-15.312 -11.486,-31.936 -11.77,-37.609 -0.266,-5.4 -0.527,-10.659 -1.949,-15.883 0.83,0.432 1.668,0.858 2.511,1.289 2.158,1.097 4.319,2.186 6.483,3.271 1.611,5.246 1.842,10.582 2.08,16.066 0.478,11.053 0.986,22.684 12.479,35.69 -11.198,-14.456 -10.509,-30.247 -10.746,-35.761 -0.22,-5.071 -0.436,-10.019 -1.714,-14.948 3.047,1.521 6.093,3.027 9.139,4.524 1.424,4.91 1.605,9.883 1.79,14.985 0.377,10.428 0.776,21.392 11.457,33.862 -10.332,-13.967 -9.53,-28.572 -9.722,-33.925 -0.172,-4.705 -0.336,-9.306 -1.458,-13.909 3.085,1.514 6.172,3.02 9.252,4.526 1.22,4.55 1.349,9.129 1.48,13.824 0.279,9.803 0.567,20.1 10.436,32.03 -9.873,-12.86 -8.556,-26.884 -8.701,-32.078 -0.122,-4.321 -0.243,-8.543 -1.186,-12.787 3.115,1.519 6.227,3.033 9.323,4.541 1.006,4.175 1.087,8.342 1.169,12.613 0.175,9.177 0.357,18.807 9.406,30.203 -8.701,-12.387 -7.58,-25.207 -7.675,-30.237 -0.075,-3.914 -0.149,-7.742 -0.912,-11.608 3.136,1.524 6.253,3.049 9.343,4.565 0.807,3.792 0.839,7.558 0.871,11.407 0.072,8.553 0.144,17.51 8.381,28.374 -7.501,-11.516 -6.574,-19.523 -6.647,-28.389 -0.03,-3.503 -0.06,-6.939 -0.653,-10.428 3.139,1.55 6.25,3.094 9.315,4.636 0.62,3.415 0.606,6.783 0.592,10.219 -0.032,7.931 -0.068,16.218 7.348,26.554 -5.906,-8.923 -5.65,-17.614 -5.613,-26.544 0.014,-3.101 0.024,-6.151 -0.413,-9.257 3.129,1.582 6.209,3.165 9.229,4.75 0.458,3.05 0.401,6.041 0.343,9.083 -0.138,7.312 -0.284,14.925 6.31,24.732 -5.001,-9.151 -4.736,-16.217 -4.574,-24.7 0.053,-2.711 0.101,-5.387 -0.197,-8.129 3.098,1.639 6.128,3.278 9.079,4.921 0.314,2.72 0.214,5.362 0.118,8.046 -0.246,6.689 -0.505,13.625 5.265,22.912 -4.614,-10.989 -3.83,-14.855 -3.535,-22.849 0.089,-2.355 0.172,-4.681 -0.008,-7.08 3.037,1.713 5.979,3.425 8.817,5.144 0.199,2.445 0.06,4.799 -0.079,7.178 -0.362,6.074 -0.73,12.325 4.21,21.099 -3.867,-10.189 -2.924,-13.496 -2.483,-20.996 0.122,-2.044 0.242,-4.067 0.154,-6.177 2.938,1.813 5.752,3.631 8.42,5.455 0.114,2.257 -0.071,4.376 -0.257,6.512 -0.473,5.462 -0.958,11.026 3.145,19.293 -2.878,-8.074 -2.027,-12.129 -1.418,-19.144 0.153,-1.787 0.311,-3.567 0.3,-5.436 2.768,1.947 5.372,3.904 7.79,5.871 0.036,2.168 -0.207,4.15 -0.448,6.127 -0.6,4.853 -1.199,9.706 2.06,17.489 -2.229,-7.596 -1.139,-10.761 -0.338,-17.274 0.197,-1.599 0.394,-3.197 0.451,-4.909 8.5,7.214 14.438,14.612 16.736,22.344 -0.429,-5.762 -3.831,-11.77 -9.14,-17.761 2.15,0.057 4.194,-0.107 6.237,-0.27 3.402,-0.273 9.874,-1.471 15.218,-0.161 -5.864,-2.325 -10.613,-1.945 -15.359,-1.569 -2.293,0.184 -4.586,0.367 -6.979,0.228 l -0.044,0.737 c -2.139,-2.32 -4.563,-4.636 -7.199,-6.936"
           style="fill:#729c1f;fill-opacity:1;fill-rule:evenodd;stroke:none"
           id="path70472" /><path
           d="m 87.358,380.394 c 4.271,-8.802 5.918,-18.401 6.017,-28.513 0.474,-47.909 53.946,-46.211 109.923,-76.666 66.479,-36.168 102.829,-111.129 177.339,-2.896 -7.605,88.476 -50.893,108.117 -225.644,92.226 -14.809,-1.35 -35.893,0.58 -48.48,4.512 -12.883,4.025 -13.896,5.841 -19.155,11.337"
           style="fill:#89ba27;fill-opacity:1;fill-rule:evenodd;stroke:none"
           id="path70474" /><path
           d="m 241.193,249.828 c 45.203,-33.912 80.305,-63.414 139.444,22.491 -3.308,38.499 -13.383,63.959 -38.093,79.135 12.773,-14.552 25.197,-31.348 18.048,-71.443 -24.952,-47.375 -67.861,-55.43 -119.401,-30.183 z"
           style="fill:#7dad1d;fill-opacity:1;fill-rule:evenodd;stroke:none"
           id="path70476" /><path
           d="m 380.271,276.239 -0.003,0.007 c -0.116,1.172 -0.247,2.332 -0.379,3.48 -0.016,0.159 -0.032,0.32 -0.05,0.476 -0.114,0.982 -0.242,1.941 -0.363,2.902 -0.043,0.328 -0.082,0.666 -0.128,0.991 -0.121,0.917 -0.257,1.818 -0.392,2.719 -0.049,0.345 -0.096,0.698 -0.149,1.04 -0.132,0.854 -0.275,1.692 -0.416,2.531 -0.066,0.386 -0.125,0.776 -0.19,1.157 -0.141,0.788 -0.29,1.562 -0.433,2.336 -0.08,0.417 -0.154,0.839 -0.239,1.253 -0.143,0.738 -0.302,1.463 -0.456,2.189 -0.09,0.435 -0.18,0.872 -0.275,1.3 -0.156,0.709 -0.323,1.407 -0.491,2.105 -0.103,0.429 -0.199,0.864 -0.305,1.288 -0.168,0.674 -0.345,1.332 -0.52,1.994 -0.117,0.439 -0.228,0.88 -0.35,1.314 -0.177,0.642 -0.366,1.274 -0.554,1.909 -0.125,0.43 -0.249,0.868 -0.382,1.295 -0.188,0.621 -0.389,1.228 -0.591,1.837 -0.138,0.427 -0.275,0.862 -0.419,1.282 -0.201,0.592 -0.414,1.171 -0.625,1.754 -0.155,0.428 -0.302,0.853 -0.462,1.276 -0.213,0.563 -0.434,1.118 -0.658,1.673 -0.167,0.424 -0.334,0.848 -0.506,1.264 -0.225,0.544 -0.463,1.077 -0.698,1.613 -0.179,0.41 -0.357,0.824 -0.542,1.232 -0.242,0.524 -0.491,1.044 -0.74,1.56 -0.195,0.396 -0.385,0.8 -0.584,1.192 -0.255,0.51 -0.519,1.011 -0.784,1.51 -0.208,0.388 -0.412,0.779 -0.621,1.164 -0.271,0.481 -0.546,0.959 -0.822,1.431 -0.223,0.386 -0.446,0.774 -0.674,1.154 -0.282,0.467 -0.577,0.926 -0.869,1.383 -0.234,0.372 -0.47,0.743 -0.711,1.106 -0.297,0.45 -0.607,0.897 -0.915,1.336 -0.249,0.36 -0.498,0.722 -0.755,1.071 -0.314,0.438 -0.642,0.865 -0.966,1.295 -0.264,0.343 -0.524,0.689 -0.794,1.03 -0.332,0.416 -0.669,0.826 -1.008,1.234 -0.284,0.339 -0.565,0.678 -0.854,1.01 -0.345,0.401 -0.701,0.79 -1.055,1.18 -0.297,0.326 -0.592,0.652 -0.896,0.973 -0.363,0.381 -0.733,0.758 -1.106,1.132 -0.313,0.317 -0.63,0.634 -0.95,0.944 -0.376,0.362 -0.76,0.722 -1.145,1.075 -0.334,0.309 -0.668,0.617 -1.012,0.918 -0.392,0.349 -0.791,0.691 -1.194,1.03 -0.35,0.295 -0.701,0.587 -1.058,0.877 -0.413,0.334 -0.833,0.664 -1.255,0.989 -0.366,0.281 -0.731,0.562 -1.104,0.839 -0.429,0.317 -0.869,0.631 -1.308,0.943 -0.385,0.271 -0.77,0.541 -1.164,0.806 -0.447,0.302 -0.903,0.601 -1.36,0.896 -0.402,0.26 -0.804,0.517 -1.215,0.771 -0.466,0.29 -0.945,0.576 -1.423,0.86 -0.417,0.246 -0.838,0.489 -1.26,0.73 -0.491,0.275 -0.988,0.549 -1.489,0.819 -0.434,0.232 -0.872,0.463 -1.313,0.691 -0.508,0.263 -1.023,0.523 -1.541,0.774 -0.458,0.229 -0.918,0.448 -1.385,0.669 -0.528,0.246 -1.059,0.487 -1.596,0.728 -0.473,0.21 -0.95,0.42 -1.43,0.624 -0.55,0.238 -1.108,0.469 -1.67,0.697 -0.494,0.2 -0.991,0.395 -1.492,0.591 -0.569,0.221 -1.142,0.438 -1.722,0.65 -0.512,0.188 -1.031,0.373 -1.552,0.557 -0.591,0.208 -1.187,0.413 -1.792,0.613 -0.533,0.179 -1.074,0.354 -1.615,0.524 -0.611,0.192 -1.224,0.385 -1.845,0.572 -0.558,0.165 -1.123,0.329 -1.692,0.493 -0.627,0.178 -1.259,0.356 -1.897,0.529 -0.581,0.156 -1.169,0.31 -1.759,0.459 -0.65,0.169 -1.305,0.333 -1.97,0.492 -0.598,0.146 -1.205,0.286 -1.812,0.425 -0.678,0.153 -1.357,0.307 -2.047,0.455 -0.616,0.133 -1.241,0.261 -1.867,0.388 -0.703,0.146 -1.41,0.286 -2.126,0.423 -0.638,0.122 -1.284,0.24 -1.933,0.357 -0.723,0.129 -1.448,0.26 -2.185,0.381 -0.669,0.111 -1.349,0.223 -2.03,0.328 -0.736,0.117 -1.47,0.231 -2.218,0.341 -0.698,0.103 -1.41,0.2 -2.121,0.296 -0.762,0.106 -1.523,0.209 -2.298,0.308 -0.71,0.09 -1.433,0.175 -2.154,0.26 -0.791,0.095 -1.586,0.187 -2.39,0.275 -0.734,0.079 -1.482,0.154 -2.225,0.228 -0.82,0.082 -1.642,0.164 -2.478,0.239 -0.753,0.068 -1.517,0.132 -2.283,0.196 -0.843,0.072 -1.687,0.143 -2.544,0.206 -0.787,0.06 -1.588,0.113 -2.386,0.164 -0.859,0.06 -1.717,0.118 -2.591,0.171 -0.825,0.05 -1.667,0.096 -2.506,0.138 -0.872,0.047 -1.743,0.096 -2.631,0.136 -0.84,0.039 -1.697,0.071 -2.551,0.102 -0.915,0.037 -1.825,0.076 -2.754,0.107 -0.857,0.026 -1.732,0.048 -2.603,0.072 -0.942,0.023 -1.878,0.05 -2.834,0.071 -0.892,0.018 -1.801,0.029 -2.705,0.042 -0.965,0.016 -1.926,0.033 -2.903,0.04 -0.931,0.007 -1.882,0.007 -2.825,0.014 -0.967,0.004 -1.93,0.007 -2.91,0.007 -0.984,-0.003 -1.991,-0.014 -2.989,-0.018 -0.982,-0.006 -1.958,-0.01 -2.954,-0.021 -0.989,-0.014 -1.999,-0.032 -3.002,-0.049 -1.028,-0.015 -2.048,-0.031 -3.089,-0.053 -1.017,-0.019 -2.056,-0.052 -3.087,-0.079 -1.052,-0.026 -2.098,-0.047 -3.165,-0.079 -1.077,-0.032 -2.177,-0.074 -3.268,-0.111 -1.044,-0.038 -2.081,-0.07 -3.138,-0.11 -1.094,-0.039 -2.212,-0.089 -3.321,-0.137 -1.1,-0.044 -2.192,-0.087 -3.308,-0.141 -1.122,-0.05 -2.27,-0.11 -3.408,-0.164 -1.103,-0.056 -2.198,-0.106 -3.314,-0.167 -1.257,-0.066 -2.54,-0.141 -3.813,-0.213 -1.042,-0.06 -2.073,-0.113 -3.126,-0.178 -1.25,-0.074 -2.53,-0.158 -3.797,-0.235 -1.116,-0.071 -2.222,-0.139 -3.351,-0.21 -1.317,-0.086 -2.662,-0.186 -3.997,-0.274 -1.09,-0.076 -2.166,-0.15 -3.267,-0.227 -1.397,-0.098 -2.826,-0.208 -4.243,-0.314 -1.089,-0.081 -2.163,-0.158 -3.263,-0.243 -1.389,-0.106 -2.812,-0.223 -4.221,-0.336 -1.147,-0.09 -2.281,-0.178 -3.44,-0.273 -1.742,-0.142 -3.523,-0.295 -5.296,-0.445 -0.845,-0.072 -1.677,-0.141 -2.528,-0.216 -2.643,-0.225 -5.331,-0.466 -8.045,-0.709 -14.809,-1.35 -35.893,0.58 -48.48,4.512 -12.883,4.025 -13.896,5.841 -19.155,11.337 l 20.745,-22.479 1.882,-3.359 6.731,-7.079 15.576,-8.479 35.559,-11.534 107.976,-18.43 97.11,-33.25 z"
           style="fill:#89ba27;fill-opacity:1;fill-rule:evenodd;stroke:none"
           id="path70478" /><path
           d="m 380.271,276.239 c -8.564,85.134 -53.138,103.958 -225.278,88.306 -14.809,-1.35 -35.893,0.58 -48.48,4.512 -12.883,4.025 -13.896,5.841 -19.155,11.337 l 20.745,-22.479 1.882,-3.359 6.731,-7.079 15.576,-8.479 35.559,-11.534 107.976,-18.43 97.11,-33.25 z"
           style="fill:#99cc33;fill-opacity:1;fill-rule:evenodd;stroke:none"
           id="path70480" /><path
           d="m 380.271,276.239 c -3.654,36.306 -13.865,60.545 -37.713,75.199 12.768,-14.547 25.18,-31.348 18.034,-71.427 l 12.345,-4.227 z"
           style="fill:#89ba27;fill-opacity:1;fill-rule:evenodd;stroke:none"
           id="path70482" /><path
           d="m 131.952,338.131 c -1.893,-0.71 -3.653,-1.554 -5.413,-2.397 -3.25,-1.553 -11.278,-5.603 -15.938,-5.739 7.165,-0.378 11.925,1.901 16.685,4.177 2.249,1.079 4.502,2.156 6.986,2.925 2.693,-1.167 5.511,-2.284 8.422,-3.343 -1.801,-0.836 -3.487,-1.783 -5.173,-2.73 -5.468,-3.07 -9.125,-6.039 -17.339,-7.014 8.039,-0.194 13.112,2.656 18.185,5.501 2.166,1.217 4.336,2.434 6.723,3.388 2.845,-0.995 5.768,-1.938 8.735,-2.834 -1.767,-0.954 -3.423,-2.004 -5.078,-3.054 -5.725,-3.632 -11.134,-7.35 -18.758,-8.288 8.924,-0.007 14.308,3.41 19.689,6.818 2.122,1.349 4.242,2.694 6.562,3.806 2.961,-0.866 5.957,-1.684 8.958,-2.457 -1.763,-1.068 -3.417,-2.223 -5.072,-3.382 -5.98,-4.181 -12.663,-8.346 -20.186,-9.561 9.797,0.178 15.49,4.159 21.181,8.137 2.097,1.47 4.194,2.936 6.486,4.192 3.079,-0.768 6.154,-1.493 9.196,-2.171 -1.814,-1.196 -3.515,-2.485 -5.216,-3.773 -6.233,-4.721 -11.61,-8.983 -21.624,-10.839 10.668,0.363 16.671,4.91 22.673,9.457 2.125,1.607 4.249,3.219 6.575,4.625 3.203,-0.695 6.356,-1.343 9.423,-1.941 -1.933,-1.359 -3.736,-2.816 -5.538,-4.275 -6.462,-5.234 -12.78,-10.112 -23.07,-12.123 11.541,0.552 17.852,5.664 24.164,10.777 2.212,1.789 4.424,3.582 6.857,5.159 3.359,-0.641 6.599,-1.22 9.662,-1.738 -2.136,-1.566 -4.108,-3.257 -6.081,-4.949 -6.304,-5.407 -10.59,-9.776 -24.518,-13.4 12.409,0.732 19.028,6.408 25.65,12.084 2.372,2.035 4.745,4.068 7.378,5.852 3.624,-0.601 6.965,-1.118 9.921,-1.555 -2.443,-1.83 -4.668,-3.835 -6.892,-5.839 -3.548,-3.193 -12.367,-11.216 -25.975,-14.684 13.279,0.918 20.208,7.16 27.136,13.395 2.619,2.36 5.239,4.721 8.2,6.767 4.95,-0.714 8.547,-1.169 10.201,-1.395 -2.893,-2.164 -5.463,-4.578 -8.034,-6.995 -3.588,-3.372 -12.462,-12.694 -27.432,-15.969 14.149,1.104 21.385,7.904 28.623,14.708 2.937,2.76 5.876,5.52 9.276,7.868 3.314,-0.555 6.63,-1.118 9.933,-1.677 -3.238,-2.449 -6.066,-5.208 -8.894,-7.968 -3.635,-3.547 -14.138,-14.69 -28.894,-17.254 15.012,1.285 22.559,8.649 30.106,16.015 3.172,3.095 6.346,6.192 10.068,8.801 3.375,-0.577 6.73,-1.161 10.051,-1.745 -3.632,-2.747 -6.749,-5.894 -9.865,-9.036 -3.676,-3.712 -14.748,-14.821 -30.354,-18.543 15.876,1.468 23.732,9.397 31.585,17.323 3.444,3.474 6.885,6.95 11.001,9.837 2.531,-0.45 5.04,-0.906 7.518,-1.364 0.879,-0.163 1.753,-0.33 2.621,-0.499 -4.093,-3.068 -7.528,-6.643 -10.962,-10.211 -3.716,-3.866 -14.534,-16.484 -31.818,-19.83 16.748,1.651 24.908,10.142 33.07,18.627 3.735,3.886 7.471,7.772 12.031,10.952 3.412,-0.691 6.736,-1.429 9.98,-2.205 -4.513,-3.375 -8.223,-7.337 -11.931,-11.299 -3.767,-4.027 -15.191,-17.632 -33.282,-21.124 17.613,1.839 26.082,10.887 34.551,19.937 3.98,4.253 7.962,8.505 12.875,11.947 3.368,-0.832 6.647,-1.704 9.848,-2.609 -4.868,-3.645 -8.823,-7.975 -12.776,-12.303 -3.81,-4.173 -15.779,-19.824 -34.751,-22.409 18.478,2.021 27.255,11.628 36.033,21.237 4.186,4.587 8.374,9.172 13.611,12.871 3.322,-0.961 6.557,-1.951 9.712,-2.965 -5.179,-3.907 -9.341,-8.57 -13.502,-13.224 -3.863,-4.329 -18.038,-20.75 -36.219,-23.699 19.339,2.2 28.427,12.373 37.513,22.548 4.368,4.886 8.734,9.777 14.236,13.715 3.268,-1.068 6.454,-2.161 9.563,-3.258 -5.415,-4.137 -9.744,-9.085 -14.074,-14.031 -3.916,-4.476 -16.094,-20.884 -37.69,-24.993 20.204,2.385 29.601,13.119 38.994,23.851 4.511,5.156 9.022,10.307 14.732,14.479 3.222,-1.157 6.364,-2.314 9.436,-3.464 -5.59,-4.354 -10.049,-9.545 -14.507,-14.736 -3.962,-4.612 -16.884,-21.608 -39.158,-26.283 21.07,2.568 30.772,13.864 40.472,25.155 4.625,5.38 9.249,10.765 15.109,15.142 3.198,-1.204 6.318,-2.396 9.377,-3.562 -5.728,-4.556 -10.29,-9.96 -14.854,-15.363 -3.883,-4.598 -19.953,-24.388 -40.629,-27.575 21.934,2.752 31.944,14.605 41.953,26.455 4.725,5.596 9.451,11.19 15.422,15.764 0.776,-0.295 1.548,-0.587 2.316,-0.878 2.38,-0.901 4.723,-1.803 7.031,-2.702 -5.826,-4.743 -10.479,-10.337 -15.131,-15.935 -4.075,-4.902 -19.114,-24.794 -42.102,-28.866 22.8,2.93 33.119,15.348 43.438,27.757 4.802,5.778 9.604,11.557 15.665,16.317 3.132,-1.221 6.208,-2.431 9.236,-3.596 -5.841,-4.893 -10.534,-10.623 -15.224,-16.35 -4.123,-5.031 -19.76,-26.329 -43.571,-30.157 23.668,3.116 34.292,16.09 44.916,29.06 4.839,5.907 9.674,11.814 15.741,16.731 3.134,-1.196 6.22,-2.347 9.28,-3.425 -5.829,-5.023 -10.543,-10.856 -15.257,-16.695 -4.18,-5.173 -20.195,-26.27 -45.047,-31.451 24.527,3.295 35.461,16.832 46.395,30.365 4.868,6.023 9.735,12.047 15.813,17.122 15.837,-5.433 31.003,-8.739 47.756,-6.209 l -0.306,6.69 c -13.883,-2.093 -26.753,-0.705 -39.941,2.631 -7.453,7.738 -11.162,17.243 -15.003,27.088 -6.314,16.185 -12.981,33.268 -37.006,45.41 27.227,-14.306 32.792,-39.392 35.386,-46.041 3.581,-9.177 7.048,-18.065 13.544,-25.642 -2.953,0.808 -5.926,1.71 -8.938,2.685 -6.644,7.421 -10.741,17.414 -14.261,26.51 -6.044,15.616 -12.422,32.092 -35.517,43.939 25.586,-14.743 31.381,-38.053 33.901,-44.562 3.462,-8.949 6.815,-17.612 13.178,-24.996 -3.03,1.016 -6.101,2.103 -9.224,3.24 l 0.213,0.205 c -6.871,7.249 -10.263,16.086 -13.772,25.234 -5.773,15.043 -11.863,30.915 -34.025,42.464 22.616,-13.088 29.964,-36.717 32.406,-43.085 3.254,-8.484 6.409,-16.702 12.327,-23.773 -2.911,1.076 -5.874,2.193 -8.897,3.336 -6.486,6.973 -9.695,15.418 -13.016,24.154 -5.5,14.468 -11.3,29.734 -32.534,40.991 20.132,-11.962 28.548,-35.389 30.911,-41.606 3.006,-7.907 5.922,-15.577 11.252,-22.263 -2.968,1.122 -5.997,2.264 -9.099,3.41 -5.768,6.595 -8.714,14.424 -11.758,22.517 -5.228,13.897 -10.741,28.555 -31.04,39.517 21.363,-12.971 27.133,-34.049 29.42,-40.126 2.757,-7.331 5.435,-14.451 10.188,-20.729 -3.01,1.103 -6.089,2.205 -9.247,3.305 -5.113,6.197 -7.813,13.451 -10.597,20.941 -4.954,13.323 -10.18,27.376 -29.549,38.046 21.206,-13.051 25.714,-32.713 27.922,-38.653 2.528,-6.798 4.984,-13.405 9.245,-19.307 -3.059,1.044 -6.191,2.079 -9.405,3.095 -4.559,5.829 -7.03,12.554 -9.576,19.49 -4.682,12.747 -9.618,26.191 -28.059,36.573 20.166,-12.228 24.301,-31.382 26.427,-37.172 2.321,-6.319 4.581,-12.468 8.415,-18.019 -3.122,0.965 -6.324,1.908 -9.606,2.826 -4.078,5.478 -6.333,11.708 -8.657,18.124 -4.408,12.176 -9.058,25.015 -26.561,35.1 18.962,-12.377 22.886,-30.04 24.932,-35.693 2.128,-5.876 4.199,-11.597 7.652,-16.804 -3.193,0.863 -6.463,1.704 -9.821,2.513 -3.63,5.124 -5.683,10.886 -7.797,16.815 -4.135,11.608 -8.494,23.836 -25.069,33.637 17.804,-11.524 21.473,-28.71 23.437,-34.219 1.942,-5.451 3.836,-10.766 6.945,-15.648 -3.216,0.748 -6.509,1.461 -9.884,2.143 -3.287,4.825 -5.169,10.2 -7.102,15.72 -3.861,11.036 -7.931,22.654 -23.575,32.165 16.656,-11.048 20.06,-27.376 21.937,-32.738 1.784,-5.1 3.529,-10.076 6.369,-14.677 -0.919,0.177 -1.843,0.352 -2.773,0.524 -2.382,0.441 -4.761,0.872 -7.143,1.3 -3.032,4.574 -4.766,9.627 -6.547,14.818 -3.589,10.463 -7.368,21.477 -22.076,30.696 14.832,-10.697 18.645,-26.037 20.435,-31.255 1.647,-4.802 3.255,-9.488 5.877,-13.849 -3.351,0.594 -6.7,1.175 -10.047,1.747 -2.757,4.309 -4.338,9.026 -5.96,13.868 -3.315,9.892 -6.802,20.294 -20.579,29.229 13.866,-10.47 17.229,-24.7 18.933,-29.78 1.498,-4.468 2.96,-8.831 5.337,-12.929 -3.388,0.578 -6.776,1.15 -10.156,1.719 -2.456,4.018 -3.878,8.375 -5.334,12.836 -3.042,9.326 -6.238,19.121 -19.081,27.767 13.112,-9.534 15.821,-23.359 17.433,-28.301 1.34,-4.108 2.65,-8.125 4.758,-11.926 -3.42,0.575 -6.831,1.145 -10.227,1.711 -2.149,3.718 -3.407,7.695 -4.694,11.768 -2.769,8.755 -5.67,17.94 -17.577,26.303 11.855,-9.419 14.41,-22.028 15.926,-26.824 1.178,-3.731 2.335,-7.384 4.163,-10.879 -3.44,0.577 -6.862,1.156 -10.255,1.739 -1.846,3.404 -2.943,7.005 -4.063,10.686 -2.49,8.186 -5.101,16.755 -16.077,24.842 10.456,-8.924 11.835,-16.863 14.416,-25.345 1.021,-3.353 2.022,-6.636 3.581,-9.815 -3.451,0.598 -6.87,1.196 -10.248,1.812 -1.562,3.096 -2.502,6.328 -3.462,9.628 -2.213,7.616 -4.529,15.576 -14.569,23.387 8.193,-6.885 10.409,-15.294 12.902,-23.868 0.867,-2.98 1.719,-5.904 3.02,-8.763 -3.451,0.634 -6.854,1.278 -10.199,1.941 -1.303,2.796 -2.095,5.681 -2.9,8.616 -1.937,7.05 -3.955,14.395 -13.057,21.933 7.386,-7.36 9.135,-14.214 11.381,-22.392 0.72,-2.619 1.429,-5.195 2.494,-7.741 -3.436,0.694 -6.809,1.407 -10.101,2.147 -1.072,2.522 -1.728,5.08 -2.392,7.681 -1.657,6.489 -3.376,13.212 -11.54,20.485 7.537,-9.235 7.88,-13.165 9.861,-20.912 0.583,-2.286 1.16,-4.538 2.012,-6.787 -3.395,0.779 -6.704,1.591 -9.91,2.435 -0.884,2.29 -1.418,4.586 -1.956,6.904 -1.376,5.928 -2.793,12.031 -10.017,19.045 6.595,-8.678 6.628,-12.115 8.326,-19.433 0.464,-1.997 0.923,-3.971 1.606,-5.97 -3.33,0.907 -6.545,1.855 -9.625,2.85 -0.745,2.129 -1.169,4.216 -1.596,6.317 -1.091,5.373 -2.202,10.845 -8.479,17.611 5.046,-6.927 5.381,-11.059 6.782,-17.957 0.357,-1.758 0.712,-3.509 1.252,-5.298 -3.207,1.082 -6.258,2.219 -9.135,3.423 -0.649,2.068 -0.977,4.036 -1.303,6.003 -0.801,4.825 -1.601,9.648 -6.932,16.189 4.29,-6.652 4.143,-9.995 5.218,-16.473 0.263,-1.588 0.528,-3.174 0.957,-4.833 -10.191,4.511 -17.983,9.923 -22.38,16.687 2.045,-5.403 7.009,-10.203 13.796,-14.444 -2.074,-0.555 -3.989,-1.289 -5.901,-2.026 -3.186,-1.225 -9.056,-4.205 -14.553,-4.465 6.284,-0.568 10.731,1.14 15.176,2.848 2.147,0.823 4.294,1.649 6.627,2.194 l -0.166,0.719 c 2.71,-1.62 5.689,-3.155 8.87,-4.61"
           style="fill:#729c1f;fill-opacity:1;fill-rule:evenodd;stroke:none"
           id="path70484" /><path
           d="m 400.379,758.534 c 4.982,-4.516 10.999,-7.453 17.65,-9.469 31.518,-9.551 20.088,-44.504 29.387,-87.309 11.042,-50.837 53.489,-89.275 -32.289,-117.563 -56.907,22.08 -61.52,54.427 -17.333,166.66 3.747,9.511 6.535,23.793 6.371,32.855 -0.169,9.277 -1.177,10.296 -3.786,14.826"
           style="fill:#89ba27;fill-opacity:1;fill-rule:evenodd;stroke:none"
           id="path70486" /><path
           d="m 456.857,631.857 c 13.659,-36.364 26.352,-65.211 -41.73,-87.664 -24.766,9.608 -39.618,21.164 -44.865,40.393 7.135,-11.233 15.821,-22.67 43.653,-25.683 36.069,7.325 49.661,34.082 42.942,72.955 z"
           style="fill:#7dad1d;fill-opacity:1;fill-rule:evenodd;stroke:none"
           id="path70488" /><path
           d="m 412.61,545.19 -0.004,0.003 c -0.752,0.304 -1.489,0.611 -2.222,0.92 -0.102,0.042 -0.205,0.085 -0.306,0.127 -0.626,0.265 -1.235,0.532 -1.845,0.8 -0.207,0.091 -0.422,0.182 -0.629,0.275 -0.581,0.258 -1.15,0.519 -1.72,0.781 -0.218,0.102 -0.441,0.2 -0.655,0.301 -0.538,0.252 -1.064,0.506 -1.588,0.763 -0.245,0.115 -0.489,0.231 -0.727,0.348 -0.494,0.244 -0.976,0.489 -1.459,0.735 -0.26,0.134 -0.524,0.265 -0.779,0.399 -0.461,0.238 -0.909,0.481 -1.358,0.723 -0.27,0.144 -0.541,0.287 -0.805,0.433 -0.437,0.24 -0.865,0.485 -1.295,0.731 -0.262,0.149 -0.53,0.298 -0.79,0.449 -0.413,0.239 -0.811,0.484 -1.217,0.727 -0.265,0.163 -0.538,0.321 -0.798,0.483 -0.392,0.242 -0.769,0.488 -1.153,0.734 -0.26,0.166 -0.525,0.333 -0.78,0.502 -0.374,0.245 -0.734,0.495 -1.1,0.744 -0.254,0.174 -0.514,0.349 -0.763,0.525 -0.35,0.248 -0.695,0.498 -1.036,0.749 -0.253,0.184 -0.507,0.367 -0.754,0.552 -0.332,0.249 -0.656,0.503 -0.979,0.755 -0.244,0.193 -0.493,0.385 -0.734,0.579 -0.315,0.254 -0.623,0.512 -0.93,0.771 -0.237,0.199 -0.475,0.395 -0.705,0.597 -0.303,0.26 -0.595,0.524 -0.889,0.79 -0.225,0.204 -0.453,0.408 -0.676,0.613 -0.287,0.267 -0.563,0.539 -0.843,0.81 -0.218,0.211 -0.436,0.419 -0.647,0.635 -0.271,0.269 -0.528,0.544 -0.787,0.816 -0.213,0.223 -0.426,0.444 -0.629,0.668 -0.254,0.276 -0.503,0.557 -0.748,0.838 -0.199,0.228 -0.398,0.454 -0.594,0.682 -0.239,0.286 -0.471,0.575 -0.706,0.864 -0.188,0.234 -0.375,0.466 -0.562,0.703 -0.222,0.292 -0.445,0.591 -0.662,0.887 -0.179,0.241 -0.356,0.481 -0.53,0.724 -0.21,0.299 -0.414,0.602 -0.618,0.904 -0.17,0.25 -0.337,0.502 -0.501,0.756 -0.196,0.306 -0.388,0.614 -0.578,0.924 -0.156,0.259 -0.313,0.518 -0.466,0.78 -0.184,0.311 -0.362,0.63 -0.537,0.947 -0.149,0.269 -0.296,0.538 -0.439,0.81 -0.166,0.318 -0.327,0.639 -0.487,0.963 -0.139,0.279 -0.277,0.559 -0.41,0.842 -0.153,0.327 -0.302,0.657 -0.448,0.988 -0.13,0.288 -0.255,0.575 -0.377,0.867 -0.139,0.336 -0.278,0.678 -0.41,1.019 -0.117,0.296 -0.228,0.592 -0.34,0.89 -0.126,0.346 -0.25,0.695 -0.371,1.044 -0.103,0.307 -0.207,0.614 -0.307,0.924 -0.114,0.354 -0.224,0.711 -0.329,1.07 -0.095,0.315 -0.186,0.631 -0.276,0.949 -0.1,0.367 -0.196,0.737 -0.292,1.106 -0.079,0.324 -0.159,0.646 -0.238,0.973 -0.087,0.377 -0.171,0.757 -0.254,1.14 -0.07,0.331 -0.138,0.665 -0.202,1 -0.075,0.387 -0.146,0.776 -0.213,1.167 -0.062,0.344 -0.118,0.691 -0.175,1.042 -0.061,0.395 -0.115,0.793 -0.171,1.193 -0.048,0.351 -0.093,0.708 -0.136,1.063 -0.05,0.41 -0.095,0.822 -0.138,1.237 -0.036,0.363 -0.072,0.73 -0.1,1.097 -0.039,0.418 -0.069,0.838 -0.101,1.263 -0.024,0.375 -0.048,0.752 -0.066,1.131 -0.025,0.431 -0.046,0.864 -0.061,1.3 -0.014,0.387 -0.025,0.776 -0.032,1.168 -0.011,0.439 -0.019,0.881 -0.022,1.325 -0.006,0.403 -0.003,0.807 0,1.213 0.003,0.447 0.008,0.899 0.015,1.354 0.011,0.412 0.022,0.83 0.039,1.247 0.015,0.463 0.032,0.927 0.056,1.397 0.018,0.421 0.044,0.849 0.068,1.278 0.029,0.476 0.058,0.954 0.093,1.438 0.032,0.432 0.068,0.868 0.103,1.306 0.043,0.492 0.085,0.985 0.133,1.483 0.045,0.446 0.09,0.895 0.141,1.344 0.053,0.503 0.105,1.005 0.167,1.515 0.055,0.464 0.114,0.934 0.175,1.404 0.065,0.507 0.129,1.015 0.204,1.528 0.066,0.483 0.138,0.97 0.212,1.458 0.076,0.523 0.157,1.045 0.239,1.575 0.079,0.487 0.164,0.98 0.243,1.472 0.093,0.54 0.184,1.081 0.281,1.629 0.09,0.5 0.185,1.008 0.278,1.513 0.104,0.556 0.21,1.115 0.321,1.679 0.099,0.511 0.208,1.028 0.311,1.545 0.114,0.572 0.23,1.14 0.354,1.72 0.114,0.529 0.231,1.068 0.352,1.605 0.125,0.578 0.253,1.156 0.389,1.742 0.124,0.554 0.259,1.118 0.392,1.68 0.138,0.586 0.273,1.168 0.416,1.761 0.138,0.564 0.281,1.135 0.424,1.705 0.152,0.61 0.305,1.218 0.465,1.836 0.146,0.573 0.299,1.152 0.45,1.732 0.166,0.625 0.33,1.25 0.502,1.885 0.162,0.591 0.326,1.193 0.493,1.792 0.177,0.638 0.35,1.276 0.532,1.922 0.175,0.617 0.356,1.244 0.537,1.867 0.185,0.638 0.364,1.274 0.556,1.921 0.191,0.65 0.392,1.312 0.588,1.969 0.194,0.647 0.387,1.289 0.584,1.943 0.202,0.651 0.408,1.315 0.61,1.974 0.212,0.674 0.418,1.344 0.631,2.025 0.211,0.669 0.432,1.35 0.646,2.024 0.223,0.689 0.441,1.375 0.666,2.072 0.231,0.704 0.466,1.422 0.703,2.135 0.225,0.682 0.446,1.36 0.678,2.051 0.237,0.712 0.487,1.44 0.73,2.163 0.241,0.717 0.483,1.429 0.729,2.156 0.252,0.73 0.512,1.476 0.769,2.216 0.249,0.717 0.492,1.429 0.748,2.156 0.285,0.815 0.583,1.647 0.875,2.472 0.24,0.678 0.477,1.347 0.72,2.03 0.292,0.812 0.591,1.638 0.889,2.459 0.262,0.722 0.517,1.439 0.784,2.17 0.31,0.852 0.634,1.723 0.952,2.585 0.26,0.703 0.515,1.4 0.779,2.112 0.335,0.903 0.683,1.824 1.025,2.739 0.264,0.701 0.523,1.395 0.79,2.105 0.339,0.898 0.689,1.812 1.033,2.721 0.282,0.738 0.56,1.471 0.847,2.217 0.428,1.122 0.872,2.267 1.315,3.408 0.209,0.543 0.416,1.079 0.628,1.626 0.66,1.701 1.336,3.427 2.023,5.171 3.747,9.511 6.535,23.793 6.371,32.855 -0.169,9.277 -1.177,10.296 -3.786,14.826 l 10.828,-18.023 1.856,-1.888 3.374,-5.808 2.587,-11.911 0.753,-25.685 -8.666,-74.796 3.211,-70.482 z"
           style="fill:#89ba27;fill-opacity:1;fill-rule:evenodd;stroke:none"
           id="path70490" /><path
           d="m 412.61,545.19 c -54.515,22.068 -58.343,55.108 -14.816,165.663 3.747,9.511 6.535,23.793 6.371,32.855 -0.169,9.277 -1.177,10.296 -3.786,14.826 l 10.828,-18.023 1.856,-1.888 3.374,-5.808 2.587,-11.911 0.753,-25.685 -8.666,-74.796 3.211,-70.482 z"
           style="fill:#99cc33;fill-opacity:1;fill-rule:evenodd;stroke:none"
           id="path70492" /><path
           d="m 412.61,545.19 c -23.25,9.411 -37.271,20.823 -42.34,39.386 7.134,-11.232 15.823,-22.66 43.645,-25.673 l 0.407,-8.962 z"
           style="fill:#89ba27;fill-opacity:1;fill-rule:evenodd;stroke:none"
           id="path70494" /><path
           d="m 419.666,720.961 c 0.833,1.112 1.728,2.11 2.621,3.11 1.652,1.844 5.874,6.359 6.86,9.408 -1.128,-4.799 -3.552,-7.501 -5.97,-10.202 -1.147,-1.278 -2.292,-2.555 -3.279,-4.046 0.249,-2.002 0.444,-4.077 0.581,-6.202 0.9,1.028 1.848,1.958 2.797,2.888 3.081,3.015 5.744,4.855 7.973,10.087 -1.424,-5.342 -4.279,-8.14 -7.137,-10.937 -1.219,-1.196 -2.441,-2.391 -3.53,-3.783 0.106,-2.069 0.166,-4.18 0.188,-6.309 0.965,0.982 1.979,1.871 2.99,2.761 3.5,3.076 6.997,5.928 9.088,10.778 -1.717,-5.889 -5.01,-8.783 -8.297,-11.676 -1.299,-1.14 -2.595,-2.278 -3.778,-3.595 0,-2.12 -0.036,-4.256 -0.106,-6.385 1.046,0.957 2.127,1.826 3.209,2.694 3.914,3.139 7.949,6.747 10.203,11.475 -2.008,-6.429 -5.732,-9.417 -9.456,-12.406 -1.372,-1.1 -2.743,-2.2 -4.014,-3.472 -0.085,-2.179 -0.203,-4.347 -0.341,-6.484 1.136,0.966 2.317,1.839 3.494,2.712 4.317,3.204 8.167,5.929 11.324,12.177 -2.302,-6.968 -6.455,-10.051 -10.616,-13.135 -1.468,-1.091 -2.941,-2.182 -4.317,-3.445 -0.159,-2.249 -0.34,-4.453 -0.536,-6.592 1.268,1.012 2.577,1.922 3.888,2.829 4.699,3.253 9.137,6.483 12.446,12.884 -2.588,-7.508 -7.18,-10.687 -11.767,-13.866 -1.61,-1.114 -3.219,-2.227 -4.728,-3.528 -0.225,-2.341 -0.47,-4.588 -0.713,-6.71 1.443,1.107 2.938,2.083 4.434,3.058 4.782,3.117 8.495,5.101 13.569,13.593 -2.877,-8.046 -7.896,-11.321 -12.921,-14.593 -1.799,-1.173 -3.596,-2.346 -5.284,-3.74 -0.302,-2.507 -0.604,-4.81 -0.886,-6.845 1.681,1.258 3.432,2.339 5.181,3.421 2.79,1.725 9.787,5.995 14.697,14.306 -3.169,-8.584 -8.62,-11.954 -14.071,-15.321 -2.062,-1.273 -4.123,-2.547 -6.045,-4.104 -0.482,-3.405 -0.876,-5.866 -1.047,-7 1.985,1.49 4.075,2.72 6.165,3.952 2.916,1.715 10.779,5.773 15.826,15.018 -3.456,-9.122 -9.341,-12.585 -15.222,-16.048 -2.389,-1.406 -4.779,-2.812 -6.984,-4.603 -0.27,-2.294 -0.541,-4.589 -0.806,-6.878 2.238,1.665 4.606,3 6.973,4.334 3.038,1.714 12.415,6.494 16.955,15.734 -3.742,-9.656 -10.055,-13.216 -16.371,-16.772 -2.656,-1.497 -5.311,-2.994 -7.748,-4.947 -0.27,-2.339 -0.536,-4.664 -0.79,-6.969 2.514,1.868 5.192,3.318 7.864,4.767 3.161,1.71 12.626,6.872 18.088,16.451 -4.03,-10.192 -10.776,-13.846 -17.52,-17.499 -2.954,-1.6 -5.913,-3.202 -8.612,-5.36 -0.191,-1.758 -0.372,-3.5 -0.549,-5.224 -0.061,-0.611 -0.118,-1.219 -0.178,-1.825 2.816,2.109 5.834,3.686 8.853,5.261 3.267,1.707 13.68,6.412 19.22,17.17 -4.321,-10.731 -11.496,-14.478 -18.668,-18.226 -3.285,-1.715 -6.568,-3.432 -9.548,-5.826 -0.199,-2.385 -0.352,-4.72 -0.466,-7.011 3.097,2.328 6.426,4.012 9.756,5.694 3.381,1.709 14.562,6.624 20.354,17.885 -4.609,-11.265 -12.213,-15.11 -19.817,-18.95 -3.575,-1.807 -7.149,-3.614 -10.365,-6.192 -0.101,-2.382 -0.156,-4.715 -0.177,-7.001 3.346,2.51 6.961,4.283 10.578,6.058 3.489,1.708 16.124,6.587 21.487,18.606 -4.894,-11.802 -12.928,-15.74 -20.961,-19.678 -3.831,-1.878 -7.664,-3.756 -11.115,-6.498 -0.006,-2.377 0.024,-4.703 0.085,-6.98 3.574,2.663 7.449,4.511 11.329,6.357 3.598,1.715 17.169,7.901 22.62,19.327 -5.181,-12.336 -13.645,-16.368 -22.11,-20.402 -4.069,-1.939 -8.139,-3.877 -11.796,-6.747 0.075,-2.364 0.178,-4.675 0.303,-6.937 3.78,2.773 7.875,4.676 11.972,6.579 3.709,1.722 16.885,6.59 23.757,20.047 -5.467,-12.871 -14.36,-16.999 -23.253,-21.127 -4.272,-1.982 -8.541,-3.965 -12.394,-6.929 0.139,-2.349 0.298,-4.645 0.467,-6.893 3.949,2.847 8.234,4.788 12.518,6.729 3.808,1.725 17.513,6.973 24.891,20.768 -5.755,-13.407 -15.079,-17.63 -24.4,-21.852 -4.444,-2.013 -8.886,-4.027 -12.906,-7.048 0.179,-2.341 0.365,-4.632 0.545,-6.873 4.108,2.9 8.553,4.869 12.999,6.837 3.784,1.674 19.938,8.46 26.029,21.487 -6.045,-13.94 -15.797,-18.259 -25.549,-22.578 -4.6,-2.037 -9.2,-4.075 -13.37,-7.135 0.044,-0.569 0.086,-1.134 0.132,-1.696 0.136,-1.745 0.278,-3.463 0.427,-5.16 4.253,2.929 8.841,4.921 13.431,6.91 4.02,1.743 20.045,7.829 27.165,22.211 -6.33,-14.479 -16.51,-18.892 -26.692,-23.307 -4.735,-2.053 -9.478,-4.107 -13.785,-7.188 0.202,-2.302 0.405,-4.565 0.591,-6.788 4.353,2.91 9.039,4.902 13.724,6.893 4.116,1.749 21.18,7.959 28.299,22.931 -6.62,-15.014 -17.226,-19.524 -27.837,-24.031 -4.826,-2.053 -9.658,-4.105 -14.074,-7.161 0.186,-2.295 0.35,-4.555 0.472,-6.78 4.438,2.874 9.195,4.861 13.957,6.846 4.221,1.761 21.226,8.257 29.439,23.655 -6.907,-15.548 -17.943,-20.151 -28.98,-24.755 -4.914,-2.049 -9.828,-4.1 -14.347,-7.13 0.53,-11.497 -0.213,-22.142 -5.112,-32.707 l -4.359,1.492 c 4.061,8.757 5.626,17.516 5.965,26.86 -3.664,6.411 -9.222,10.689 -14.975,15.122 -9.46,7.289 -19.445,14.98 -22.823,33.174 4.187,-20.723 19.662,-29.233 23.55,-32.227 5.365,-4.13 10.56,-8.132 14.306,-13.881 0.035,2.105 0.016,4.242 -0.047,6.415 -3.617,5.814 -9.418,10.446 -14.741,14.522 -9.138,7 -18.778,14.384 -22.141,31.906 4.795,-19.722 19.057,-28.041 22.867,-30.959 5.234,-4.011 10.304,-7.894 13.948,-13.515 -0.086,2.195 -0.211,4.43 -0.357,6.71 l -0.178,-0.102 c -3.458,5.933 -8.634,9.873 -13.992,13.954 -8.813,6.709 -18.109,13.789 -21.46,30.637 4.277,-17.445 18.451,-26.85 22.182,-29.691 4.968,-3.781 9.784,-7.447 13.305,-12.715 -0.149,2.129 -0.313,4.298 -0.483,6.511 -3.352,5.625 -8.304,9.371 -13.427,13.248 -8.485,6.418 -17.439,13.19 -20.771,29.369 4.009,-15.588 17.844,-25.659 21.49,-28.416 4.637,-3.51 9.134,-6.913 12.518,-11.719 -0.167,2.175 -0.334,4.393 -0.497,6.661 -3.237,5.077 -7.834,8.531 -12.586,12.101 -8.161,6.128 -16.767,12.592 -20.088,28.1 4.436,-16.596 17.235,-24.468 20.803,-27.148 4.304,-3.234 8.485,-6.373 11.712,-10.721 -0.148,2.199 -0.284,4.443 -0.4,6.738 -3.103,4.572 -7.368,7.75 -11.772,11.031 -7.835,5.838 -16.097,11.995 -19.404,26.833 4.525,-16.508 16.624,-23.275 20.12,-25.877 3.994,-2.977 7.879,-5.873 10.955,-9.824 -0.1,2.22 -0.177,4.487 -0.228,6.801 -2.966,4.134 -6.928,7.062 -11.014,10.079 -7.51,5.548 -15.426,11.398 -18.719,25.566 4.178,-15.664 16.019,-22.087 19.43,-24.606 3.723,-2.749 7.345,-5.424 10.266,-9.026 -0.034,2.245 -0.04,4.539 -0.011,6.883 -2.831,3.747 -6.507,6.436 -10.29,9.207 -7.186,5.258 -14.758,10.8 -18.038,24.294 4.514,-14.899 15.409,-20.894 18.743,-23.333 3.467,-2.537 6.843,-5.008 9.612,-8.291 0.045,2.274 0.121,4.595 0.239,6.965 -2.684,3.384 -6.091,5.85 -9.596,8.387 -6.86,4.967 -14.087,10.201 -17.353,23.027 4.168,-13.968 14.797,-19.704 18.052,-22.062 3.222,-2.333 6.364,-4.606 8.986,-7.601 0.128,2.267 0.289,4.577 0.495,6.936 -2.552,3.099 -5.734,5.376 -9.005,7.718 -6.536,4.676 -13.416,9.6 -16.673,21.756 4.078,-13.121 14.191,-18.514 17.368,-20.787 3.02,-2.161 5.964,-4.27 8.457,-7.032 0.059,0.64 0.123,1.284 0.187,1.93 0.169,1.656 0.343,3.31 0.519,4.964 -2.434,2.882 -5.432,5 -8.512,7.176 -6.213,4.387 -12.75,9.004 -15.996,20.486 4.194,-11.849 13.581,-17.321 16.681,-19.51 2.851,-2.013 5.628,-3.977 8.002,-6.548 0.254,2.325 0.519,4.646 0.784,6.966 -2.309,2.649 -5.117,4.601 -7.999,6.606 -5.886,4.096 -12.078,8.401 -15.314,19.214 4.232,-11.168 12.973,-16.131 15.996,-18.235 2.659,-1.85 5.255,-3.655 7.498,-6.015 0.272,2.348 0.552,4.692 0.827,7.033 -2.18,2.396 -4.778,4.173 -7.442,5.996 -5.565,3.805 -11.41,7.802 -14.64,17.943 3.767,-10.491 12.362,-14.944 15.309,-16.959 2.454,-1.677 4.85,-3.316 6.954,-5.439 0.281,2.366 0.562,4.726 0.843,7.076 -2.04,2.136 -4.421,3.732 -6.857,5.368 -5.244,3.513 -10.744,7.2 -13.966,16.668 3.927,-9.637 11.755,-13.755 14.626,-15.681 2.235,-1.497 4.422,-2.964 6.373,-4.843 0.284,2.381 0.561,4.75 0.831,7.1 -1.888,1.875 -4.054,3.294 -6.268,4.742 -4.916,3.222 -10.07,6.597 -13.288,15.398 3.87,-8.62 8.844,-11.06 13.943,-14.4 2.012,-1.319 3.99,-2.614 5.785,-4.254 0.273,2.392 0.534,4.763 0.783,7.11 -1.745,1.626 -3.696,2.871 -5.688,4.14 -4.597,2.93 -9.401,5.992 -12.618,14.123 2.959,-6.733 8.082,-9.817 13.257,-13.115 1.798,-1.145 3.564,-2.272 5.203,-3.683 0.246,2.399 0.477,4.77 0.683,7.104 -1.596,1.399 -3.347,2.478 -5.127,3.576 -4.276,2.637 -8.734,5.385 -11.951,12.843 3.432,-6.293 7.615,-8.768 12.575,-11.826 1.592,-0.981 3.156,-1.945 4.631,-3.138 0.203,2.401 0.382,4.763 0.53,7.078 -1.456,1.194 -3.021,2.12 -4.606,3.059 -3.96,2.344 -8.065,4.775 -11.29,11.565 4.639,-6.754 7.164,-7.738 11.898,-10.539 1.392,-0.825 2.768,-1.641 4.088,-2.638 0.138,2.391 0.243,4.732 0.303,7.009 -1.338,1.025 -2.75,1.819 -4.177,2.622 -3.645,2.051 -7.397,4.162 -10.635,10.281 4.455,-6.025 6.716,-6.709 11.216,-9.241 1.231,-0.689 2.445,-1.373 3.629,-2.208 0.045,2.371 0.041,4.673 -0.023,6.898 -1.263,0.901 -2.556,1.584 -3.86,2.271 -3.336,1.756 -6.729,3.544 -9.986,8.99 3.601,-4.665 6.26,-5.682 10.542,-7.937 1.093,-0.575 2.177,-1.147 3.254,-1.848 -0.093,2.325 -0.259,4.556 -0.497,6.687 -1.24,0.828 -2.476,1.423 -3.711,2.017 -3.028,1.46 -6.056,2.918 -9.344,7.696 3.563,-4.113 5.795,-4.661 9.863,-6.618 0.998,-0.481 1.995,-0.961 3.005,-1.564 -1.01,7.595 -3.079,13.778 -6.696,17.983 3.172,-2.39 5.38,-6.59 6.872,-11.887 0.765,1.261 1.619,2.381 2.472,3.503 1.424,1.867 4.523,5.163 5.753,8.741 -0.837,-4.256 -2.821,-6.861 -4.804,-9.464 -0.959,-1.257 -1.916,-2.515 -2.725,-3.95 l -0.447,0.248 c 0.551,-2.1 0.986,-4.363 1.338,-6.741"
           style="fill:#729c1f;fill-opacity:1;fill-rule:evenodd;stroke:none"
           id="path70496" /></g></g></g></svg>
