<?xml version="1.0" encoding="utf-8"?>

<!DOCTYPE svg PUBLIC "-//W3C//DTD SVG 1.1//EN" "http://www.w3.org/Graphics/SVG/1.1/DTD/svg11.dtd">
<svg version="1.1" id="Layer_1" xmlns="http://www.w3.org/2000/svg" xmlns:xlink="http://www.w3.org/1999/xlink" x="0px" y="0px"
	 viewBox="0 0 2653.486 1618.324" enable-background="new 0 0 2653.486 1618.324" xml:space="preserve">
<g>
	<path fill="#459035" d="M844.606,41.795c4.098-4.262,6.711-10.205,12.23-12.948c12.725-4.823,4.628,35.296,11.446,54.422
		c6.335,18.941,19.349,36.363,18.451,57.149c-0.931,11.038,3.38,21.635,2.923,32.624c-0.392,7.723-6.335,13.275-9.927,19.643
		c-2.253,3.462-1.404,7.723-1.078,11.577c-5.454,0.278-10.907-0.261-16.181-1.616c-7.642-10.075-20.427-15.381-26.158-27.023
		c-21.073-43.788-11.965-78.624-11.724-82.686c0.212-4.801-2.139-10.173,1.486-14.222c3.706-4.801,5.519-10.646,5.617-16.688
		C831.821,53.274,839.43,47.837,844.606,41.795z"/>
	<path fill="#459035" d="M2040.866,32.227c8.066-2.972,16.737-1.878,24.982-0.278c7.854,1.388,12.279,9.47,20.214,10.826
		c44.388,12.673,67.342,61.579,67.289,84.548c-0.033,8.017-0.947,16.002-1.143,24.019c-3.951,4.703-8.67,8.703-14.222,11.397
		c-6.629-2.857-14.108-4.098-19.839-8.703c-9.177-7.054-16.328-16.23-24.835-23.986c-6.45-5.666-7.609-14.597-10.63-22.174
		c-2.4-6.809-7.821-12.018-10.156-18.859c-4.344-11.315-5.176-24.607-13.928-33.751
		C2051.904,48.245,2043.968,41.779,2040.866,32.227z"/>
	<path fill="#459035" d="M595.273,39.036c15.631-8.747,21.592-1.92,17.243,7.789c-4.523,10.124-16.524,14.01-21.406,23.888
		c-6.678,13.683-4.866,29.946-12.083,43.433c-3.658,6.499-9.96,10.907-14.01,17.112c-3.902,5.699-4.507,13.177-9.34,18.32
		c-9.079,9.944-21.831,15.267-32.542,23.105c-5.258,3.87-5.617,10.809-6.303,16.704c-13.24-1.902-20.567-6.17-20.802-20.41
		c3.413,3.429,6.809,6.874,10.368,10.189c0.506-13.601-4.931-26.893-2.662-40.478c1.372-9.487,5.699-18.108,9.144-26.925
		c2.188-5.339,2.808-11.707,7.429-15.691c14.169-13.713,7.032-17.096,46.062-46.666C574.797,42.987,586.244,44.147,595.273,39.036z"
		/>
	<path fill="#459035" d="M1439.887,34.938c22.92,1.959,29.469,28.745,43.254,42.209c5.862,4.996,7.25,12.997,11.691,19.055
		c-2.367,13.406,9.601,23.072,10.907,35.759c1.486,15.92-0.523,31.873-1.355,47.777c-0.919,13.372-15.296,23.561-24.084,37.8
		c-2.253,7.086-10.287,6.107-16.198,6.564c-3.575-18.193-39.067-23.544-24.182-78.588c2.613-9.699,2.237-19.888,4.392-29.669
		c1.323-6.107,5.666-11.56,4.376-18.124c-1.11-8.785,2.645-17.128,2.939-25.815C1451.398,58.532,1439.691,48.441,1439.887,34.938z"
		/>
	<path fill="#459035" d="M1796.513,33.354c12.54,1.943,19.153,14.124,24.607,24.248c9.895,20.476,18.582,43.613,13.716,66.619
		c-4.786,14.516,2.105,42.285-33.326,65.329c-7.642,1.306-13.422,7.217-21.08,8.54c-0.931-9.617-7.87-17.194-9.389-26.648
		c-3.56-18.043,1.094-36.298,1.045-54.455c7.331-7.201,7.005-18.712,14.304-25.962c0.618-6.706-3.05-5.484,10.63-22.566
		C1794.003,56.179,1794.839,39.344,1796.513,33.354z"/>
	<path fill="#459035" d="M2560.808,36.505c16.239,2.725,18.234,14.13,22.141,30.567c7.192,32.365,23.263,55.503,6.368,114.184
		c-4.972,17.704-16.061,40.56-33.62,46.895c-0.408,1.372-0.768,2.759-1.078,4.147c-3.617-0.499-11.311-1.432-18.99-3.053
		c-2.335-7.266-5.764-14.238-6.727-21.847c-2.27-14.826,2.025-29.538,2.417-44.331c0-6.221,1.551-12.279,3.641-18.108
		c3.951-11.887,3.478-26.044,12.867-35.481c0.098-3.804-0.98-8.425,2.498-11.103c11.609-9.797,4.833-27.497,14.483-38.567
		C2561.804,52.425,2559.306,44.604,2560.808,36.505z"/>
	<path fill="#459035" d="M71.919,88.527c4.017-16.263,8.409-33.408,19.79-46.274c6.172,6.009,9.34,14.353,10.205,22.827
		c1.11,13.095,8.638,24.427,10.777,37.294c1.437,10.368,8.344,19.088,8.817,29.701c0.718,10.254,6.188,19.284,7.936,29.309
		c2.253,10.287,1.812,20.884,2.368,31.334c-1.986,50.826-6.783,33.807-19.235,63.272c-1.812-3.053-3.445-6.319-5.992-8.834
		c-4.18-3.625-10.777-3.886-13.83-8.899c-10.532-15.985-16.018-34.502-23.464-51.989c-5.64-13.035-2.205-8.582-6.515-50.732
		C62.007,119.355,68.049,103.99,71.919,88.527z"/>
	<path fill="#459035" d="M1209.886,56.981c0,6.123-4.735,10.695-5.943,16.377c-0.114,13.259,3.788,26.125,5.16,39.237
		c1.845,10.777,0.131,22.043,3.87,32.477c2.27,7.609,6.156,15.006,5.78,23.154c-0.278,7.968-5.617,14.5-7.168,22.141
		c-0.62,4.343,0.571,9.421-3.413,12.507c-3.707,5.307-12.475,5.895-13.373,13.144c-6.744-1.159-13.454-2.498-20.068-4.229
		c-2.318-3.266-6.123-4.507-9.715-5.764c-5.058-18.547-7.651-11.576-13.471-31.922c-2.057-7.364-5.356-14.597-5.111-22.402
		c-0.147-8.442,3.266-16.328,4.784-24.509c1.927-9.748,1.584-20.1,5.911-29.26C1190.153,26.205,1212.154,38.397,1209.886,56.981z"/>
	<path fill="#459035" d="M2342.433,46.041c17.406,0.588,36.478,2.58,50.308,14.287c-6.956,9.519-20.655,8.017-29.783,14.369
		c-19.297,13.915-32.244,7.742-71.012,46.127c-7.511,7.07-18.239,8.082-27.415,11.838c-12.834,5.421-27.334,8.327-41.131,5.437
		c-4.393-0.702-7.103-4.474-10.516-6.874c-3.364-1.584-6.646,1.029-9.552,2.319c-2.645-4.213-4.441-8.883-5.666-13.683
		c3.886-2.596,9.144-4.294,11.218-8.801c9.043-26.768,45.018-49.159,74.898-53.965C2307.035,53.617,2296.16,46.546,2342.433,46.041z
		"/>
	<path fill="#3C3E2A" d="M2160.569,66.092c-5.633-5.617-2.563-17.096,5.682-18.059c11.365-2.123,21.472,9.128,19.594,20.247
		C2178.399,74.256,2166.692,73.652,2160.569,66.092z"/>
	<path fill="#459035" d="M316.092,56.083c15.169-1.355,31.073-4.18,45.866,0.963c32.777,11.034,10.831-1.728,54.585,23.709
		c15.398,9.274,31.824,22.419,33.359,41.751c2.596,1.551,5.225,3.086,7.903,4.572c-1.306,4.278-2.759,8.507-4.588,12.605
		c-12.501,0.195-11.172,13.662-42.649,7.462c-13.242-3.086-26.876-6.205-38.404-13.748c-8.295-5.029-14.059-14.32-24.443-15.365
		c-10.515-10.94-23.627-18.794-36.886-26.027c-6.825-3.429-12.801-9.372-20.802-9.732c-8.997-0.914-19.676-0.261-25.782-8.262
		c1.045-2.678,1.535-5.96,4.196-7.576c6.025-3.984,14.222,0.49,20.018-4.229C296.465,56.458,306.671,56.605,316.092,56.083z"/>
	<path fill="#3D3E2A" d="M1518.475,59.267c14.238-12.79,40.787,5.665,23.741,21.7C1521.768,82.794,1515.094,72.901,1518.475,59.267z
		"/>
	<path fill="#3C3F2A" d="M1887.119,56.262c2.874-0.376,5.813,0.016,8.736,0.196c3.935,6.384,6.091,15.006,2.417,21.962
		c-1.453,3.021-5.144,2.972-7.985,3.07C1871.108,82.435,1873.886,58.93,1887.119,56.262z"/>
	<path fill="#3D3E2A" d="M498.152,59.74c8.641,25.644-22.15,27.649-28.95,10.434C465.551,61.009,482.981,51.486,498.152,59.74z"/>
	<path fill="#3C3E29" d="M1125.959,57.569c6.4,0.901,11.338,22.158,0.147,31.122c-8.18,0.898-14.059-5.552-18.875-11.169
		C1100.622,70.22,1103.686,52.353,1125.959,57.569z"/>
	<path fill="#459035" d="M1618.257,74.256c23.825-18.829,48.595-18.766,57.133-12.981c1.91,3.053,0.473,6.94-1.878,9.291
		c-5.764,6.205-10.091,13.732-16.9,18.908c-9.96,7.74-13.732,20.247-20.214,30.567c-25.01,39.585-19.057,36.441-24.95,40.315
		c-12.899,9.389-21.733,23.333-35.269,31.922c-7.565,5.033-16.594-2.125-35.253,13.732c-3.951-3.543-7.233-7.756-9.764-12.393
		c1.502-2.482,2.972-4.996,4.474-7.511c-2.857-9.699-1.241-19.725,0.196-29.505c2.266-15.294,51.794-62.451,65.493-74.833
		C1605.962,77.228,1613.407,78.501,1618.257,74.256z"/>
	<path fill="#459035" d="M961.451,68.77c8.571-16.921,40.442-6.652,58.929-0.572c17.014,5.454,31.644,15.953,46.928,24.868
		c7.838,4.392,13.34,11.691,19.153,18.337c20.522,24.716,7.109,12.047,23.431,40.364c7.887,14.042,12.899,29.424,19.088,44.25
		c-5.111,4.425-11.038,7.952-17.7,9.356c-9.895-2.58-21.357-0.522-29.718-7.462c-5.029-3.837-12.181-4.784-15.577-10.597
		c-10.254-14.059-25.178-24.297-33.636-39.71C976.37,47.501,977.79,83.892,961.451,68.77z"/>
	<path fill="#3C3E2A" d="M779.277,62.794c16.268,20.886-9.031,30.086-21.994,23.48C748.687,81.941,742.352,57.211,779.277,62.794z"
		/>
	<path fill="#459035" d="M1976.859,91.695c10.091-10.075,22.468-17.455,32.542-27.562c14.713,11.155,0.079,25.761-4.507,38.829
		c-3.87,9.683-5.748,21.488-15.12,27.644c-7.858,5.054-27.956,33.853-34.975,39.939c-6.091,5.29-14.369,7.037-20.41,12.361
		c-35.783,30.948-66.086,16.772-81.348,16.475c-0.229-3.168,0.457-6.548-0.718-9.536c-2.743-2.368-6.042-3.919-9.144-5.666
		c3.756-7.576,6.776-16.1,13.749-21.406c19.029-14.454,10.994-18.119,46.977-34.845c7.25-3.38,13.16-9.601,21.325-10.891
		c8.964-1.584,17.896-4.213,25.456-9.47C1959.045,101.688,1969.283,98.732,1976.859,91.695z"/>
	<path fill="#459035" d="M638.69,65.52c10.091,4,17.357,12.312,24.198,20.394c11.707,14.793,29.701,22.043,45.605,31.236
		c16.524,10.287,38.404,9.585,52.659,23.905c8.05,9.438,20.819,12.671,29.473,21.276c5.029,8.344,10.009,16.753,16.557,24.052
		c1.176,4.278,1.518,8.719,1.927,13.112c-1.061,0.62-3.184,1.845-4.245,2.466c0.376,0.016,1.11,0.033,1.486,0.033
		c-4.686,2.123-9.144,4.947-11.577,9.65C738.04,223.095,652.531,150.059,638.69,65.52z"/>
	<path fill="#3C3E2A" d="M2491.756,74.158c-2.237,6.237-0.784,13.846-5.258,19.12c-6.482,5.617-17.08,5.323-23.823,0.343
		C2446.898,82.084,2477.295,60.096,2491.756,74.158z"/>
	<path fill="#3C3E29" d="M160.728,83.106c7.87-4.441,18.402-6.401,26.436-1.372c7.282,4.458,6.809,16.459-0.261,20.868
		C179.268,107.472,160.318,107.33,160.728,83.106z"/>
	<path fill="#459035" d="M1674.002,90.307c12.328,0.555,17.863,12.883,24.182,21.553c10.238,11.74,15.806,26.631,21.26,41
		c18.902,61.14,5.104,65.333-12.557,88.173c-0.229,1.78-0.31,3.576-0.229,5.372c-5.878,1.747-12.589,4.458-18.222,0.571
		c-41.02-45.451-9.388-111.038-6.515-124.503C1681.97,111.142,1673.022,101.835,1674.002,90.307z"/>
	<path fill="#3D3F2A" d="M1730.743,96.871c10.158-1.998,22.37,16.481,2.629,17.667c-4.523,1.094-5.911-4.115-8.376-6.711
		C1725.828,103.843,1726.383,98.634,1730.743,96.871z"/>
	<path fill="#3D3E2A" d="M2053.978,100.447c8.744,12.882-12.995,22.717-19.855,11.985
		C2025.832,99.764,2047.048,90.107,2053.978,100.447z"/>
	<path fill="#3C3E2A" d="M911.405,103.957c7.952-4.36,17.341-1.453,24.933,2.253c-0.229,4.703,2.155,11.642-3.102,14.353
		C922.737,125.804,908.809,115.632,911.405,103.957z"/>
	<path fill="#3D3E2A" d="M608.662,120.579c-5.013-3.788-4.719-13.438,1.437-15.92c8.342-3.107,25.587,3.543,16.377,21.292
		C620.321,125.233,613.691,124.58,608.662,120.579z"/>
	<path fill="#459035" d="M974.465,104.855c6.466,11.054,0.18,23.872,2.955,35.645c4.049,21.08,5.911,42.519,10.14,63.582
		c3.594,20.067-4.776,21.642-6.972,34.208c-0.669,2.466-0.457,5.405-2.335,7.38c-3.168,3.445-8.344,5.454-9.013,10.646
		c-6.254,0.523-12.557,0.131-18.663-1.225c-3.592-2.678-5.209-7.658-8.001-11.201c-4.49-5.666-1.47-13.471-4.898-19.529
		c-7.397-15.251-12.508-33.44-5.797-49.867C933.793,170.335,941.977,116.256,974.465,104.855z"/>
	<path fill="#3D3F2A" d="M2184.522,137.496c3.69-6.352,6.482-13.667,13.145-17.635c1.225,4.801,3.021,9.47,5.666,13.683
		c-12.42,8.99-43.855,52.591-50.977,87.307c5.519,0.245,10.27-2.547,14.352-5.96c1.094,3.2,2.27,6.401,3.445,9.585
		c-29.704,24.554-31.471,55.229-37.506,75.29c-4.441,15.446-14.489,41.493-9.291,50.357c2.776,0.735,4.523-2.237,6.564-3.56
		c2.776,3.217,5.715,6.303,8.85,9.193c-10.352,7.985-13.112,21.521-21.308,31.236c-0.848,21.246-26.548,46.655-11.561,55.075
		c2.253,4.931,4.784,10.091,9.585,13.03c-5.552-0.653-10.254,2.694-15.169,4.621c-5.002,1.612-33.513,47.599-39.515,57.182
		c-2.906,4.719-5.47,9.96-4.719,15.675c10.924,4.196,22.19-0.506,33.179-1.829c7.609-1.192,15.332-0.376,23.006-0.931
		c6.368-0.588,11.74-4.507,17.928-5.813c7.054-1.6,14.336-3.217,20.313-7.56c47.793-32.081,35.729-56.716,46.47-65.999
		c7.021-5.013,20.263-3.478,22.06,6.384c-5.96,20.868-23.301,35.106-34.306,53.067c27.161-3.051,33.464-12.467,39.596-15.708
		c12.278-5.794,11.565,2.932,41.899-25.668c4.572,3.07,9.83,4.784,15.25,5.715c-0.604,0.702-1.796,2.106-2.4,2.808
		c9.209,4.588,19.088-0.751,26.533-6.286c5.862-4.964,13.928-5.143,20.623-8.458c6.613-3.217,13.177-6.613,19.986-9.454
		c10.548-4.637,13.03-18.026,23.48-22.876c0.033-5.682,1.845-11.169,5.144-15.789c6.531,1.649,15.577,1.992,18.532-5.552
		c-1.159,4.262-1.91,8.605-2.27,12.997c14.042-1.78,20.655-15.789,30.077-24.492c52.781-47.419,48.975-59.129,58.472-95.014
		c1.535-8.311,3.902-18.565-2.515-25.423c6.139-1.306,12.067-3.609,17.39-7.037c2.335,13.193,2.515,26.925-2.433,39.596
		c11.365-4.147,16.704-16.312,19.953-27.089c2.956-12.295,15.398-19.725,17.439-32.428c1.323-7.135,7.789-12.834,6.139-20.492
		c6.107,1.29,12.295,2.172,18.516,2.988c-2.253,3.364-4.8,6.548-6.678,10.124c-2.025,4.556-1.878,9.732-3.805,14.304
		c-42.191,75.039-17.546,36.15-58.553,94.867c-3.396,5.045-8.458,8.785-11.25,14.255c6.972,7.576,16.9,1.029,23.545-3.543
		c1.274,4.033,2.645,8.017,4.098,12.001c-14.957,7.723-32.722,7.87-47.091,16.851c-15.887,10.777-25.88,27.725-39.76,40.69
		c4.817,3.919,11.12,3.56,16.312,0.523c-2.156,4.262-3.396,8.899-4.49,13.536c-15.277-2.882-41.62,9.053-57.182,18.68
		c-12.165,7.56-26.583,9.764-39.596,15.398c5.731,9.732,18.19,8.425,27.644,11.348c7.348,1.486,10.858,8.981,17.177,12.311
		c7.135,4.311,15.74,3.788,23.741,4.85c6.841,0.506,12.132,6.482,19.251,5.666c6.384,0.18,15.936,0.555,17.569,8.393
		c2.188,6.744-7.364,6.678-8.883,11.675c1.796,7.985,9.977,14.5,8.393,23.056c-19.238,7.967-36.041-41.899-56.92-34.632
		c-34.872-50.419-174.835,4.334-199.107,10.107c-17.079,4.8-34.534,8.082-51.81,11.952c7.952,7.38,19.235,8.148,29.456,9.568
		c23.137,1.976,46.666,5.29,69.787,1.714c-1.535,9.242-3.739,18.435-3.625,27.856c-6.205-1.437-13.03-0.947-18.582-4.409
		c-4.197-2.351-8.017-5.813-12.998-6.172c-6.923-0.686-13.895-0.718-20.623-2.613c-0.131,4.425,1.764,8.425,4.768,11.609
		c-3.984,1.453-8.05,2.857-11.397,5.503c-8.72-25.561-49.176-18.668-71.273-34.926c-81.119,10.086-53.466,18.75-92.647,24.525
		c0.457,7.462,9.519,10.009,10.793,17.341c-14.609,17.943-42.641-26.406-86.621,12.018c-2.253,1.698-2.776,4.49-2.874,7.135
		c-4.67,1.829-9.862,3.347-12.818,7.707c-16.557,25.701-30.909,52.74-44.462,80.107c-22.281,46.294-31.409,41.254-40.559,67.681
		c18.859,4.507,37.882-2.123,55.467-8.54c8.262-2.629,12.736-10.466,17.961-16.753c13.095,4.572,27.579-1.731,36.722-11.332
		c20.182-0.767,34.404-16.769,49.197-28.395c1.437,4.539,3.135,9.013,4.98,13.438c-4.915,4.376-10.907,8.034-14.059,13.993
		c0.082,0.833,0.212,2.482,0.294,3.315c-3.543,3.004-6.891,6.205-10.058,9.585c-15.835,2.155-17.71,5.064-22.207,16.051
		c-25.064,2.319-46.846,16.051-70.636,22.958c-16.034,4.898-33.505-1.861-49.165,4.931c-16.642,6.964-14.178,36.47-22.157,49.769
		c-3.527,5.878-5.193,12.589-6.646,19.218c-7.821,37.114-24.574,71.991-29.195,109.84c17.194-4.621,29.293-19.512,46.667-23.741
		c7.054,6.76,5.813,18.712-0.392,25.619c-11.34,12.966-31.696,6.169-61.476,38.388c-15.61,16.329-29.969,63.341-73.951,102.248
		c-7.086,5.519-11.626,13.438-17.879,19.774c-49.084,53.083-136.713,84.601-204.185,123.866
		c-45.121,25.906-35.467,24.261-55.239,39.71c-4.409,3.38-6.613,8.589-9.797,12.965c-38.665,47.688-41.639,165.261-1.927,202.83
		c42.594,40.489,104.13,6.979,143.885-7.609c7.511-2.841,15.349,0.294,23.039,0.082c6.058,0.065,12.85-0.392,17.863,3.707
		c20.115,14.686,57.579,29.801,83.944,24.199c11.642-2.433,21.015-10.466,32.314-13.895c5.143-1.421,9.552-4.49,14.402-6.597
		c9.519-0.098,19.219-4.409,28.542-0.67c15.594,5.944,23.366,23.317,39.318,28.656c13.879,3.429,27.611-2.482,41.425-3.282
		c8.814-0.693,31.47,5.328,36.526,13.944c1.927,3.674-1.992,7.25-5.453,7.723c-9.993,2.106-17.879-7.021-27.709-6.352
		c-8.458,0.784-16.035,5.144-24.329,6.646c-5.658,1.108-34.514,1.627-43.776-6.45c-7.919-6.303-15.724-14.957-26.664-14.859
		c-25.293-0.091-45.584,38.729-118.919,13.389c-17.586-5.535-33.62-16.606-52.463-17.553c-17.569-1.306-33.391,7.691-48.887,14.614
		c-31.459,14.942-77.088,12.472-102.231,3.739c-10.728-3.511-17.504-13.83-28.395-16.932c-1.003,21.842-23.636,23.031-31.661,15.006
		c2.319-7.724,6.923-15.594,4.588-23.856c-4.18-8.099-16.524-3.576-18.729,3.902c-4.066,8.915,8.197,17.161,2.808,25.864
		c-8.344,6.33-28.139-10.597-32.085-13.242c-16.151,4.692-24.222,12.546-60.496,18.565c15.134,12.444,130.057-0.443,159.887,2.923
		c10.025,0.98,20.133,3.102,30.224,1.421c39.223-6.9,163.217,0.379,198.487,1.584c91.91,0.655,34.013-5.347,171.464-4.18
		c61.607,0.947,123.23,0.147,184.853,0.49c0.114,8.017,1.584,15.953,3.935,23.627c-111.771,4-119.029-0.578-151.396,0.49
		c-11.511,0.735-22.663,5.339-34.322,3.952c-87.576-7.81-21.627,0.208-386.899-5.405c-23.643-0.016-93.36-2.305-137.37,3.184
		c-31.734,4.059-168.906-2.878-249.545,0.539c-65.836,2.743-131.671-0.31-197.523,0.212c-12.687-0.604-24.999,3.315-37.653,3.184
		c-19.627,0-39.253-0.441-58.847-1.437c-1.323-7.152-2.906-14.238-4.409-21.325c245.323-4.249,266.932,4.357,307.56-3.755
		c-53.106-16.788-16.858,1.272-63.746-22.827c-28.149-13.954-30.796,8.891-49.965,16.965c-21.608,10.527-51.087-11.815-78.196-0.996
		c-7.609,3.07-16.051,4.474-23.97,1.584c1.159-8.85,9.307-14.369,17.324-16.492c7.054-1.796,13.977-4.327,21.178-5.535
		c12.001,0.327,22.941,9.144,35.171,6.009c21.359-5.368,27.626-33.053,56.284-31.595c5.65,0.555,12.246-1.616,17.096,2.155
		c3.543,2.743,8.05,3.445,12.23,4.784c6.825,2.188,12.083,8.131,19.578,8.556c9.128,0.947,15.447,9.291,24.754,9.699
		c16.72,1.437,32.983-5.323,46.878-14.091c12.463-7.53,22.75-25.03,60.545-18.859c38.044,7.527,46.932,23.806,63.991,23.953
		c15.136,0.882,30.273,6.483,45.458,2.874c63.559-16.845,72.274-78.505,66.864-99.227c-0.996-3.004,0.294-5.976,0.767-8.899
		c2.221-11.642-0.343-23.431-0.555-35.122c-0.245-7.037,1.829-14.108,0.212-21.08c-1.943-9.568-5.65-18.663-7.903-28.134
		c-7.944-29.144-39.578-57.032-45.197-59.419c-13.357-6.319-25.57-14.712-38.404-21.994
		c-99.234-56.558-160.327-68.122-242.002-164.654c-3.739-4.425-7.756-8.67-10.924-13.52c-4.082-5.927-4.196-13.634-8.54-19.414
		c-26.409-39.288-20.695-46.846-69.542-72.563c-11.577-6.264-28.224-8.609-36.347-34.257c20.06-8.392,35.374,23.826,65.183,27.66
		c1.665-9.617-8.981-13.797-11.103-22.174c-4.797-18.283-29.96-84.691-45.017-146.383c-4.29-18.908-27.52-13.372-41.849-15.936
		c-31.33-5.101-64.027-31.538-93.365-25.995c-3.707-11.871-13.03-20.9-22.892-27.954c-6.58-8.67-16.769-12.818-25.178-19.3
		c-1.274-0.376-3.837-1.11-5.111-1.47c1.355-6.009,1.192-13.389,6.76-17.292c6.613,10.956,17.863,17.586,27.921,24.95
		c15.202,11.218,30.06,24.394,48.952,28.77c0.229-0.8,0.702-2.4,0.931-3.2c4.376,0.229,8.752,0.327,13.144,0.359
		c8.563,14.184,13.201,11.006,22.631,14.467c6.58,2.335,12.736,6.091,19.839,6.695c6.921,0.719,32.958,10.526,33,1.159
		c4.62-23.371-15.47-35.346-82.148-151.804c-5.151-9.155-38.874-30.506-67.044-21.815c-9.144,2.106-16.639,8.638-25.946,10.123
		c-6.499,1.535-12.426-4.947-12.001-11.152c2.857-7.25,12.605-5.731,17.586-10.646c3.017-1.918,0.756-8.037-12.132-8.425
		c-15.675,1.094-26.925-13.879-42.47-13.846c-9.225,0.931-15.642-7.446-24.509-8.148c-21.514-2.312-40.669,11.464-50.716,14.336
		c-13.783,4.253-19.125,2.208-35.236,20.133c-4.996-3.56-10.695-5.895-16.671-7.184c-5.699-7.805-16.051-1.992-22.419,1.78
		c-0.424-6.907-0.539-13.814-0.555-20.704c29.032-5.836,49.304-0.892,64.154-14.891c-12.344-1.502-22.566-9.683-34.943-10.907
		c-4.882-0.539-9.34-2.612-13.65-4.784c-7.38-3.853-15.936-2.139-23.839-3.364c-5.552-0.735-10.124-4.392-15.528-5.568
		c-5.176-0.865-10.434-0.506-15.594-1.208c-8.85-0.98-15.3-8.915-24.395-8.997c-9.895-0.049-19.055-3.886-28.166-7.217
		c-8.834-3.266-18.239-0.784-27.334-0.751c-33.315,0.447-18.757,3.609-38.42,7.527c-4.147-4.343-9.683-6.695-15.577-7.331
		c5.274-15.234,24.77-11.789,36.069-19.202c-3.07-14.553-72.585-32.656-87.961-32.999c-4.85-6.156-8.066-13.324-11.969-20.051
		c12.181,4.752,24.607,9.046,37.441,11.691c-1.878-5.062-5.943-8.703-10.336-11.577c-17.765-10.548-29.864-28.085-46.748-39.792
		c-11.054-0.849-22.076-2.743-32.395-6.923c-5.16-1.894-10.173-4.784-15.855-4.36c3.331-3.837,5.895-8.229,8.278-12.671
		c9.536,2.4,17.88,9.307,28.134,8.556c-3.413-11.805-11.316-21.472-19.055-30.73c-10.499-12.491-18.745-26.68-29.015-39.351
		c-14.059-17.373-22.696-38.192-34.045-57.28c2.629-6.221,5.699-12.279,9.781-17.684c4.566,9.23,32.572,65.181,43.221,73.673
		l2.661,0.082c5.47,2.874,10.042,7.544,16.443,8.425c6.569,35.594,28.325,60.074,54.945,85.838
		c10.181,9.179,24.332,28.19,32.183,22.5c5.584,3.968,12.197,6.858,19.137,4.833c3.853,7.658,7.674,15.561,13.814,21.717
		c5.908,6.357,50.808,32.048,80.825,35.628c-0.914-1.878-1.829-3.739-2.727-5.601c5.503-0.718,10.924-2.025,16.116-3.984
		c10.597,7.168,19.774,17.128,32.395,20.737c13.144,4.082,25.048,11.789,38.878,13.667c-0.229-10.613-9.666-16.688-15.365-24.394
		c-4.164-5.405-1.878-13.095-6.09-18.484c-2.89-4.213-5.829-8.997-4.082-14.287c19.345-13.516,32.655,33.255,34.093,35.073
		c51.919,57.34,69.047,44.319,95.57,47.695c46.103,4.561,39.026-6.142,21.276-27.203c-11.772-13.637-8.229-28.779-38.012-47.793
		c0.358-1.85,1.382-6.519,2.515-15.349c2.515,1.747,5.078,3.462,7.707,5.094c0.049-9.519-5.78-17.324-9.111-25.815
		c-3.048-8.796-13.85-59.315-36.641-64.954c2.825-3.902,5.274-8.05,7.495-12.312c3.739,2.4,7.609,4.637,11.675,6.531
		c2.302-26.844-10.466-51.532-16.524-77.021c-3.968-20.704-17.455-39.286-35.53-50.014c0.947-3.968,1.878-7.952,2.808-11.903
		c4.735,3.919,9.96,7.217,15.659,9.585c-0.898-30.324-32.429-74.312-54.471-90.589c1.829-4.098,3.282-8.327,4.588-12.605
		c15.528,11.152,26.338,27.219,38.225,41.898c0.237,14.343,7.689,18.527,20.802,20.41c0.062,19.285,7.285,33.969,27.872,99.537
		c3.755-2.139,5.437-6.058,6.711-9.96c2.302,5.421,6.384,9.732,11.332,12.867c-10.858,25.162-3.168,52.838,2.237,78.343
		c1.747-1.715,3.494-3.429,5.241-5.16c-0.278,47.512-2.353,46.618,11.054,56.871c-1.47,12.834,2.025,25.537,6.923,37.294
		c2.082,8.041,2.361,14.014,5.078,17.945c12.531,19.361,36.15,54.406,37.016,66.538c0.539,4.392,0.294,10.107,4.882,12.475
		c20.557,9.666,44.25,9.242,64.905,18.663c17.455,7.772,35.237,14.728,52.708,22.435c-1.93-23.247-24.336-47.781-37.016-56.202
		c1.763-3.723,3.364-7.511,4.817-11.364c0.702,0.065,2.139,0.212,2.857,0.294c0.849-18.973-9.291-36.184-9.666-55.059
		c4.49-3.233,9.095-6.303,13.895-9.062c1.861,18.68,2.123,38.029,10.042,55.435c2.825-0.849,5.16-2.612,7.282-4.637
		c5.388,8.507,5.062,18.794,8.344,28.036c-0.392,4.539-1.208,9.323,0.751,13.651c6.123,15.953,18.663,29.636,19.839,47.319
		c0.644,11.951,15.262,36.901,22.043,39.514c2.711-2.988,1.176-8.197,4.67-10.711c5.65-2.286,10.973,2.792,12.916,7.723
		c2.515,5.192-0.849,10.483-2.025,15.545c3.494,11.103,3.38,23.137,8.18,33.865c2.547,5.862,6.776,10.711,10.417,15.904
		c20.267,29.08,29.819,59.836,40.706,49.507c3.233-2.629,1.633-7.168,1.714-10.695c-1.67-11.23,9.25-12.564-0.523-28.281
		c2.874-2.776,5.829-5.47,8.621-8.344c15.484-2.765,7.43-12.734,9.634-22.239c1.301-3.314,14.734-22.644,0.833-62.456
		c3.527-4.67,5.813-10.646,10.94-13.863c0.604,3.821,0.163,10.287,5.421,10.94c12.672-3.049,9.879-24.181,17.357-36.167
		c10.434-17.226,14.761-37.147,22.696-55.5c-0.849-3.053-1.731-6.074-2.645-9.095c5.65-2.906,10.254-7.315,13.716-12.605
		c1.176,1.714,2.776,7.495,5.454,3.854c14.124-13.814,26.37-29.897,43.254-40.625c1.812,4.752,4.67,8.997,7.642,13.095
		c-10.417,6.94-16.671,18.043-24.884,27.17c-11.038,12.703-22.86,25.668-27.742,42.176c3.266,0.098,6.597-0.147,9.65-1.502
		c-0.588,5.731-0.49,11.511,0.441,17.21c-22-3.1-41.858,46.868-46.258,69.869c4.245-1.894,8.279-4.327,11.364-7.887
		c-1.518,9.911-6.466,19.039-6.629,29.277c-10.471,5.827-18.613,29.599-20.116,41.882c-0.025,13.299-10.377,13.92-9.879,36.51
		c-1.812,2.433-2.857,5.307-3.592,8.23c-3.331,3.968-8.033,7.87-7.413,13.601c-0.033,4.474,0.588,9.144-1.012,13.454
		c-2.302,6.76-6.286,13.03-6.76,20.329c-0.49,10.581,4.637,20.345,5.372,30.795c2.124,28.573,1.857,12.701,14.614,52.806
		c36.469,103.005,36.214,117.736,52.283,126.512c-4.461-42.769,12.312-87.446-0.539-106.722c5.47-1.91,10.793-4.801,13.046-10.483
		c9.585-8.474,15.104-20.149,19.953-31.726c4.539,1.976,9.177,3.674,13.912,5.16c0.425,1.078,1.257,3.217,1.682,4.294
		c-5.413,4.269-18.152,25.702-18.435,42.209c0.98-0.31,2.939-0.947,3.919-1.257c0.637,8.442,3.984,16.492,10.924,21.651
		c-10.173,3.755-17.635,13.716-20.198,24.052c-14.16,74.112,3.982,112.657,37.816,148c17.471,17.014,33.946,36.82,57.345,45.752
		c-1.791-59.511-3.243-19.856,9.813-65.313c1.682-6.58,5.372-12.703,5.421-19.643c0.245-9.487-3.38-18.451-4.784-27.725
		c-1.6-9.666-1.127-19.725-4.441-29.048c-2.008-6.009-5.372-12.067-4.049-18.598c1.502-8.034,12.687-10.483,12.426-19.267
		c0.588-4.947,0.278-11.495,5.388-14.206c6.972-2.58,13.34,4.523,14.304,10.907c0.539,10.842-3.347,21.521-2.025,32.395
		c1.649,13.977,5.699,27.546,6.874,41.604c4.866-1.437,9.34-4.049,12.638-7.952c16.312-19.594,39.4-31.465,59.696-46.307
		c4.147-3.119,6.025-8.18,9.47-11.903c2.237-1.992,5.421-2.221,8.164-3.119c6.433-1.274,10.124-7.299,15.055-11.038
		c6.613-6.335,15.169-9.879,22.566-15.12c3.951-2.613,5.927-7.054,8.997-10.499c4.033-2.466,9.372-3.151,12.001-7.544
		c5.682-8.589,15.136-13.242,22.713-19.855c14.995-12.159,12.159-13.899,32.787-13.308c-13.749-18.418-31.089-37.081-54.912-40.951
		c-0.359,0.588-1.11,1.763-1.486,2.351c-0.131-2.286-0.327-4.539-0.506-6.776c4.669-6.66,12.298-10.19-16.443-32.183
		c-6.107-4.294-11.707-9.748-19.006-11.936c-12.41-3.56-26.076-0.8-37.996-6.368c-15.86-7.41-2.499-21.81,8.246-19.316
		c8.948,1.535,17.292,8.066,26.697,4.948c-13.177-17.537-28.852-33.114-45.458-47.368c1.78-3.462,3.56-6.923,5.323-10.401
		c7.886,5.045,12.932,14.891,23.121,15.708c-1.29-5.47-4.458-10.173-6.401-15.349c-0.849-5.486,0-11.168-1.616-16.524
		c-2.629-8.703-7.87-16.606-8.768-25.815c-1.306-15.887,3.053-31.661,1.682-47.564c-1.523-13.803-21.322-36.84-28.705-61.721
		c-2.923-9.307-5.96-19.382-13.846-25.75c-5.584-4.245-9.993-10.27-16.753-12.736c-14.925-6.389-13.955-8.393-15.251-19.284
		c6.058-0.359,12.132,0.18,18.173,0.816c-1.796-8.768-9.079-14.81-12.001-23.105c-7.135-14.467-12.981-31.954-28.33-39.71
		c4.572-4.327,8.654-9.176,13.667-13.046c1.845,11.658,14.532,15.659,19.48,25.472c5.764,0.702,12.573-0.212,17.308,3.739
		c4.409,6.94,3.168,15.724,4.294,23.513c1.911,18.598,13.161,34.159,21.733,50.193c9.916,17.935,10.43,32.507,22.5,42.323
		c4.849-3.805,3.086-10.434,4.017-15.741c0.62-7.625,6.809-13.503,7.037-21.227c0.681-23.048,10.455-32.217-0.506-45.474
		c3.413-1.551,6.842-3.086,10.271-4.637c0,0,0.323,2.383,0.653,4.768c16.953-1.16,16.916-14.825,23.023-29.113
		c5.731-5.519,9.928-12.263,13.454-19.349c3.543-7.201,11.381-12.116,12.344-20.525c1.076-14.47-9.962-31.854,1.323-37.751
		c11.791-3.61,16.355,19.632,16.932,21.733c17.202-9.574,16.195-23.653,40.886-22.304c-1.715-9.013-9.83-14.353-16.851-19.169
		c-9.732-6.254-18.843-14.206-30.338-17.03c-3.87-1.257-8.54-1.845-11.022-5.454c-1.176-4.229,5.601-8.817,1.045-12.377
		c-19.414-17.814-39.417-35.743-63.158-47.597c-8.866-1.649-19.757-0.278-26.811-6.776c-3.102-5.062-6.678-9.83-10.679-14.189
		c7.282,2.906,14.516,6.074,22.125,8.099c-2.578-14.905-27.181-21.155-57.165-60.219c-4.49-5.96-10.221-10.907-16.883-14.287
		c6.662-1.404,12.589-4.931,17.7-9.356c13.259,27.399,37.473,47.221,61.084,65.476c-3.413-17.063-11.25-32.82-15.332-49.703
		c6.613,1.731,13.324,3.07,20.068,4.229c2.489,16.408,3.277,43.321,34.077,74.686c7.723,8.099,14.761,18.369,26.191,21.325
		c-0.441-5.388-2.515-10.385-3.984-15.512c-1.551-5.258,1.159-10.613,0.163-15.904c-0.669-3.821-2.841-7.119-4.637-10.466
		c6.009,3.919,10.63,10.695,18.516,10.711c-0.154,40.774,22.77,67.941,58.423,87.748c-0.931-4.245-3.511-8.572-2.074-12.997
		c5.143-16.247,9.683-33.277,7.903-50.454c-0.893-10.168-14.401-29.409,5.715-24.019c7.331,2.808,15.365,8.817,14.842,17.569
		c-0.474,8.295-0.931,16.769-3.739,24.672c-2.025,5.813-0.735,12.083-1.861,18.075c-1.339,7.429-4.229,14.451-6.042,21.766
		c20.84-1.048,34.429-27.496,50.242-45.376c-0.114-13.177,11.397-24.933,5.878-38.225c4.507-1.829,9.177-3.266,13.912-4.507
		c3.87,9.748,2.792,20.476-1.094,30.028c12.148-3.119,19.235-14.173,27.317-22.778c4.719-5.503,11.756-9.209,14.352-16.312
		c1.584-4.654,5.013-8.213,7.854-12.099c1.78-10.124,6.499-19.529,7.348-29.848c5.911-0.457,13.944,0.523,16.198-6.564
		c-0.375,5.323-0.114,11.038-3.102,15.741c-3.902,6.629-9.128,13.569-6.907,21.766c22.129-8.317,46.592-41.071,60.872-61.427
		c2.531,4.637,5.813,8.85,9.764,12.393c-7.968,7.854-14.108,17.259-21.096,25.946c-11.724,14.891-29.26,23.937-40.396,39.4
		c0,0,1.466,0.719,6.792,3.249c-0.898,4.017-1.698,8.066-2.384,12.132c-44.721,11.703-58.364,33.194-65.607,37.277
		c-8.536,3.386-9.351,0.671-22.68,30.077c-29.391,3.601-21.334,26.094-54.308,30.06c3.804,6.286,8.425,12.034,13.797,17.079
		c8.026,7.501,24.266,32.354,30.91,26.893c4.753-8.441-2.199-35.428,22.255-13.128c-2.466,14.957-6.335,31.056,0.049,45.589
		c3.462,9.421,12.263,15.349,16.41,24.362c2.841,5.405,4.67,11.348,8.066,16.492c4.458,6.499,14.81,1.894,19.055,8.621
		c5.111,9.519,2.221,20.851,4.849,31.024c8.584,31.607,4.72,34.018,10.597,38.682c2.384,2.645,6.417,0.718,7.968-1.894
		c8.229-10.842,6.874-25.619,13.928-37.049c12.962-21.784,24.88-64.548,52.414-94.475c6.204-8.09,14.899,0.485,20.77,3.951
		c-3.723,1.11-5.943,4.327-7.74,7.544c-45.941,80.042-51.082,95.602-57.345,124.83c-9.119,40.524-17.334,38.969-22.582,49.801
		c-3.378,11.067,0.366,49.696-8.638,77.755c-1.208,3.674-1.323,7.56-1.127,11.397c3.69-0.865,7.429-1.943,10.467-4.343
		c2.139,3.968,4.572,7.772,7.233,11.43c-13.03,13.455-26.501,26.778-36.249,42.927c20.953-1.089,24.454,10.883,22.761,16.867
		c-5.955,9.781-38.381,8.355-54.928,26.207c-17.314,2.3-15.959,12.108-19.643,20.41c-6.216,10.235-8.874,4.808-9.258,23.105
		c-10.956,2.678-18.729,11.658-29.195,15.365c-4.409,1.666-9.16,0.702-13.683,0.408c7.566,18.598,19.122,16.658,36.053,32.755
		c45.844,43.94,96.45,65.53,158.613,125.663c1.894,2.155,6.303,3.984,7.854,0.457c3.037-6.401,2.204-13.797,2.857-20.672
		c0.098-8.36,3.151-16.23,4.458-24.411c1.355-8.425-2.27-17.194,1.029-25.39c0.865-2.841,4.082-5.078,7.054-4.017
		c7.135,2.123,10.565,9.405,14.271,15.218c3.462,6.466,8.687,12.965,7.805,20.737c-2.045,12.486-20.846,22.749-13.324,70.359
		c2.302,15.185,13.65,27.121,15.838,42.323c2.221,13.112,0.18,26.403,0.898,39.596c5.111-3.331,9.617-7.462,13.863-11.838
		c6.303-6.646,15.953-8.458,22.304-15.022c41.432-42.386,44.998-42.642,48.413-53.296c2.106-6.939,8.181-12.246,8.703-19.692
		c2.433-26.223,8.932-52.087,8.36-78.555c-0.433-12.376,2.294-24.748-16.851-40.543c1.094-2.988,2.123-5.992,3.2-8.981
		c3.543,0.963,7.184,0.767,10.728-0.278c-1.812-3.233-4.033-6.237-5.454-9.65c-1.257-5.307-1.192-10.989-4-15.822
		c-4.458-8.703-6.613-18.745-13.177-26.24c-3.952-4.588-10.581-3.805-15.92-4.98c8.605-1.763,17.406-2.972,25.586-6.303
		c8.642,9.956,10.555,28.167,36.918,29.097c-6.964,32.639,4.067,75.415-1.535,98.558c-1.323,6.613-3.053,15.087,3.445,19.61
		c4.229-6.809,3.739-15.969,10.107-21.455c2.449-9.895,7.331-19.039,9.013-29.13c1.976-11.609,8.442-21.766,11.234-33.13
		c2.531-9.715,3.576-20.214,9.617-28.591c3.266-3.755,1.829-8.981,3.005-13.438c1.6-3.674,5.045-6.27,6.303-10.107
		c1.143-6.025,0.277-12.458,2.923-18.173c2.009-5.323,6.744-9.862,6.123-15.936c-1.92-22.595,14.951-27.882,7.691-53.867
		c-10.822-38.903-13.865-42.467-23.349-50.242c0.033-5.927-0.31-11.854-0.898-17.732c0.424,0.278,1.257,0.865,1.682,1.159
		c-7.078-21.735-6.359-48.869-26.713-57.573c2.531-5.323,3.641-11.12,4.311-16.916c0.947,0.849,2.825,2.547,3.772,3.396
		c-4.735-25.978-18.288-49.311-33.636-70.391c-2.188-3.331-6.286-4.082-9.846-4.964c-2.188-6.335-4.539-12.638-5.846-19.218
		c4.653,3.151,9.797,5.47,15.038,7.478c0.13-9.225-6.058-16.377-12.165-22.5c-17.041-17.967-18.061-29.861-27.187-36.771
		c-7.25-5.682-12.148-14.01-20.41-18.451c2.906-3.445,5.829-6.874,8.768-10.287c9.372,11.103,21.749,19.382,30.126,31.383
		c11.753,15.682,21.479,30.452,23.153,19.659c4.801,2.596,9.585,5.225,14.369,7.87c-0.343,19.774,8.18,38.159,17.161,55.288
		c7.446,13.095,7.364,28.819,14.042,42.241c2.433-1.714,5.437-3.168,6.466-6.205c2.857-7.282-0.131-15.022-1.061-22.37
		c8.896,17.072,2.716,13.358,17.602,21.847c-5.47,10.14-13.21,21.243-10.14,33.31c1.535,8.458-0.898,17.357,2.204,25.586
		c3.184,9.062,8.148,17.814,7.789,27.742c-0.572,8.964,9.862,11.642,13.422,18.484c0.561,8.753,2.855,40.762,11.92,38.388
		c4.343-2.972,3.935-8.981,6.286-13.259c3.902-7.168,10.809-12.099,14.859-19.202c7.299-12.312,13.504-25.358,22.533-36.559
		c-1.421-11.087,5.421-20.9,5.29-31.905c0.098-8.262-2.106-17.847,3.347-24.917c5.813-3.413,10.417,3.413,14.597,6.433
		c13.605-9.16,12.141-11.457,12.948-21.439c11.087-8.083,6.58-23.415,13.667-33.751c17.707-28.49,20.596-41.793,10.924-66.391
		c4.049-1.404,7.984-3.151,11.707-5.323c2.498,2.466,4.719,5.388,7.936,7.021c5.286,0.784,1.785-13.182,5.617-19.545
		c5.666-11.315,6.613-24.199,6.45-36.641c0.686,1.323,1.421,2.645,2.204,3.951c4.099,0.474,8.197,0.996,12.328,1.502
		c-0.049,6.711,1.91,13.797-1.078,20.165c-9.425,22.06-9.234,24.485-2.319,27.578c1.6,4.262,3.56,8.393,6.025,12.246
		c-16.573,13.716-29.032,32.804-33.865,53.818c10.091-2.449,18.81-8.279,28.427-11.985c5.878-2.482,12.573-1.943,18.337-4.85
		c56.964-26.04,56.076-4.947,71.681-44.168c11.993-35.53,50.841-57.179,45.23-105.383c-0.816-7.135-3.658-13.863-7.772-19.692
		c3.396-1.959,6.792-4,10.303-5.797c1.928,2.249,2.763,4.098,6.776,6.221c4.784-3.87,6.303-10.075,9.993-14.793
		c-2.425-38.521,20.291-51.431-4.441-104.06c3.739-0.996,7.38-2.4,10.989-3.87c3.152,4.392,6.025,8.981,8.67,13.716
		c7.838-11.381,6.678-26.027,12.556-38.225c6.368-13.781,5.617-29.407,10.401-43.662c4.578-13.643,12.375-34.577,0.408-43.564
		c5.552-2.694,10.271-6.695,14.222-11.397c-0.31,6.597,0,13.291,1.813,19.692c9.536-2.417,12.442-12.344,16.198-20.149
		C2172.995,144.5,2181.126,143.39,2184.522,137.496 M1323.76,408.317c-3.886,7.201-10.287,12.556-16.067,18.19
		c-20.389,17.633-41.712,49.751-43.939,52.414c-4.327,5.356-5.552,12.491-9.846,17.896c-7.838,10.564-16.736,21.423-17.814,35.106
		c1.11-0.261,3.331-0.784,4.458-1.045c-4.425,5.29-1.633,12.85,0.767,18.467c-11.471,5.425-25.158,40.142-26.876,61.247
		c-1.894,17.324,2.041,34.828-0.931,52.087c-1.029,6.058-1.486,12.932,2.972,17.814c3.87-8.981,10.222-17.324,10.466-27.464
		c-0.016-5.372,6.14-7.266,8.148-11.691c1.845-3.233,1.061-7.037,0.98-10.548c9.209-8.458,18.745-17.684,22.762-29.881
		c1.649-4.898,1.91-11.103,6.809-14.108c9.786-4.12,20.978,10.54,13.389,31.726c-1.535,4.637-7.38,5.372-9.846,9.258
		c-2.025,4.588-2.629,9.83-5.748,13.895c-4.278,5.878-8.899,11.952-9.781,19.414c-0.31,5.323-4.703,8.687-7.364,12.867
		c-1.568,4-0.833,8.54-2.253,12.605c-2.123,5.96-6.205,11.087-7.658,17.308c-2.204,9.079-0.833,18.5-1.698,27.726
		c-1.584,17.88,6.678,34.763,16.916,48.871c12.018,16.475,21.57,35.89,39.498,46.911c0.669-11.903,1.176-23.905,0.212-35.808
		c0.31,0.963,0.914,2.906,1.208,3.87c6.188,0.131,12.393-0.229,18.598-0.392c-3.037,5.029-2.596,11.103-1.339,16.622
		c4.932,23.267,10.207,48.824,25.946,53.949c-0.147-6.384,3.266-11.985,8.523-15.447c12.72-8.785,18.222-24.052,28.901-34.812
		c8.834-9.732,22.778-14.647,28.395-27.236c2.253-5.078,6.662-8.589,10.091-12.801c0.8-2.743,0.506-5.666,1.257-8.393
		c1.486-2.417,4.523-2.71,6.907-3.723c-2.531-7.821,2.743-14.369,6.009-20.933c2.547-4.425,0.637-9.405-0.572-13.879
		c-2.498-8.556-0.359-17.88-3.886-26.191c-1.404-4.082-5.65-6.221-7.38-10.058c-0.474-3.886,0.767-7.723,0.833-11.577
		c-1.829-5.405-6.433-9.258-8.703-14.418c-1.486-4.784-1.568-10.042-4.458-14.304c-7.511-11.609-7.936-27.284-18.908-36.657
		c-4.229-3.968-11.299-7.593-9.617-14.548c2.433-7.936,5.748-17.145,13.863-20.851c2.923,2.008,6.074,3.674,9.503,4.735
		c5.878,16.1,15.74,30.534,19.953,47.254c0.865,4.164,4.702,6.564,6.825,10.042c1.192,3.298,1.208,6.989,2.841,10.189
		c2.188,4.654,5.535,8.85,6.662,13.977c1.887,7.238,3.038,24.601,11.756,25.227c3.396-1.665,2.384-5.682,2.368-8.687
		c-0.702-7.168,1.959-14.091,1.649-21.227c-0.67-16.492-4.017-32.738-4.621-49.23c-0.751-16.296-3.249-32.885-10.499-47.662
		c-7.106-12.58-28.604-20.177-22.223-33.146c5.943,0.669,10.907,4.18,16.361,6.352c-7.512-35.056-85.599-133.671-100.795-139.46
		C1324.544,401.083,1325.458,405.149,1323.76,408.317 M1319.172,893.136c0.29,8.794,13.011,6.77-39.808,48.74
		c-10.091,7.838-19.055,17.259-30.338,23.48c-5.682,3.347-12.181,6.531-14.891,12.981c16.665,9.459,21.329-10.362,35.677-8.638
		c4.425,0.131,5.078,5.307,3.56,8.556c-4.049,9.862-11.413,18.026-19.12,25.227c-9.111,8.278-22.419,4.947-33.555,5.878
		c-52.46,6.035-93.936,58.112-107.783,84.581c-36.075,70.14,54.374,93.129,89.561,117.825c6.131,4.055,52.302,34.008,57.035,28.395
		c3.281-4.505,8.527-25.047,29.587-20.704c14.288,11.019-0.548,27.179,4.866,41.392c7.609,10.809,16.443,20.786,23.398,32.069
		c4.278,7.625,6.907,16.263,12.916,22.843c5.486-9.438,9.274-20.133,17.03-28.068c2.151-2.321,18.162-14.673,21.962-38.502
		c1.665-8.083-7.495-14.826-4.425-22.762c10.37-14.354,37.466-8.23,36.233,19.725c5.405-0.98,6.417-7.266,10.924-9.568
		c83.206-50.134,85.19-42.539,124.03-70.604c2.417-1.567,3.413-4.376,4.98-6.646c2.661-4.311,7.478-6.858,9.732-11.462
		c3.201-6.139,4.376-13.046,6.433-19.594c-2.874-4.343-4.147-9.519-3.494-14.696c1.323-12.965-6.303-24.297-12.328-35.089
		c-4.817-8.115-7.021-18.075-14.467-24.411c-15.153-12.72-30.534-25.276-47.221-35.955c-30.388-18.746-27.032-12.865-71.91-14.238
		c-7.217-16.116-27.203-22.272-32.379-39.678c18.026,2.596,34.208,15.545,53.067,11.822c-4.376-9.503-15.414-11.756-23.203-17.504
		c-19.594-11.528-35.743-27.709-53.949-41.147C1340.333,909.628,1332.757,896.729,1319.172,893.136 M1058.964,1561.323
		c56.011,3.214,91.214-4.398,121.123,0.375c7.135,1.11,15.283,2.302,21.341-2.645c-6.988-5.274-16.067-3.511-23.97-5.944
		c-16.687-5.307-29.864-18.451-47.14-22.223C1109.677,1526.32,1071.281,1544.979,1058.964,1561.323z"/>
	<path fill="#459035" d="M2412.433,122.343c13.919-4.213,14.1,2.388,31.22,9.928c13.198,5.59,39.013,39.382,48.609,59.027
		c5.045,9.977,5.47,21.553,10.777,31.432c6.563,12.39-4.143,36.383-8.507,46.928c-6.938,4.469-12.611,5.843-18.108,7.217
		c-10.521-6.613-24.767-8.713-33.31-44.74c-9.051-40.313,1.075-50.948-8.001-68.269c-4.147-7.642-2.808-17.275-8.18-24.346
		C2422.279,133.626,2416.123,128.972,2412.433,122.343z"/>
	<path fill="#3C3F2A" d="M2357.978,149.317c-6.662,4.343-15.545,3.919-21.766-0.98
		C2311.599,128.759,2367.431,111.12,2357.978,149.317z"/>
	<path fill="#459035" d="M218.318,137.381c9.715-5.388,20.721-12.312,32.183-7.756c1.241,10.303-9.519,14.793-14.14,22.353
		c-20.653,33.026-8.777,61.104-11.054,79.111c-1.094,5.846-5.127,10.564-6.613,16.296c-2.433,8.491-2.939,18.01-8.85,25.064
		c-6.646,8.785-17.831,12.654-24.329,21.504c-4.588,8.115-1.633,17.831-0.833,26.533c-6.401-0.882-10.973-5.552-16.443-8.425
		c3.511-6.956-0.588-14.287,0.049-21.504c0.614-17.276-2.812,0.154-8.85-37.424c-1.502-11.871-2.449-24.884,3.543-35.743
		c4.098-6.482,0.131-14.63,3.462-21.341c9.111-19.496,21.243-37.767,36.706-52.806C207.607,140.059,213.648,140.288,218.318,137.381
		z"/>
	<path fill="#459035" d="M2003.637,129.903c19.142-4.169,52.12,30.481,72.971,41.049c6.09,15.871,18.19,28.607,23.888,44.674
		c2.727,7.38,2.988,15.561,6.989,22.5c8.241,14.044-7.897,22.049-1.535,36.347c-3.608,1.47-7.25,2.874-10.989,3.87
		c-9.226-5.258-21.194-2.417-29.636-9.356c-8.719-7.103-13.013-17.814-18.32-27.383c-4.392-7.968-11.283-15.136-11.969-24.639
		c-2.993-37.453-9.645-31.64-15.414-51.924C2016.439,152.371,2004.65,143.308,2003.637,129.903z"/>
	<path fill="#3D3E2A" d="M327.358,158.151c-5.666,3.38-12.965,3.576-19.071,1.339c-4.327-1.551-4.915-7.021-4.898-10.973
		C304.124,116.251,332.13,142.624,327.358,158.151z"/>
	<path fill="#459035" d="M644.568,138.949c2.661-1.731,5.829-1.388,8.834-1.045c1.388,12.458-5.895,23.676-11.463,34.257
		c-5.764,9.683-5.617,21.635-11.511,31.252c-22.528,38.287,2.62,18.213-36.086,64.905c-18.33,23.019-23.363,10.469-31.595,23.513
		c-4.947-3.135-9.03-7.446-11.332-12.867c2.431-14.907-0.17-47.953,8.785-62.799c3.494-6.286,5.715-13.357,10.728-18.696
		c3.249-2.874,2.302-7.446,3.494-11.185c2.123-2.204,4.98-3.543,7.135-5.731c2.792-3.478,4.164-7.838,6.842-11.414
		c2.515-2.008,5.943-2.384,8.768-3.935c8.311-4.572,12.769-13.781,21.063-18.402C626.428,142.345,636.486,143.766,644.568,138.949z"
		/>
	<path fill="#459035" d="M1337.541,145.741c34.191,11.005,61.378,38.698,76.351,70.848c3.364,5.813,1.355,12.409,0.31,18.549
		c-1.682,7.74,5.895,14.385,3.266,22.158c-2.172,6.352-6.499,11.658-9.144,17.814c-4.735,1.241-9.405,2.678-13.912,4.507
		c-3.527-1.029-7.005-2.123-10.401-3.38c-3.237-3.718-21.644-17.284-26.746-29.766c0.588-9.846-7.658-17.961-5.274-27.889
		c2.253-8.589-4.866-15.789-4.278-24.28c0.229-7.642,2.498-15.724-0.849-23.007C1343.191,163,1336.267,155.473,1337.541,145.741z"/>
	<path fill="#459035" d="M1269.224,167.507c17.707-10.064,31.112-22.797,43.858-18.026c1.861,10.27-1.91,20.492-8.033,28.623
		c1.159,10.532-2.319,20.623-4.164,30.828c-1.894,7.968,2.041,15.92,0.539,23.905c-1.306,5.372-4.131,10.271-5.111,15.741
		c-1.596,6.138,2.109,7.115-18.467,22.484c-4.262,3.266-9.862,4.964-12.72,9.797c-7.201-0.015-10.948-5.174-19.186-11.201
		c-18.167-25.28-2.127-40.626-2.662-64.072c-0.539-5.437,4.294-8.817,7.25-12.654c3.037-3.135,3.462-7.658,4.278-11.724
		C1262.578,179.867,1262.529,170.283,1269.224,167.507z"/>
	<path fill="#459035" d="M2238.618,168.928c4.588-1.437,9.127-3.494,14.059-3.543c9.503-0.343,18.304,4.409,27.84,4.147
		c14.271-0.261,27.774,4.85,40.87,9.96c28.7,12.314,26.93,21.661,27.676,28.036c-9.764,0.767-19.48,2.204-29.26,2.498
		c-6.662,0.376-13.504-0.131-19.888,1.992c-11.18,3.884-53.264,33.241-97.905,23.072c-12.776-2.176-14.453-18.46-31.856-10.613
		c-1.176-3.184-2.351-6.384-3.445-9.585c2.843-2.443,33.211-34.601,45.311-39.988
		C2220.396,171.018,2229.915,171.687,2238.618,168.928z"/>
	<path fill="#459035" d="M375.853,180.112c22.174-6.564,46.013-3.462,67.697,3.511c33.031,9.845,29.277,21.071,48.479,37.065
		c-0.931,3.951-1.861,7.936-2.808,11.903c-2.89-1.535-6.597-3.38-9.356-0.49c-39.511,30.383-48.597,7.137-72.465,11.511
		c-9.536-7.609-21.864-9.552-32.608-14.826c-4.719-2.547-10.14-2.629-15.349-2.645c-17.294-15.44-46.133-3.026-62.456-6.237
		c-1.192-6.482,4.147-10.124,9.128-12.769c10.599-6.497,46.411-33.3,62.586-28.068C371.037,179.59,373.404,180.978,375.853,180.112z
		"/>
	<path fill="#3D3E2A" d="M1843.179,184.178c3.102,1.747,6.401,3.298,9.144,5.666c1.176,2.988,0.49,6.368,0.718,9.536
		c-18.173,5.307-35.465,13.618-52.006,22.778c2.221,7.38,10.401,9.732,17.243,10.319c6.074-0.784,9.977-6.891,16.312-7.266
		c-8.295,6.76-17.635,12.769-22.664,22.582c-3.005-5.241-9.275-6.352-14.777-6.286c-36.349,0.877-56.878,23.709-83.046,43.139
		c2.825,1.861,5.764,3.592,8.932,4.882c-0.082,3.413-0.147,6.825-0.229,10.254c-39.336-7.054-91.854,71.858-117.074,86.54
		c-7.479,2.678-14.287-7.348-11.071-13.912c4.278-8.85,8.98-17.912,9.487-27.921c0.277-8.948-6.989-17.406-3.168-26.305
		c16.145-9.833,18.184,19.873,19.741,27.448c11.642-3.56,13.128-18.288,23.676-23.252c6.989-3.004,11.397-9.389,15.839-15.251
		c3.383-4.637,39.658-32.796,28.199-60.153c5.633,3.886,12.344,1.176,18.222-0.571c-0.963,6.825-2.433,13.569-3.07,20.443
		c16.361-3.07,28.036-15.871,40.494-25.815c7.266-6.401,17.471-9.732,21.896-18.974c3.821-8.654,12.164-14.581,14.45-23.97
		c7.658-1.323,13.438-7.233,21.08-8.54c-3.788,5.666-6.94,12.001-6.45,19.039c11.038-1.421,19.382-9.552,29.815-12.654
		C1831.782,193.616,1839.865,191.461,1843.179,184.178z"/>
	<path fill="#3D3F2A" d="M807.182,186.382c5.519,4.719,13.324,4.588,18.924,9.16c3.772,3.119,8.523,4.066,13.226,4.882
		c8.752,5.829,17.292,12.785,28.117,14.189c-0.8-4.311-2.449-8.393-4.98-11.969c5.274,1.355,10.728,1.894,16.181,1.616
		c7.593,17.618,22.386,30.469,37.865,41.098c12.557,8.344,22.272,21.178,37.049,25.929c1.127-5.65-0.686-11.12-2.988-16.198
		c6.107,1.355,12.409,1.747,18.663,1.225c-1.453,12.965,3.462,25.831,12.001,35.498c17.994,20.949,37.212,40.919,57.982,59.141
		c1.93-9.974-0.516-27.307,6.956-29.881c6.809,0.751,11.805,7.054,12.932,13.52c3.078,16.917-3.983,25.669,6.254,48.038
		c-3.919,2.613-7.985,5.029-12.148,7.217c-9.209-7.413-13.993-18.647-22.5-26.697c-11.658-11.789-25.472-21.194-36.739-33.359
		c-23.568-24.188-23.959-20.218-45.785-22.647c-8.556-0.245-17.961-1.388-25.554,3.396c-3.086-4.343-2.825-9.748-2.939-14.793
		c9.666-2.368,19.692-2.4,29.587-2.89c-3.41-17.417-57.098-52.878-97.643-44.005c0.849-1.323,1.682-2.662,2.515-4.017
		c-3.527-2.335-7.135-4.654-11.25-5.731c6.711-3.87,14.532-4.654,21.929-6.482c-8.262-13.046-24.166-16.312-37.098-22.68
		c-6.433-4.278-13.177-9.062-21.39-7.952c-0.376,0-1.11-0.016-1.486-0.033c1.061-0.62,3.184-1.845,4.245-2.466
		C808.7,195.102,808.357,190.66,807.182,186.382z"/>
	<path fill="#459035" d="M1834.591,225.211c11.609-0.457,24.035-0.865,34.714,4.474c9.601,3.641,20.002,5.16,29.146,10.091
		c5.617,2.841,9.682,7.805,14.516,11.74c10.961,9.039,26.854,17.431,28.803,25.374c3.683,13.581,20.383,16.216,14.565,42.715
		c-10.679-0.294-17.781-9.732-27.791-12.132c-8.948-2.286-18.647-1.061-27.056-5.503c-14.702-7.338-37.748,2.84-73.053-24.656
		c-9.226-7.103-14.549-18.239-16.508-29.522C1816.956,237.98,1826.296,231.971,1834.591,225.211z"/>
	<path fill="#459035" d="M834.777,237.18c2.351,1.812,5.274,1.894,8.132,1.927c4.115,1.078,7.723,3.396,11.25,5.731
		c-16.437,26.75-11.629,45.189-66.064,55.402c-5.503,0.931-10.271,3.968-15.381,5.992c-5.813,1.845-12.05,1.012-18.01,2.123
		c-21.088,4.295-67.235,33.184-61.59,11.675c3.919-21.766,19.496-38.878,35.286-53.296
		C775.499,221.983,814.427,223.439,834.777,237.18z"/>
	<path fill="#459035" d="M2383.27,228.558c11.609,5.78,16.377,18.614,20.476,30.06c2.384,7.593,7.184,14.336,8.131,22.386
		c0.229,4.539,3.119,8.132,4.931,12.116c5.114,19.56,10.881,80.821-15.544,102.084c-9.98,7.578-3.939,24.65-26.419,18.973
		c1.159-3.396,3.021-7.054,1.698-10.662c-1.747-4.964-6.074-8.523-7.772-13.503c-3.233-8.915-1.486-18.68-4.343-27.676
		c-7.342-20.029,20.586-67.875,21.945-101.039C2387.483,250.095,2379.205,239.727,2383.27,228.558z"/>
	<path fill="#3C3F2A" d="M1986.656,233.637c5.47,3.902,7.348,12.23,3.249,17.798c-4.914,7.116-24.105,11.679-25.619-8.001
		C1962.754,231.993,1975.275,231.559,1986.656,233.637z"/>
	<path fill="#459035" d="M267.107,239.841c2.596-5.633,13.079-2.841,12.491,3.38c-0.278,8.409-4.735,16.1-4.784,24.558
		c-0.033,10.14,5.241,19.333,5.911,29.375c0.327,3.135,0.049,6.499,1.714,9.323c4.458,8.687,9.585,17.177,12.197,26.664
		c3.282,11.136-2.106,23.039,2.384,33.979c3.788,15.855-6.368,30.305-12.165,44.299c-0.686,7.772,3.69,15.006,6.09,22.239
		c-6.94,2.025-13.552-0.865-19.137-4.833c0.996-14.549-10.597-25.929-21.7-33.457c-6.172-11.479-6.956-24.901-13.144-36.281
		c-1.404-9.225,0.588-18.484,1.323-27.66c0.539-11.462-0.735-23.056,1.257-34.42c1.633-9.748,10.581-17.994,7.658-28.428
		C255.988,260.595,260.706,249.573,267.107,239.841z"/>
	<path fill="#3D3E2A" d="M676.163,239.253c6.94-2.09,14.369,3.478,14.695,10.613c1.208,9.781-12.214,16.785-19.692,10.662
		C665.175,254.292,667.575,241.801,676.163,239.253z"/>
	<path fill="#459035" d="M1099.883,244.185c22.664,5.127,42.601,17.635,63.321,27.595c4,4.36,7.576,9.128,10.679,14.189
		c-2.27-0.8-4.49-1.715-6.629-2.743c-3.674,2.596-1.649,7.054-1.502,10.744c1.845,9.178-40.453,31.574-75.747,15.104
		c-6.27-2.27-13.161-0.31-19.512-2.106c-6.466-1.992-12.262-5.666-18.761-7.478c-4.964-1.339-10.548,0.065-15.087-2.678
		c-4.637-2.727-9.911-3.886-15.006-5.405c-6.009-1.861-11.528-5.878-18.059-5.388c-6.727-0.229-14.32,0.898-20.133-3.233
		C976.422,266.534,1051.81,233.765,1099.883,244.185z"/>
	<path fill="#459035" d="M1570.138,241.164c69.384,4.705,70.516,10.755,93.986,25.946c4.572,2.841,6.646,7.936,8.556,12.72
		c-9.1,6.066-27.099,0.706-45.964,6.629c-10.014,2.94-6.893,8.145-27.872,12.981c-7.527,1.584-14.059,6.629-21.945,6.662
		c-19.104,0.212-38.241,4.915-57.296,1.812c-15.702-4.268-22.323-20.437-35.759-21.178c0.686-4.066,1.486-8.115,2.384-12.132
		c-0.653-0.31-1.927-0.898-2.563-1.208c12.71,0.978,11.278-7.139,37.016-19.022C1550.343,240.845,1536.418,240.977,1570.138,241.164
		z"/>
	<path fill="#459035" d="M47.345,256.431c14.206,3.056,11.469,7.505,17.928,15.463c4.441,5.47,10.483,9.274,15.528,14.124
		c15.824,15.177,13.285,17.918,25.015,23.937c29.468,13.499,38.269,23.325,55.549,48.593c-0.653,5.878-0.033,12.507,5.192,16.247
		c-2.384,4.441-4.947,8.834-8.278,12.671c-6.613,4.082-13.308,10.646-21.782,8.866c-11.103-2.433-22.06-6.907-30.714-14.467
		c-4.296-3.57-25.359-29.129-27.48-33.032c-3.886-7.054-6.744-14.646-11.169-21.39c-5.797-9.372-12.736-18.875-13.667-30.207
		C52.227,283.47,44.569,270.571,47.345,256.431z"/>
	<path fill="#3D3E2A" d="M2327.036,269.853c11.665,23.99-21.537,27.354-25.75,11.038
		C2296.817,268.484,2317.778,262.092,2327.036,269.853z"/>
	<path fill="#459035" d="M2597.53,268.057c2.678-1.535,5.829-1.257,8.85-1.355c0.882,4.996,0.147,10.042-2.106,14.598
		c-3.168,6.629-2.123,14.336-5.242,20.982c-11.925,26.282-0.195,14.576-38.943,62.26c-21.495,5.526-33.287,22.904-58.586,9.699
		c-1.453-3.984-2.825-7.968-4.098-12.001c9.242-5.013,7.217-17.096,12.867-24.737c14.973-23.251,43.842-30.795,62.26-50.454
		C2579.749,279.421,2588.142,272.808,2597.53,268.057z"/>
	<path fill="#3C3F2A" d="M353.418,284.581c2.09,3.233,1.649,7.25,1.894,10.907c-6.809,6.123-19.496,7.429-25.26-0.637
		C326.082,274.323,347.323,273.835,353.418,284.581z"/>
	<path fill="#459035" d="M2201.912,283.911c12.165-4.066,25.129-1.323,37.653-2.58c20.757-0.33,37.517-3.35,48.528,14.369
		c-6.858,2.776-12.263,7.887-18.418,11.822c-5.552,3.788-12.997,2.09-18.516,5.862c-58.163,38.212-57.103,51.627-101.35,41.604
		c-3.723-0.963-7.462-0.196-11.038,0.767c-3.135-2.89-6.074-5.976-8.85-9.193c2.318-1.796,4.817-3.364,7.396-4.833
		c1.829-7.576,5.682-14.434,10.499-20.508c3.641-4.458,5.731-10.597,11.413-12.965C2173.762,300.681,2186.4,289.61,2201.912,283.911
		z"/>
	<path fill="#459035" d="M1723.036,289.528c23.192,6.355,39.304-16.886,77.69,8.866c7.462,4.833,13.095,11.871,20.149,17.226
		c4.931,3.804,9.83,7.984,12.54,13.748c3.641,7.462,9.944,13.193,13.536,20.688c7.282,14.777,20.802,27.66,20.084,45.311
		c-13.667-3.739-23.088-14.957-33.849-23.382c-32.357-26.592-84.879-7.746-104.664-68.122c-0.441-2.776-3.755-2.58-5.731-3.543
		C1722.843,298.587,1722.942,293.453,1723.036,289.528z"/>
	<path fill="#459035" d="M451.78,290.639c7.779,1.506,41.711,12.867,48.952,22.713c5.486,7.184,12.687,13.52,15.153,22.549
		c2.025,7.299,7.544,13.014,13.846,16.916c-0.471,1-3.627,7.065-7.625,12.589c-7.821,1.976-14.614,8.099-23.088,6.988
		c-10.891-1.306-19.888-8.066-29.358-12.965c-5.535-2.988-11.789-4.376-17.096-7.789c-8.262-5.143-14.581-12.801-22.811-18.01
		c-9.16-5.78-19.463-9.519-28.607-15.349c-21.508-13.443-27.215-6.234-34.11-14.875C365.338,292.283,420.369,283.677,451.78,290.639
		z"/>
	<path fill="#459035" d="M879.581,290.573c13.504-2.351,27.774-1.078,40.119,5.176c0.114,5.045-0.147,10.45,2.939,14.793
		c-4.332,29.621-35.071,37.699-99.162,67.713c-12.883,6.188-22.762,19.055-37.914,19.953c-0.49-18.173,12.556-31.987,20.361-47.172
		c7.511-15.055,19.463-27.236,32.003-38.176C850.027,302.705,863.563,292.974,879.581,290.573z"/>
	<path fill="#459035" d="M2019.264,294.476c27.704-0.563,51.152,24.481,61.052,50.585c13.475,35.994,2.715,31.067,3.478,47.287
		c-0.294-0.343-0.865-1.029-1.159-1.372c-3.511,1.796-6.907,3.837-10.303,5.797c-5.062-5.682-12.115-8.964-19.447-10.483
		c-3.445-10.238-7.691-20.214-12.981-29.62c-4.278-6.695-0.261-14.777-1.796-22.076
		C2035.673,319.589,2022.839,309.106,2019.264,294.476z"/>
	<path fill="#459035" d="M631.555,303.244c9.381,5.452-3.646,19.731-5.797,26.484c-1.894,8.034,3.249,15.871,1.339,23.921
		c-1.796,5.911-6.744,10.564-7.364,16.884c-0.669,3.902,0.098,8.556-3.266,11.43c-6.695,6.793-10.483,16.949-20.1,20.329
		c-8.246,3.217-13.438,11.152-15.087,19.594c-13.232-10.119-11.336-8.794-11.054-56.871c4.833-9.732,5.813-21.112,12.475-29.979
		C595.11,318.259,610.534,298.904,631.555,303.244z"/>
	<path fill="#459035" d="M1985.611,314.2c3.364-1.6,8.703-3.413,11.266,0.376c3.282,8.572-4.653,15.561-6.172,23.529
		c-2.874,20.737,6.613,41.229,2.433,61.933c-1.666,9.634-8.425,17.798-8.621,27.774c-0.196,2.531,0.31,5.486-2.074,7.184
		c-6.613,6.221-7.642,16.932-16.051,21.423c-6.744,3.396-14.842,5.47-18.729,12.622c-4.131-0.506-8.229-1.029-12.328-1.502
		c-4.885-8.142-3.415-18.801-11.838-27.268c0.67-19.97-2.694-41.605,7.674-59.762c5.372-8.817,7.005-20.149,15.479-26.844
		c4.262-3.429,6.972-8.229,10.287-12.491c3.543-4.866,10.156-6.025,13.667-10.924C1975.112,324.503,1978.476,317.205,1985.611,314.2
		z"/>
	<path fill="#459035" d="M2319.361,313.188c2.28-5.7,14.761-1.836,13.944,40.919c-2.705,90.95-13.882,76.931-51.826,120.127
		c-5.421-0.931-10.679-2.645-15.25-5.715c5.453-6.188-0.523-14.14,0.784-21.292c1.959-21.978,5.829-45.556,20.867-62.733
		c3.217-4.098,8.817-6.744,9.911-12.214c3.959-19.506,13.751-21.755,14.859-31.318
		C2314.544,331.672,2314.708,321.646,2319.361,313.188z"/>
	<path fill="#459035" d="M660.864,321.76c18.567,0.464,28.162,13.349,46.928,32.673c4.507,4.327,6.695,10.238,8.785,15.985
		c2.27,6.662,7.903,11.495,10.287,18.108c0.381,1.022,10.897,35.529,8.017,50.046c-2.792,8.981-10.042,17.275-7.201,27.268
		c-4.801,2.759-9.405,5.829-13.895,9.062c-4.131-5.813-12.752-4.245-16.867-9.993c-8.67-9.96-13.193-22.582-19.741-33.881
		c-2.711-4.801-6.776-9.062-7.495-14.744C663.574,385.196,660.505,353.421,660.864,321.76z"/>
	<path fill="#459035" d="M332.241,324.552c4.36-2.89,10.417,0.669,11.773,5.274c1.682,5.65-0.522,11.903,1.992,17.39
		c20.403,45.332,39.632,57.49,44.38,77.282c1.665,7.674,6.188,14.32,8.082,21.913c2.041,9.813-4.539,18.957-3.135,28.803
		c-0.082,2.596,2.302,4.229,3.641,6.205c-5.192,1.959-10.613,3.266-16.116,3.984c-9.293-11.242-13.257-2.497-28.917-28.297
		c-40.856-68.171-22.019-90.486-24.297-114.2C329.53,336.782,328.567,329.908,332.241,324.552z"/>
	<path fill="#459035" d="M1418.235,324.014c-0.686,1.208-2.025,3.625-2.694,4.833c6.874,1.845,12.361-4.523,19.218-3.527
		c40.277,3.098,69.129,38.517,69.804,52.642c-4.777,1.659-30.921,1.347-46.911-4.425c-11.691-4.294-24.215,2.155-35.938-2.008
		c-10.369-3.315-15.414-14.875-26.158-17.439C1408.877,324.699,1409.695,327.401,1418.235,324.014z"/>
	<path fill="#459035" d="M1198.636,331.182c19.834-1.198,68.378-8.626,50.781,37.31c-10.156,2.368-18.68,8.621-28.313,12.246
		c-9.323,3.592-19.153,0.261-28.411-1.633c-18.92-5.106-48.327,9.183-38.192-14.402c5.584-12.181,18.043-18.631,29.26-24.688
		C1188.937,337.452,1193.46,333.745,1198.636,331.182z"/>
	<path fill="#459035" d="M1499.175,339.591c0.996-5.376,11.839-1.35,15.447,9.993c4.882,3.086,9.324,6.809,12.752,11.495
		c3.249,5.682,10.385-0.523,14.81,3.151c8.948,5.862,18.32,11.528,28.934,13.814c5.323,0.751,8.915,4.947,13.193,7.772
		c6.009,4.131,12.72,7.086,19.12,10.581c7.919,4.229,13.128,11.854,20.427,16.949c8.621,6.09,11.071,16.981,17.243,25.064
		c3.413,3.821,1.584,9.144,2.253,13.748c0.457,5.209,3.543,9.585,6.564,13.683c-2.939,3.413-5.862,6.842-8.768,10.287
		c-8.785-5.633-16.132,5.829-25.048,2.906c-20.525-4.245-34.91-20.884-53.785-28.738c-3.07-1.812-5.927-3.919-8.915-5.813
		c1.029-0.033,3.086-0.082,4.131-0.098c-3.053-12.671-16.753-17.896-22.027-29.195c-2.825-5.388-4.866-11.201-8.311-16.247
		c-4.588-6.793-11.266-12.132-14.614-19.741c-2.188-5.976-1.208-12.834-4.67-18.386
		C1504.4,354.09,1498.032,347.771,1499.175,339.591z"/>
	<path fill="#459035" d="M1129.731,354.597c5.209-4.947,11.283-9.944,18.941-9.536c0.539,14.14-7.854,26.191-12.54,38.959
		c-2.204,5.339-2.547,11.169-4.294,16.622c-3.331,8.229-11.675,12.932-15.626,20.753c-1.91,3.298-0.114,7.495-1.812,10.793
		c-2.515,2.417-5.486,4.294-8.131,6.564c-4.964,3.832-8.061,7.701-15.185,14.516c-10.585,26.292-56.985,19.581-76.122,31.742
		c-2.972-4.098-5.829-8.344-7.642-13.095c-1.567-41.695,28.227-63.838,50.438-79.845c-1.535-0.767-3.037-1.502-4.539-2.221
		c4.164-2.188,8.229-4.605,12.148-7.217c1.616,1.143,3.249,2.286,4.915,3.429C1087.731,381.924,1122.203,361.862,1129.731,354.597z"
		/>
	<path fill="#3C3E2A" d="M758.605,346.416c7.821,4.441,12.311,12.883,15.104,21.145c-5.323,4.947-13.242,3.772-19.774,2.662
		C743.756,360.165,750.279,340.935,758.605,346.416z"/>
	<path fill="#3C3E2A" d="M1909.113,349.159c-2.808,6.972-2.645,14.679-5.6,21.602
		C1867.756,362.687,1888.147,336.261,1909.113,349.159z"/>
	<path fill="#459035" d="M1747.414,348.571c2.172,6.417-1.666,12.556-4.882,17.831c-3.886,10.417,1.355,21.619-1.714,32.183
		c-4.507,23.578,10.254,47.352,1.192,70.44c-5.748,13.046-8.932,27.579-18.222,38.763c-4.017,4.752-5.895,10.809-6.221,16.965
		c-4.784-2.645-9.568-5.274-14.369-7.87c-3.808-18.509-4.79-12.307-14.026-22.027c-1.241-3.772-1.404-7.805-2.841-11.511
		c-2.384-6.352-6.335-12.573-5.47-19.659c6.61-72.469,20.32-69.963,32.673-93.414c1.518-2.743,2.743-5.846,5.535-7.593
		C1732.06,352.943,1742.338,344.397,1747.414,348.571z"/>
	<path fill="#459035" d="M906.931,349.731c7.805,1.306,16.083,3.445,21.635,9.47c4.931,5.552,12.099,8.393,17.096,13.846
		c5.976,7.348,8.393,16.72,12.393,25.146c4.082,8.654,10.466,16.165,13.422,25.374c2.661,8.213,1.453,16.949,2.694,25.391
		c0.882,7.658,2.972,15.61,0.392,23.186c-2.074,5.601-3.788,11.332-4.131,17.324c-5.323,5.356-11.707,11.005-11.822,19.218
		c-3.462,5.29-8.066,9.699-13.716,12.605c-5.062-10.417-14.157-17.831-23.496-24.215c-2.433-14.042-8.736-27.219-10.009-41.474
		C909.5,418.024,924.762,390.901,906.931,349.731z"/>
	<path fill="#3C3E2A" d="M2218.795,383.449c-7.772-6.564-0.686-21.7,9.389-19.937c7.838,1.339,12.181,9.47,11.854,16.949
		C2235.695,387.661,2225.065,388.314,2218.795,383.449z"/>
	<path fill="#3D3E2A" d="M1009.555,379.285c3.543,6.499,2.547,16.802-5.094,19.806c-10.597,3.56-21.684-8.197-19.382-18.582
		C987.972,371.864,1004.695,368.334,1009.555,379.285z"/>
	<path fill="#3D3F2A" d="M421.312,376.493c4.637-0.98,10.907-2.286,14.157,2.204c4.392,4.441,6.368,12.001,2.58,17.422
		c-4.801,6.972-16.557,6.874-21.259-0.196C411.857,389.898,413.082,378.877,421.312,376.493z"/>
	<path fill="#3C3E2A" d="M1668.924,381.914c-1.502,10.091-15.104,15.218-23.006,8.801
		C1647.335,369.062,1665.593,372.951,1668.924,381.914z"/>
	<path fill="#459035" d="M1447.12,428.482c9.323-14.157,20.835-27.138,35.269-36.265c7.756,3.38,6.482,12.475,4.735,19.202
		c-5.225,17.635,1.225,36.624-4.915,54.096c-15.265,41.034-43.666,39.067-44.625,12.899
		C1436.817,461.171,1444.148,445.137,1447.12,428.482z"/>
	<path fill="#459035" d="M1165.963,397.54c8.213-1.959,13.797,5.584,19.202,10.385c7.429,7.201,19.937,9.356,23.709,20.002
		c5.241,14.826,12.116,29.636,12.377,45.621c0.294,9.601-7.658,16.72-8.474,26.125c-0.098-0.702-0.277-2.074-0.375-2.759
		c-3.429,1.551-6.858,3.086-10.271,4.637c-42.18-41.385-31.011-69.076-33.179-86.72
		C1167.874,409.084,1165.963,403.451,1165.963,397.54z"/>
	<path fill="#459035" d="M2151.653,407.729c6.907,0.147,12.361-5.568,19.349-5.241c8.001-0.114,16.443-1.747,24.166,1.11
		c2.874,0.588,4.196,4.311,2.58,6.711c-7.103,11.12-22.386,13.177-29.081,24.656c-4.915,8.768-14.957,12.181-22.517,18.108
		c-14.931,2.859-29.098,13.399-40.249-11.005c0.947-0.637,2.841-1.894,3.772-2.531c1.698-6.499,3.821-13.585,9.993-17.226
		C2129.578,416.171,2139.244,407.304,2151.653,407.729z"/>
	<path fill="#459035" d="M458.605,414.57c8.05-10.816,20.743-2.521,37.033-4.458c38.461-4.879,53.543,30.861,64.595,40.364
		c-0.304,2.249-1.055,8.441-2.498,15.447c-16.346-2.799-22.002,19.048-69.183-31.04C480.028,425.919,464.581,426.392,458.605,414.57
		z"/>
	<path fill="#459035" d="M1775.988,416.138c10.233-7.635,41.912-5.649,53.916-4.213c24.549,1.458,60.798,34.668,70.424,51.434
		c12.297,20.353,0.897,31.317,12.802,49.393c-3.723,2.172-7.658,3.919-11.707,5.323c-1.878-3.135-3.282-8.18-7.789-7.903
		c-58.642-3.06-68.064-75.694-94.72-81.397C1790.423,426.702,1781.05,423.845,1775.988,416.138z"/>
	<path fill="#459035" d="M816.979,418.93c15.038-3.364,30.73-7.707,46.16-4.229c7.299,1.894,17.047,7.674,13.895,16.639
		c-44.618,0.987-52.196,70.451-96.141,78.67c-31.044,9.584-15.284,9.536-27.546,34.665c-3.282-9.242-2.955-19.529-8.344-28.036
		c7.021-11.12,4.229-24.721,6.825-36.951c4.605-10.989,13.602-19.496,18.092-30.599c7.119-2.482,9.209-10.728,15.936-13.667
		C796.585,430.539,805.206,421.559,816.979,418.93z"/>
	<path fill="#459035" d="M2456.797,418.407c10.009-0.065,19.365-4.654,29.391-4.523c36.434,0.241,34.996,8.848,44.185,11.528
		c5.323,1.714,10.956,3.004,15.61,6.352c9.013,6.597,20.77,6.074,30.893,10.042c6.368,2.776,13.046-1.094,19.594-0.016
		c4.441,0.767,7.413,6.776,4.017,10.254c-5.486,5.241-13.177,6.923-20.166,9.16c-20.165,5.405-38.927,16.23-60.072,17.716
		c-24.006,1.22-63.036-1.497-80.498-17.765c-5.307-4.425-6.711-12.23-13.275-15.316c1.094-4.637,2.335-9.274,4.49-13.536
		C2438.803,426.604,2446.183,417.754,2456.797,418.407z"/>
	<path fill="#459035" d="M156.026,430.997c8.246-1.894,16.018-6.597,24.737-5.797c34.877,2.674,27.314,6.534,45.409,13.226
		c3.902,6.727,7.119,13.895,11.969,20.051c-6.629,2.204-10.924,7.952-16.247,12.132c-14.25,11.941-24.255,14.029-63.974,16.443
		c-11.969,0.278-24.199,1.796-35.922-1.257c-6.433-1.551-11.74-5.911-18.141-7.495c-5.731-1.306-12.605,0.963-17.145-3.756
		c-7.674-6.564-20.149-9.781-21.945-21.194C95.905,449.072,125.59,438.41,156.026,430.997z"/>
	<path fill="#459035" d="M2028.995,449.154c15.609-2.563,29.504,6.145,28.46,16.247c-3.609,3.462-9.356,3.641-12.475,7.805
		c-6.515,7.609-14.581,13.667-21.374,20.982c-5.127,5.225-7.903,12.85-14.875,16.034c-6.858,3.168-12.867,7.674-18.614,12.491
		c-11.903,8.719-27.987-3.021-39.825,6.319c-2.466-3.853-4.425-7.984-6.025-12.246c6.891-2.564,6.531-10.368,7.609-16.394
		C1958.156,475.506,2001.395,452.938,2028.995,449.154z"/>
	<path fill="#459035" d="M588.203,459.179c22.974,0.441,46.454-6.727,69.069-0.196c4.817,3.429,9.552,7.021,15.691,7.691
		c10.058,4.898,17.586,13.765,24.656,22.239c10.385,12.067,8.164,32.036,22.974,40.755c-1.453,3.853-3.053,7.642-4.817,11.364
		c-15.071-7.903-33.359-4.458-48.315-12.703c-27.536-15.052-52.181-56.674-77.119-59.386
		C589.64,465.662,589.036,462.396,588.203,459.179z"/>
	<path fill="#459035" d="M1340.856,478.773c6.548-2.629,12.654-8.164,20.214-6.597c3.298,2.678,2.4,7.429,2.025,11.136
		c-1.943,10.548-10.254,18.026-17.03,25.717c-6.662,7.103-9.911,17.014-18.092,22.778c-46.593,34.449-70.344,14.458-86.654,17.537
		c-2.4-5.617-5.193-13.177-0.767-18.467c9.372-7.348,13.699-18.908,21.308-27.758c4.033-3.723,9.519-5.454,13.454-9.34
		c9.732-9.536,23.856-12.263,36.869-14.173C1321.719,478.022,1331.614,482.578,1340.856,478.773z"/>
	<path fill="#459035" d="M1824.581,508.915c-6.691,13.293,6.249,41.68-29.538,91.389c-5.454,8.393-17.226,7.429-23.268,15.251
		c-14.853-8.471-8.676-4.717-17.602-21.847C1729.287,528.793,1853.12,451.629,1824.581,508.915z"/>
	<path fill="#459035" d="M823.232,500.327c-1.502-2.466-0.343-5.307,0.082-7.87c8.85-0.425,16.916,3.494,25.129,6.139
		c7.658,2.008,12.214,9.16,18.925,12.916c9.993,5.65,16.1,15.659,22.517,24.737c4.703,16.263,13.748,30.893,18.614,47.058
		c-0.686,9.356-5.078,18.026-5.748,27.415c-5.803,3.316-7.81,9.202-11.626,14.255c-9.929-14.152-18.617-5.479-27.089-18.451
		c-6.45-9.503-15.414-18.255-17.112-30.093c-0.996-7.887-6.025-14.81-5.699-22.909c-0.131-15.316-5.372-29.881-10.466-44.119
		C829.698,505.339,825.551,503.527,823.232,500.327z"/>
	<path fill="#459035" d="M1605.292,512.165c7.086-3.609,15.349-2.515,22.647-0.18c9.438,3.053,19.186,5.356,28.15,9.732
		c11.952,5.601,18.696,17.798,29.783,24.656c1.306,6.58,3.657,12.883,5.846,19.218c-3.576-0.065-7.364-0.702-10.711,0.702
		c-10.897,9.288-4.916,18.353-48.887,17.39c-7.348-0.016-13.961-3.413-20.59-6.09c-7.495-3.119-15.904-2.237-23.513-4.915
		c-10.156-3.347-19.904-9.111-30.91-8.785c-21.723,0.391-35.211,18.453-41.098,11.136c-6.407-11.333,9.489-16.42,18.68-29.162
		c5.47-7.544,14.532-10.76,22.435-15.038c9.797-4.768,18.712-11.462,29.293-14.516
		C1592.605,514.418,1599.382,515.12,1605.292,512.165z"/>
	<path fill="#459035" d="M2356.247,508.491c13.575,4.132,13.057,1.996,21.423,14.091c-0.966,1-22.143,25.213-33.62,29.179
		c-4.768,1.682-3.657,8.948-8.637,10.515c-11.25,4.621-20.606,12.736-31.775,17.488c-7.756,3.347-17.308,1.502-24.084,7.152
		c-3.988,10.13,9.014,8.759,17.684,13.569c16.329,8.62,44.432,38.512,54.732,60.904c3.739,8.409,9.177,15.855,14.108,23.578
		c2.89,4.049,1.094,9.274,1.421,13.879c-0.8,11.609,2.237,23.643-1.731,34.894c-19.787,4.771-21.837-23.8-36.951-32.608
		c-5.486-3.07-9.862-7.576-14.597-11.593c-4.605-4.082-11.299-4.605-15.626-9.03c-50.97-48.52-41.726-33.576-55.826-61.541
		c-2.579-4.493-0.94-26.338-20.41-34.845c0.716-15.024,1.001-12.304,3.641-28.199c4.654-6.613,8.491-14.01,15.022-19.055
		c24.339-21.866,64.127-13.356,73.347-14.14c16.125-1.804,18.058-9.664,42.959-8.932
		C2357.047,512.475,2356.508,509.813,2356.247,508.491z"/>
	<path fill="#459035" d="M290.032,510.679c5.895,0.637,11.43,2.988,15.577,7.331c-3.086,0.767-6.074,1.829-9.062,2.923
		c9.03,2.825,18.19,10.042,27.921,5.601c7.779,6.96,29.725-0.874,41.49,2.808c22.784,5.796,21.523-5.978,54.716,12.72
		c5.584,3.364,11.74,6.646,15.087,12.524c2.025,2.988,3.413,7.429,7.805,7.397c6.94,0.914,13.063,4.441,19.757,6.188
		c0.016,6.891,0.131,13.797,0.555,20.704c-5.927,3.494-11.642,7.985-18.68,8.866c-9.993,0.376-13.748,13.536-24.411,12.083
		c-1.78,6.156-4.605,12.148-4.801,18.663c-0.343,3.184-0.163,6.711-2.221,9.389c-14.826,21.423-34.698,39.661-58.341,50.846
		c-6.515,2.596-8.687,10.124-14.467,13.65c-3.576,2.384-8.066,3.69-10.483,7.511c-5.895,7.984-12.916,15.071-20.378,21.619
		c1.992,5.633,7.217,13.797,1.225,18.68c-13.771-0.105-29.088-21.338-13.699-60.104c8.376-21.374,25.031-37.849,41.36-53.361
		c6.776-6.45,9.732-16.279,17.88-21.357c8.082-5.045,17.667-7.805,24.378-14.908c-5.094-4.327-11.593-6.009-17.831-7.903
		c-8.589-2.074-13.536-11.871-23.088-11.136c-21.837-31.944-62.273-52.245-62.946-66.587
		C281.819,514.353,288.024,516.002,290.032,510.679z"/>
	<path fill="#459035" d="M1052.367,515.512c16.312,3.266,30.469,12.573,46.144,17.684c3.217,0.947,6.188,2.612,8.507,5.094
		c11.054,11.25,26.958,18.173,33.522,33.375c-22.843,5.846-47.434-5.062-69.428,5.127c-20.525,11.332-45.131,10.368-67.599,7.086
		c-11.446-1.943-20.166-10.483-31.089-13.814c-0.931-5.699-1.029-11.479-0.441-17.21
		C976.432,548.458,1002.917,507.121,1052.367,515.512z"/>
	<path fill="#458F35" d="M246.533,519.823c10.842-3.429,22.027,1.812,32.33,4.964c1.208,3.102-1.029,7.315-2.074,10.613
		c-2.727,8.18-11.707,11.495-15.381,19.055c-11.411,20.417-24.698,13.134-23.333,5.503c-0.31-8.36,8.572-11.952,12.083-18.451
		c2.335-6.891-6.613-9.274-8.801-14.581C240.688,523.464,243.692,520.982,246.533,519.823z"/>
	<path fill="#3C3E29" d="M1857.45,569.885c-0.098,2.825-2.025,5.127-3.135,7.625c-5.927-0.588-13.209-0.637-16.981-6.025
		C1833.86,551.799,1858.563,557.127,1857.45,569.885z"/>
	<path fill="#3C3E2A" d="M813.044,562.243c12.565,12.292,5,29.696-5.356,25.211C792.238,583.801,794.768,561.032,813.044,562.243z"
		/>
	<path fill="#459035" d="M2074.894,579.584c0.931-4.735-0.082-11.413,4.768-14.222c38.464-8.186,1.944,167.343-76.792,147.869
		c-5.6-1.404-10.858,1.731-15.463,4.474c-3.382-8.11-4.705-12.666-5.062-13.667c6.27-3.478,2.857-10.842,3.413-16.524
		c0.31-13.961,9.503-25.178,16.949-36.2c10.973-15.691,29.669-22.566,44.266-34.093c8.278-6.499,13.961-15.463,20.084-23.872
		C2070.045,589.022,2074.813,585.315,2074.894,579.584z"/>
	<path fill="#459035" d="M561.816,592.941c2.613-4.694,8.408-23.39,21.21-7.821c10.892,14.352-2.778,16.249,41.751,48.136
		c20.94,15.082,49.675,43.557,46.389,69.069c-5.568,3.902-5.405,11.283-6.76,17.292c-10.532,0.261-21.194,2.547-31.677,0.653
		c-16.851-4.229-23.104-22.843-37.555-30.926c-13.526-38.781-15.47-14.963-28.166-66.26
		C564.445,613.139,567.221,602.15,561.816,592.941z"/>
	<path fill="#459035" d="M2163.541,587.699c3.347-2.645,7.413-4.049,11.397-5.503c6.548,6.744,14.99,11.136,22.092,17.226
		c11.544,12.001,18.271,28.721,17.618,45.425c-0.62,11.397,0.751,23.3-3.38,34.208c-1.551,4.425-5.845,6.695-8.98,9.797
		c-2.007,17.001-21.776,30.313-28.607,23.954c-4.637-12.099,2.58-25.244-1.878-37.424c-23.475-63.39-19.141-48.249-17.781-61.688
		c0.604-5.078-0.098-10.205,0.457-15.283C2155.262,593.431,2160.454,591.194,2163.541,587.699z"/>
	<path fill="#459035" d="M486.298,587.095c5.976,1.29,11.675,3.625,16.671,7.184c2.358,11.306,14.06,13.438,1.274,57.084
		c-2.613,8.376-4.115,17.145-7.936,25.129c-3.429,7.642-8.066,15.332-7.723,24.019c0.457,10.532,12.214,17.422,9.797,28.477
		c-24.334,5.261-82.635-67.514-34.6-124.128C469.937,597.104,481.857,596.565,486.298,587.095z"/>
	<path fill="#459035" d="M1676.451,608.273c16.149-0.18,30.665,7.821,44.821,14.549c3.87,4.539,5.943,10.417,10.156,14.728
		c-0.67,5.797-1.78,11.593-4.311,16.916c-9.895-0.67-16.786,8.229-26.289,9.062c-5.045,0.18-9.356-2.825-13.879-4.556
		c-6.727-3.021-15.12-1.796-20.786-7.135c-7.152-6.792-17.52-7.086-26.664-8.752c-6.972-1.094-15.071,2.629-21.047-2.466
		C1613.642,630.344,1647.164,606.992,1676.451,608.273z"/>
	<path fill="#459035" d="M998.68,611.653c7.691-0.425,13.242,5.682,19.594,8.981c9.405,5.307,18.173,12.801,21.602,23.398
		c-37.081,0.595-45.272,21.118-72.351,22.402c-12.377-0.376-24.1-5.96-36.624-5.111c0.163-10.238,5.111-19.365,6.629-29.277
		C946.983,620.502,954.467,610.033,998.68,611.653z"/>
	<path fill="#459035" d="M1908.101,621.499c2.955-4.36,8.148-5.878,12.818-7.707c7.331,8.18,16.148,15.773,19.104,26.827
		c3.952,12.197,9.389,24.101,10.923,36.951c1.182,9.055-0.035,32.849-8.458,40.755c-4.18,4.017-8.997,8.05-9.258,14.336
		c-9.144,9.601-23.627,15.904-36.722,11.332c4.833-7.478-2.106-14.402-4.931-21.015c-3.902-19.578,0.604-40.788,12.377-56.986
		c-0.392-6.237,0.31-12.736,4.245-17.847C1913.946,640.652,1916.51,628.063,1908.101,621.499z"/>
	<path fill="#459035" d="M728.675,619.784c5.111-4.262,10.679,2.123,12.328,6.793c1.878,7.658,1.584,15.724,3.935,23.301
		c3.429,12.818,13.536,22.337,18.124,34.632c9.244,23.936-2.02,44.151-2.972,53.312c-0.62,5.209,0.767,10.368,2.025,15.381
		c-4.392-0.033-8.768-0.131-13.144-0.359c-3.805-7.838-14.173-7.299-19.757-13.308c-9.209-8.491-10.124-21.57-14.271-32.673
		c-2.057-4.686-1.339-9.879-1.747-14.826c-0.572-2.841-2.515-5.094-3.592-7.723c-2.547-12.475,1.551-24.721,2.743-37.065
		c0.669-3.527,3.837-5.699,5.976-8.327C723.548,633.598,724.071,625.516,728.675,619.784z"/>
	<path fill="#459035" d="M1594.385,620.78c12.487,5.295-10.069,20.195-16.41,31.71c-2.433,4.213-2.841,9.177-4.621,13.634
		c-9.463,11.914-7.703-0.496-15.381,29.979c-3.576,0.637-7.135,1.372-10.662,2.172c-0.98,7.576-7.821,11.577-12.442,16.834
		c46.555,7.249,92.582,39.744,101.007,51.924c6.612,9.548,37.622,38.168,38.616,69.003c1.11,7.021-9.405,12.997-2.939,19.382
		c-8.181,3.331-16.981,4.539-25.586,6.303c-35.205-6.305-48.312-44.29-56.871-61.052c-4.556-9.209-11.185-17.194-15.887-26.305
		c-8.831-16.343-18.436-42.52-50.209-51.826c-6.907-2.482-11.185,6.303-17.978,5.29c-7.054-0.229-14.108-0.865-21.145-0.343
		l-1.29,1.225c-2.661-3.658-5.094-7.462-7.233-11.43c7.748-17.976-2.116-16.789,19.463-43.139
		c7.691-8.703,14.075-18.631,23.039-26.191C1535.25,632.914,1576.734,611.566,1594.385,620.78z"/>
	<path fill="#459035" d="M1057.854,623.164c8.736-1.616,18.059-2.155,26.452,1.323c7.168,2.955,15.512,2.923,21.929,7.609
		c12.607,9.095,8.053-0.919,37.245,21.504c17.569,13.961,31.563,33.979,33.8,56.773c0.784,4.262-0.425,9.879,4.017,12.458
		c-1.764,3.478-3.543,6.94-5.323,10.401c-1.829-1.518-3.69-3.004-5.715-4.18c-4.931-0.212-8.409,4.523-13.128,5.225
		c-5.993-1.617-11.952-3.364-18.157-3.87c-5.797,0.049-7.168-8.376-12.752-8.213c-6.776,3.707-11.397,10.172-16.541,15.74
		c-4.441,5.405-9.764,9.944-14.516,15.022c-3.527,3.462-2.89,8.801-4.507,13.144c-3.135,4.017-8.246,6.597-9.421,11.952
		c-2.188,7.495-6.384,14.059-10.695,20.459c-3.592,5.029-2.221,11.903-5.895,16.851c-19.286,26.645-9.973,31.048-62.194,50.601
		c-0.425-1.078-1.257-3.217-1.682-4.294c-4.735-1.486-9.372-3.184-13.912-5.16c0.212-0.588,0.653-1.78,0.865-2.368
		c-4.561-10.302-10.009-14.587,4.947-48.724c11.086-25.813,22.087-27.07,35.677-47.695c4.866-7.299,13.112-11.022,20.361-15.43
		c11.822-7.086,24.019-14.745,38.045-16.214c8.442-0.653,16.051-4.85,24.476-5.715
		C1142.683,716.39,1092.278,693.469,1057.854,623.164z"/>
	<path fill="#459035" d="M1341.427,636.096c0.604-4.523,5.176-6.499,8.442-8.899c5.601,4.229,8.54,10.76,8.703,17.7
		c0.392,12.606,7.364,24.444,4.801,37.212c-5.475,26.37,8.995,12.78-17.88,81.103c-5.078,4.898-9.421,10.385-12.524,16.785
		c-4.343,8.768-15.463,8.654-21.847,15.055c-6.205,0.163-12.41,0.523-18.598,0.392c-6.346-20.8-28.083-32.891-7.707-61.966
		c7.185-10.009,6.597-23.415,14.075-33.261c11.854-15.822,29.424-26.958,38.682-44.772
		C1340.856,649.518,1340.399,642.579,1341.427,636.096z"/>
	<path fill="#459035" d="M1832.435,638.121c0.049,7.103-6.76,10.205-10.238,15.349c-1.959,4.882-1.208,10.417-3.086,15.349
		c-1.714,4.164-4.817,7.658-6.107,12.001c-0.473,4.294,1.143,9.013-1.225,12.965c-8.044,15.745-30.099,25.087-33.408,10.973
		C1768.203,670.885,1794.933,627.846,1832.435,638.121z"/>
	<path fill="#458F35" d="M841.52,672.639c-2.139-11.805-14.157-20.476-11.936-33.293c42.37,5.854,56.713,42.959,51.075,70.326
		c-2.792,2.874-5.748,5.568-8.621,8.344C860.434,707.317,850.207,716.462,841.52,672.639z"/>
	<path fill="#458F35" d="M1726.252,691.253c4.817,2.025,10.254,3.347,14.026,7.217c3.984,4.098,6.956,9.242,11.871,12.41
		c0.588,5.878,0.931,11.805,0.898,17.732c-3.886,1.061-7.299,3.151-10.532,5.47c-8.445,6.982-35.411-13.682-50.471-21.651
		c-7.674-4.164-19.023-1.976-23.986-10.417c-2.09-3.331,1.47-5.993,3.984-7.544C1697.76,679.178,1710.811,685.31,1726.252,691.253z"
		/>
	<path fill="#458F35" d="M910.785,703.206c50.104-28.254,63.997-6.55,64.578,5.878c-5.584,1.91-11.577,2.335-17.063,4.507
		c-5.617,4.213-9.797,10.124-15.74,13.977c-10.107,7.413-23.431,4.686-35.106,5.421c-2.417,1.976-4.49,4.36-6.548,6.727
		C900.407,717.071,910.76,716.535,910.785,703.206z"/>
	<path fill="#459035" d="M1973.642,735.013c8.36,1.208,16.41,3.592,24.46,6.074c9.672,0,52.958,34.32,60.235,40.788
		c5.046,3.853,5.405,10.793,9.242,15.577c6.384,9.438,16.802,18.075,16.247,30.469c0.572,4.115-4.343,6.237-7.658,4.67
		c-10.271-3.413-15.724-14.042-25.292-18.647c-4.67-2.214-39.919-15.412-49.573-16.867c-18.336-3.285-18.085-2.12-41.523-16.051
		c-8.899-4.164-8.817-16.965-18.402-20.378c4.503-11.001,6.384-13.897,22.207-16.051
		C1966.752,741.218,1970.099,738.018,1973.642,735.013z"/>
	<path fill="#459035" d="M694.696,740.385c9.862,7.054,19.186,16.083,22.892,27.954c-9.323,4.229-13.602,13.993-20.41,20.998
		c-11.936,10.613-28.248,13.863-43.156,18.255c-8.948,1.91-16.639,7.495-25.701,9.013c-6.613,1.208-13.536,1.502-19.643,4.523
		c-7.756,3.543-9.813,13.618-17.798,16.851c-15.258,4.609-13.808-10.7-9.16-25.831c3.347-10.836,39.321-58.943,80.727-68.66
		C672.979,740.614,683.968,741.446,694.696,740.385z"/>
	<path fill="#459035" d="M1733.486,762.722c7.691-6.384,15.708-15.43,26.713-14.222c6.452,26.347-16.272,15.1-15.185,63.778
		c-12.241,31.036-11.407,63.997-36.543,72.236c-6.94-0.245-14.075-1.617-19.529-6.156c-0.147-10.369-2.694-20.655-1.306-31.04
		c4.691-39.595,10.048-27.221,20.933-54.259C1713.19,780.389,1724.391,772.078,1733.486,762.722z"/>
	<path fill="#459035" d="M889.901,761.547c-0.62-5.731,4.082-9.634,7.413-13.601c11.299,12.834,27.236,20.459,38.372,33.457
		c6.172,6.809,8.213,16.312,14.679,22.925c10.287,10.826,12.834,26.076,17.275,39.776c10.001,32.685-4.741,26.642-5.845,45.736
		c1.274-0.392,3.837-1.192,5.111-1.6c-2.253,5.682-7.576,8.572-13.046,10.483c-0.898-1.812-1.731-3.641-2.547-5.437
		c-24.083-10.954-31.635-25.869-33.653-49.164c-0.98-10.695-6.156-20.443-7.609-31.04c-2.074-14.418-1.927-29.75-8.899-42.943
		C898.963,765.596,894.342,763.31,889.901,761.547z"/>
	<path fill="#459035" d="M1414.17,814.711c-1.633,2.547-3.086,5.192-4.539,7.854c68.357-2.136,69.188,41.629,83.699,55.908
		c9.177,9.389,11.609,23.154,10.94,35.824c-10.777-1.306-17.488-10.254-24.672-17.292c-5.062-5.503-13.324-4.262-19.202-8.295
		c-3.217-2.074-7.021-2.792-10.711-3.413c-11.609-1.943-22.566-6.417-33.816-9.683c-18.751-5.442-17.142-16.973-30.599-17.39
		c0.385-18.328,3.034-12.855,9.258-23.105C1398.207,826.83,1396.854,817.012,1414.17,814.711z"/>
	<path fill="#459035" d="M1211.862,822.745c8.964-2.564,18.32-0.147,26.68,3.331c17.762,7.586,10.285,12.763,21.39,19.382
		c0.18,2.237,0.376,4.49,0.506,6.776c-11.67,20.439-4.963,16.167-16.834,21.194c-8.883,2.988-16.981,9.585-26.844,8.572
		c-9.617-1.388-17.912,4.523-27.121,6.025c-10.728,1.861-15.839,12.703-24.852,17.504c-10.462,6.603-26.667-10.344,17.88-65.444
		C1189.786,830.844,1200.938,825.913,1211.862,822.745z"/>
	<path fill="#459035" d="M1078.966,846.813c24.192-3.702,34.748-11.971,57.084-2.09c-6.221,14.581-23.513,17.292-33.979,27.595
		c-9.65,9.405-18.173,20.035-28.787,28.46c-4.112,3.32-37.699,25.549-55.826,28.656c-6.205,0.98-12.409-0.49-18.598-0.865
		c-6.94-5.16-10.287-13.21-10.924-21.651c9.901-8.599-5.548-13.344,41.915-39.857c8.458-4.311,16.475-10.026,26.027-11.642
		C1064.026,853.785,1070.688,848.087,1078.966,846.813z"/>
	<path fill="#459035" d="M1510.915,844.69c13.651-6.482,29.277-5.143,43.76-2.727c12.279,2.155,25.407,2.515,36.396,9.128
		c7.658,5.094,17.896,3.119,25.227,8.981c9.683,7.299,20.394,13.112,29.881,20.688c6.874,5.274,10.401,13.487,16.508,19.48
		c5.356,5.127,5.6,13.406,11.103,18.451c-1.078,2.988-2.106,5.993-3.2,8.981c-8.638-2.123-17.716-0.441-26.305-2.923
		c-7.625-2.319-16.639-0.392-23.023-5.894c-9.34-6.842-20.378-10.875-29.718-17.7c-12.883-9.242-23.333-21.292-35.285-31.612
		c-3.723-3.233-9.013-2.776-13.438-4.343C1530.672,861.231,1519.977,853.573,1510.915,844.69z"/>
</g>
</svg>
